<?xml version="1.0" standalone="no"?><!DOCTYPE svg PUBLIC "-//W3C//DTD SVG 1.1//EN" "http://www.w3.org/Graphics/SVG/1.1/DTD/svg11.dtd" ><svg version="1.1" xmlns="http://www.w3.org/2000/svg"><defs><font horiz-adv-x="0" id="font"><font-face ascent="820" bbox="-80 -252 2371 879" cap-height="690" descent="-180" font-family="Everett" font-stretch="normal" font-style="normal" font-weight="500" units-per-em="1000" x-height="500" /><missing-glyph d="M474 0V690H78V0ZM90 678H462V12H90ZM90 668V678H100L462 22V12H452ZM90 22 452 678H462V668L100 12H90Z" horiz-adv-x="552" /><glyph glyph-name=".null" horiz-adv-x="0" /><glyph d="M675 0 448 690H340V668L560 0ZM121 0 340 668V690H233L5 0ZM538 194V288H138V194Z" glyph-name="A" horiz-adv-x="681" unicode="A" /><glyph d="M857 597V690H434V597ZM865 0V93H583V0ZM848 308V401H459L469 308ZM675 0 448 690H340V668L560 0ZM121 0 340 668V690H233L5 0ZM538 194V288H138V194Z" glyph-name="AE" horiz-adv-x="918" unicode="&#198;" /><glyph d="M675 0 448 690H340V668L560 0ZM121 0 340 668V690H233L5 0ZM538 194V288H138V194ZM368 740 520 875H372L268 740Z" glyph-name="Aacute" horiz-adv-x="681" unicode="&#193;" /><glyph d="M675 0 448 690H340V668L560 0ZM121 0 340 668V690H233L5 0ZM538 194V288H138V194ZM341 805C304 805 275 824 275 875H201C201 802 248 740 341 740C433 740 481 802 481 875H407C407 824 378 805 341 805Z" glyph-name="Abreve" horiz-adv-x="681" unicode="&#258;" /><glyph d="M675 0 448 690H340V668L560 0ZM121 0 340 668V690H233L5 0ZM538 194V288H138V194ZM280 740 341 828 401 740H525L394 875H288L157 740Z" glyph-name="Acircumflex" horiz-adv-x="681" unicode="&#194;" /><glyph d="M675 0 448 690H340V668L560 0ZM121 0 340 668V690H233L5 0ZM538 194V288H138V194ZM187 753H303V864H187ZM378 753H494V864H378Z" glyph-name="Adieresis" horiz-adv-x="681" unicode="&#196;" /><glyph d="M675 0 448 690H340V668L560 0ZM121 0 340 668V690H233L5 0ZM538 194V288H138V194ZM398 740 294 875H147L299 740Z" glyph-name="Agrave" horiz-adv-x="681" unicode="&#192;" /><glyph d="M675 0 448 690H340V668L560 0ZM121 0 340 668V690H233L5 0ZM538 194V288H138V194ZM185 765H496V851H185Z" glyph-name="Amacron" horiz-adv-x="681" unicode="&#256;" /><glyph d="M675 0 448 690H340V668L560 0ZM121 0 340 668V690H233L5 0ZM538 194V288H138V194ZM560 0C517 -16 487 -48 487 -90C487 -152 546 -170 628 -170H672V-96H654C610 -96 590 -94 590 -68C590 -36 632 -17 675 0Z" glyph-name="Aogonek" horiz-adv-x="681" unicode="&#260;" /><glyph d="M675 0 448 690H340V668L560 0ZM121 0 340 668V690H233L5 0ZM538 194V288H138V194ZM340 715C384 715 422 750 422 797C422 845 384 879 340 879C294 879 258 845 258 797C258 750 294 715 340 715ZM340 771C326 771 314 781 314 797C314 813 326 823 340 823C354 823 366 813 366 797C366 781 354 771 340 771Z" glyph-name="Aring" horiz-adv-x="681" unicode="&#197;" /><glyph d="M675 0 448 690H340V668L560 0ZM121 0 340 668V690H233L5 0ZM538 194V288H138V194ZM494 777V860C464 834 436 824 407 824C360 824 332 875 275 875C246 875 218 863 188 839V756C218 782 246 792 275 792C322 792 350 741 407 741C436 741 464 753 494 777Z" glyph-name="Atilde" horiz-adv-x="681" unicode="&#195;" /><glyph d="M337 0C507 0 594 73 594 198C594 289 539 348 427 357H106V311H330C430 311 476 271 476 202C476 134 439 93 339 93H106V0ZM197 0V690H84V0ZM427 357V360C498 374 561 422 561 504C561 628 480 690 307 690H106V597H316C409 597 443 564 443 501C443 439 402 404 309 404H106V357Z" glyph-name="B" horiz-adv-x="636" unicode="B" /><glyph d="M681 250H564C547 144 476 83 378 83C248 83 163 184 163 345C163 504 245 607 371 607C473 607 540 547 559 439H676C653 597 526 700 367 700C176 700 44 542 44 345C44 142 179 -10 370 -10C529 -10 657 92 681 250Z" glyph-name="C" horiz-adv-x="714" unicode="C" /><glyph glyph-name="CR" horiz-adv-x="233" unicode="" /><glyph d="M681 250H564C547 144 476 83 378 83C248 83 163 184 163 345C163 504 245 607 371 607C473 607 540 547 559 439H676C653 597 526 700 367 700C176 700 44 542 44 345C44 142 179 -10 370 -10C529 -10 657 92 681 250ZM389 740 541 875H393L289 740Z" glyph-name="Cacute" horiz-adv-x="714" unicode="&#262;" /><glyph d="M681 250H564C547 144 476 83 378 83C248 83 163 184 163 345C163 504 245 607 371 607C473 607 540 547 559 439H676C653 597 526 700 367 700C176 700 44 542 44 345C44 142 179 -10 370 -10C529 -10 657 92 681 250ZM420 740 551 875H427L367 788L306 875H183L314 740Z" glyph-name="Ccaron" horiz-adv-x="714" unicode="&#268;" /><glyph d="M681 250H564C547 144 476 83 378 83C248 83 163 184 163 345C163 504 245 607 371 607C473 607 540 547 559 439H676C653 597 526 700 367 700C176 700 44 542 44 345C44 142 179 -10 370 -10C529 -10 657 92 681 250ZM378 -174C419 -174 440 -148 440 -117C440 -88 419 -61 378 -61H357L394 10H340L283 -105H367C387 -105 396 -108 396 -117C396 -127 387 -130 367 -130H283V-174Z" glyph-name="Ccedilla" horiz-adv-x="714" unicode="&#199;" /><glyph d="M681 250H564C547 144 476 83 378 83C248 83 163 184 163 345C163 504 245 607 371 607C473 607 540 547 559 439H676C653 597 526 700 367 700C176 700 44 542 44 345C44 142 179 -10 370 -10C529 -10 657 92 681 250ZM306 740 367 828 427 740H551L420 875H314L183 740Z" glyph-name="Ccircumflex" horiz-adv-x="714" unicode="&#264;" /><glyph d="M681 250H564C547 144 476 83 378 83C248 83 163 184 163 345C163 504 245 607 371 607C473 607 540 547 559 439H676C653 597 526 700 367 700C176 700 44 542 44 345C44 142 179 -10 370 -10C529 -10 657 92 681 250ZM424 753V864H308V753Z" glyph-name="Cdotaccent" horiz-adv-x="714" unicode="&#266;" /><glyph d="M291 0C512 0 651 132 651 345C651 559 514 690 293 690H84V597H291C446 597 533 503 533 345C533 188 446 93 291 93H84V0ZM197 0V690H84V0Z" glyph-name="D" horiz-adv-x="695" unicode="D" /><glyph d="M291 0C512 0 651 132 651 345C651 559 514 690 293 690H84V597H291C446 597 533 503 533 345C533 188 446 93 291 93H84V0ZM197 0V690H84V0ZM375 740 506 875H382L322 788L261 875H138L269 740Z" glyph-name="Dcaron" horiz-adv-x="695" unicode="&#270;" /><glyph d="M301 0C522 0 661 132 661 345C661 559 524 690 303 690H94V0ZM371 300V393H16V300ZM207 597H301C456 597 543 503 543 345C543 188 456 93 301 93H207Z" glyph-name="Dcroat" horiz-adv-x="705" unicode="&#272;" /><glyph d="M197 0V690H84V0ZM503 0V93H84V0ZM486 308V401H84V308ZM495 597V690H84V597Z" glyph-name="E" horiz-adv-x="556" unicode="E" /><glyph d="M197 0V690H84V0ZM503 0V93H84V0ZM486 308V401H84V308ZM495 597V690H84V597ZM306 740 458 875H310L206 740Z" glyph-name="Eacute" horiz-adv-x="556" unicode="&#201;" /><glyph d="M197 0V690H84V0ZM503 0V93H84V0ZM486 308V401H84V308ZM495 597V690H84V597ZM290 805C253 805 224 824 224 875H150C150 802 197 740 290 740C382 740 430 802 430 875H356C356 824 327 805 290 805Z" glyph-name="Ebreve" horiz-adv-x="556" unicode="&#276;" /><glyph d="M197 0V690H84V0ZM503 0V93H84V0ZM486 308V401H84V308ZM495 597V690H84V597ZM343 740 474 875H350L290 788L229 875H106L237 740Z" glyph-name="Ecaron" horiz-adv-x="556" unicode="&#282;" /><glyph d="M197 0V690H84V0ZM503 0V93H84V0ZM486 308V401H84V308ZM495 597V690H84V597ZM229 740 290 828 350 740H474L343 875H237L106 740Z" glyph-name="Ecircumflex" horiz-adv-x="556" unicode="&#202;" /><glyph d="M197 0V690H84V0ZM503 0V93H84V0ZM486 308V401H84V308ZM495 597V690H84V597ZM136 753H252V864H136ZM327 753H443V864H327Z" glyph-name="Edieresis" horiz-adv-x="556" unicode="&#203;" /><glyph d="M197 0V690H84V0ZM503 0V93H84V0ZM486 308V401H84V308ZM495 597V690H84V597ZM340 753V864H224V753Z" glyph-name="Edotaccent" horiz-adv-x="556" unicode="&#278;" /><glyph d="M197 0V690H84V0ZM503 0V93H84V0ZM486 308V401H84V308ZM495 597V690H84V597ZM369 740 265 875H118L270 740Z" glyph-name="Egrave" horiz-adv-x="556" unicode="&#200;" /><glyph d="M197 0V690H84V0ZM503 0V93H84V0ZM486 308V401H84V308ZM495 597V690H84V597ZM135 765H446V851H135Z" glyph-name="Emacron" horiz-adv-x="556" unicode="&#274;" /><glyph d="M553 0V22L308 690H197V668L442 0ZM197 0V690H84V0ZM666 0V690H553V0ZM496 -170C615 -170 666 -138 666 -6V520H553V9C553 -53 539 -77 474 -77H381V-170Z" glyph-name="Eng" horiz-adv-x="750" unicode="&#330;" /><glyph d="M197 0V690H84V0ZM503 0V93H84V0ZM486 308V401H84V308ZM495 597V690H84V597ZM388 0C345 -16 315 -48 315 -90C315 -152 374 -170 456 -170H500V-96H482C438 -96 418 -94 418 -68C418 -36 460 -17 503 0Z" glyph-name="Eogonek" horiz-adv-x="556" unicode="&#280;" /><glyph d="M301 0C522 0 661 132 661 345C661 559 524 690 303 690H94V0ZM371 300V393H16V300ZM207 597H301C456 597 543 503 543 345C543 188 456 93 301 93H207Z" glyph-name="Eth" horiz-adv-x="705" unicode="&#208;" /><glyph d="M197 0V690H84V0ZM522 301V394H84V301ZM528 597V690H84V597Z" glyph-name="F" horiz-adv-x="570" unicode="F" /><glyph d="M571 128H577V276H570V255C570 150 490 83 381 83C243 83 163 187 163 345C163 504 241 607 377 607C483 607 541 545 555 468H672C651 601 540 700 372 700C171 700 44 542 44 345C44 148 175 -10 367 -10C472 -10 544 54 571 128ZM679 0V367H337V276H573V0Z" glyph-name="G" horiz-adv-x="735" unicode="G" /><glyph d="M571 128H577V276H570V255C570 150 490 83 381 83C243 83 163 187 163 345C163 504 241 607 377 607C483 607 541 545 555 468H672C651 601 540 700 372 700C171 700 44 542 44 345C44 148 175 -10 367 -10C472 -10 544 54 571 128ZM679 0V367H337V276H573V0ZM372 805C335 805 306 824 306 875H232C232 802 279 740 372 740C464 740 512 802 512 875H438C438 824 409 805 372 805Z" glyph-name="Gbreve" horiz-adv-x="735" unicode="&#286;" /><glyph d="M571 128H577V276H570V255C570 150 490 83 381 83C243 83 163 187 163 345C163 504 241 607 377 607C483 607 541 545 555 468H672C651 601 540 700 372 700C171 700 44 542 44 345C44 148 175 -10 367 -10C472 -10 544 54 571 128ZM679 0V367H337V276H573V0ZM311 740 372 828 432 740H556L425 875H319L188 740Z" glyph-name="Gcircumflex" horiz-adv-x="735" unicode="&#284;" /><glyph d="M571 128H577V276H570V255C570 150 490 83 381 83C243 83 163 187 163 345C163 504 241 607 377 607C483 607 541 545 555 468H672C651 601 540 700 372 700C171 700 44 542 44 345C44 148 175 -10 367 -10C472 -10 544 54 571 128ZM679 0V367H337V276H573V0ZM357 -252 428 -162V-50H312V-162H355L284 -252Z" glyph-name="Gcommaaccent" horiz-adv-x="735" unicode="&#290;" /><glyph d="M571 128H577V276H570V255C570 150 490 83 381 83C243 83 163 187 163 345C163 504 241 607 377 607C483 607 541 545 555 468H672C651 601 540 700 372 700C171 700 44 542 44 345C44 148 175 -10 367 -10C472 -10 544 54 571 128ZM679 0V367H337V276H573V0ZM429 753V864H313V753Z" glyph-name="Gdotaccent" horiz-adv-x="735" unicode="&#288;" /><glyph d="M606 0V690H493V0ZM197 0V690H84V0ZM606 305V398H84V305Z" glyph-name="H" horiz-adv-x="690" unicode="H" /><glyph d="M684 491V584H22V491ZM614 0V690H501V0ZM205 0V690H92V0ZM614 305V398H92V305Z" glyph-name="Hbar" horiz-adv-x="706" unicode="&#294;" /><glyph d="M606 0V690H493V0ZM197 0V690H84V0ZM606 305V398H84V305ZM285 740 346 828 406 740H530L399 875H293L162 740Z" glyph-name="Hcircumflex" horiz-adv-x="690" unicode="&#292;" /><glyph d="M197 0V690H84V0Z" glyph-name="I" horiz-adv-x="281" unicode="I" /><glyph d="M197 0V690H84V0ZM192 740 344 875H196L92 740Z" glyph-name="Iacute" horiz-adv-x="281" unicode="&#205;" /><glyph d="M197 0V690H84V0ZM141 805C104 805 75 824 75 875H1C1 802 48 740 141 740C233 740 281 802 281 875H207C207 824 178 805 141 805Z" glyph-name="Ibreve" horiz-adv-x="281" unicode="&#300;" /><glyph d="M197 0V690H84V0ZM80 740 141 828 201 740H325L194 875H88L-43 740Z" glyph-name="Icircumflex" horiz-adv-x="281" unicode="&#206;" /><glyph d="M197 0V690H84V0ZM-13 753H103V864H-13ZM178 753H294V864H178Z" glyph-name="Idieresis" horiz-adv-x="281" unicode="&#207;" /><glyph d="M197 0V690H84V0ZM199 753V864H83V753Z" glyph-name="Idotaccent" horiz-adv-x="281" unicode="&#304;" /><glyph d="M197 0V690H84V0ZM189 740 85 875H-62L90 740Z" glyph-name="Igrave" horiz-adv-x="281" unicode="&#204;" /><glyph d="M197 0V690H84V0ZM-15 765H296V851H-15Z" glyph-name="Imacron" horiz-adv-x="281" unicode="&#298;" /><glyph d="M197 -170V-96H178C134 -96 112 -94 112 -68C112 -36 154 -17 197 0H84C41 -16 11 -48 11 -90C11 -152 70 -170 153 -170ZM197 0V690H84V0Z" glyph-name="Iogonek" horiz-adv-x="281" unicode="&#302;" /><glyph d="M197 0V690H84V0ZM294 777V860C264 834 236 824 207 824C160 824 132 875 75 875C46 875 18 863 -12 839V756C18 782 46 792 75 792C122 792 150 741 207 741C236 741 264 753 294 777Z" glyph-name="Itilde" horiz-adv-x="281" unicode="&#296;" /><glyph d="M128 0C247 0 298 32 298 164V690H185V179C185 117 171 93 106 93H13V0Z" glyph-name="J" horiz-adv-x="378" unicode="J" /><glyph d="M128 0C247 0 298 32 298 164V690H185V179C185 117 171 93 106 93H13V0ZM181 740 242 828 302 740H426L295 875H189L58 740Z" glyph-name="Jcircumflex" horiz-adv-x="378" unicode="&#308;" /><glyph d="M656 0 329 360 626 690H481L184 360L511 0ZM197 0V690H84V0Z" glyph-name="K" horiz-adv-x="647" unicode="K" /><glyph d="M197 0V350L498 0H645L324 374H197V690H84V0ZM413 362 641 690H516L288 362Z" glyph-name="K.ss06" horiz-adv-x="645" /><glyph d="M656 0 329 360 626 690H481L184 360L511 0ZM197 0V690H84V0ZM334 -252 405 -162V-50H289V-162H332L261 -252Z" glyph-name="Kcommaaccent" horiz-adv-x="647" unicode="&#310;" /><glyph d="M197 0V350L498 0H645L324 374H197V690H84V0ZM413 362 641 690H516L288 362ZM322 -252 393 -162V-50H277V-162H320L249 -252Z" glyph-name="Kcommaaccent.ss06" horiz-adv-x="645" /><glyph d="M197 0V690H84V0ZM497 0V93H84V0Z" glyph-name="L" horiz-adv-x="509" unicode="L" /><glyph d="M197 0V690H84V0ZM497 0V93H84V0ZM192 740 344 875H196L92 740Z" glyph-name="Lacute" horiz-adv-x="509" unicode="&#313;" /><glyph d="M197 0V690H84V0ZM497 0V93H84V0ZM351 526 454 690H329L266 526Z" glyph-name="Lcaron" horiz-adv-x="511" unicode="&#317;" /><glyph d="M197 0V690H84V0ZM497 0V93H84V0ZM275 -252 346 -162V-50H230V-162H273L202 -252Z" glyph-name="Lcommaaccent" horiz-adv-x="509" unicode="&#315;" /><glyph d="M197 0V690H84V0ZM497 0V93H84V0ZM455 298V409H339V298Z" glyph-name="Ldot" horiz-adv-x="512" unicode="&#319;" /><glyph d="M346 402V504L27 317V215ZM205 0V690H92V0ZM505 0V93H92V0Z" glyph-name="Lslash" horiz-adv-x="517" unicode="&#321;" /><glyph d="M577 0 739 668V690H631L468 22V0ZM197 0V690H84V0ZM468 0V22L305 690H197V668L359 0ZM852 0V690H739V0Z" glyph-name="M" horiz-adv-x="936" unicode="M" /><glyph d="M553 0V22L308 690H197V668L442 0ZM197 0V690H84V0ZM666 0V690H553V0Z" glyph-name="N" horiz-adv-x="750" unicode="N" /><glyph d="M553 0V22L308 690H197V668L442 0ZM197 0V690H84V0ZM666 0V690H553V0ZM387 740 539 875H391L287 740Z" glyph-name="Nacute" horiz-adv-x="750" unicode="&#323;" /><glyph d="M553 0V22L308 690H197V668L442 0ZM197 0V690H84V0ZM666 0V690H553V0ZM429 740 560 875H436L376 788L315 875H192L323 740Z" glyph-name="Ncaron" horiz-adv-x="750" unicode="&#327;" /><glyph d="M553 0V22L308 690H197V668L442 0ZM197 0V690H84V0ZM666 0V690H553V0ZM368 -252 439 -162V-50H323V-162H366L295 -252Z" glyph-name="Ncommaaccent" horiz-adv-x="750" unicode="&#325;" /><glyph d="M553 0V22L308 690H197V668L442 0ZM197 0V690H84V0ZM666 0V690H553V0ZM529 777V860C499 834 471 824 442 824C395 824 367 875 310 875C281 875 253 863 223 839V756C253 782 281 792 310 792C357 792 385 741 442 741C471 741 499 753 529 777Z" glyph-name="Ntilde" horiz-adv-x="750" unicode="&#209;" /><glyph d="M697 345C697 542 564 700 370 700C176 700 43 542 43 345C43 148 176 -10 370 -10C564 -10 697 148 697 345ZM162 345C162 504 248 607 370 607C493 607 579 504 579 345C579 187 493 83 370 83C248 83 162 187 162 345Z" glyph-name="O" horiz-adv-x="740" unicode="O" /><glyph d="M697 345C697 542 564 700 370 700C176 700 43 542 43 345C43 148 176 -10 370 -10C564 -10 697 148 697 345ZM162 345C162 504 248 607 370 607C493 607 579 504 579 345C579 187 493 83 370 83C248 83 162 187 162 345ZM696 0V690H583V0ZM1002 0V93H583V0ZM985 308V401H583V308ZM994 597V690H583V597Z" glyph-name="OE" horiz-adv-x="1055" unicode="&#338;" /><glyph d="M697 345C697 542 564 700 370 700C176 700 43 542 43 345C43 148 176 -10 370 -10C564 -10 697 148 697 345ZM162 345C162 504 248 607 370 607C493 607 579 504 579 345C579 187 493 83 370 83C248 83 162 187 162 345ZM388 740 540 875H392L288 740Z" glyph-name="Oacute" horiz-adv-x="740" unicode="&#211;" /><glyph d="M697 345C697 542 564 700 370 700C176 700 43 542 43 345C43 148 176 -10 370 -10C564 -10 697 148 697 345ZM162 345C162 504 248 607 370 607C493 607 579 504 579 345C579 187 493 83 370 83C248 83 162 187 162 345ZM371 805C334 805 305 824 305 875H231C231 802 278 740 371 740C463 740 511 802 511 875H437C437 824 408 805 371 805Z" glyph-name="Obreve" horiz-adv-x="740" unicode="&#334;" /><glyph d="M310 740 371 828 431 740H555L424 875H318L187 740ZM697 345C697 542 564 700 370 700C176 700 43 542 43 345C43 148 176 -10 370 -10C564 -10 697 148 697 345ZM162 345C162 504 248 607 370 607C493 607 579 504 579 345C579 187 493 83 370 83C248 83 162 187 162 345Z" glyph-name="Ocircumflex" horiz-adv-x="740" unicode="&#212;" /><glyph d="M217 753H333V864H217ZM408 753H524V864H408ZM697 345C697 542 564 700 370 700C176 700 43 542 43 345C43 148 176 -10 370 -10C564 -10 697 148 697 345ZM162 345C162 504 248 607 370 607C493 607 579 504 579 345C579 187 493 83 370 83C248 83 162 187 162 345Z" glyph-name="Odieresis" horiz-adv-x="740" unicode="&#214;" /><glyph d="M697 345C697 542 564 700 370 700C176 700 43 542 43 345C43 148 176 -10 370 -10C564 -10 697 148 697 345ZM162 345C162 504 248 607 370 607C493 607 579 504 579 345C579 187 493 83 370 83C248 83 162 187 162 345ZM429 -155V-44H313V-155Z" glyph-name="Odotaccent" horiz-adv-x="740" unicode="&#558;" /><glyph d="M697 345C697 542 564 700 370 700C176 700 43 542 43 345C43 148 176 -10 370 -10C564 -10 697 148 697 345ZM162 345C162 504 248 607 370 607C493 607 579 504 579 345C579 187 493 83 370 83C248 83 162 187 162 345ZM438 741 334 876H187L339 741Z" glyph-name="Ograve" horiz-adv-x="740" unicode="&#210;" /><glyph d="M697 345C697 542 564 700 370 700C176 700 43 542 43 345C43 148 176 -10 370 -10C564 -10 697 148 697 345ZM162 345C162 504 248 607 370 607C493 607 579 504 579 345C579 187 493 83 370 83C248 83 162 187 162 345ZM309 740 454 875H306L209 740ZM495 740 640 875H493L396 740Z" glyph-name="Ohungarumlaut" horiz-adv-x="740" unicode="&#336;" /><glyph d="M697 345C697 542 564 700 370 700C176 700 43 542 43 345C43 148 176 -10 370 -10C564 -10 697 148 697 345ZM162 345C162 504 248 607 370 607C493 607 579 504 579 345C579 187 493 83 370 83C248 83 162 187 162 345ZM215 765H526V851H215Z" glyph-name="Omacron" horiz-adv-x="740" unicode="&#332;" /><glyph d="M5 0H138L759 690H627ZM709 345C709 542 576 700 382 700C188 700 55 542 55 345C55 148 188 -10 382 -10C576 -10 709 148 709 345ZM174 345C174 504 260 607 382 607C505 607 591 504 591 345C591 187 505 83 382 83C260 83 174 187 174 345Z" glyph-name="Oslash" horiz-adv-x="762" unicode="&#216;" /><glyph d="M697 345C697 542 564 700 370 700C176 700 43 542 43 345C43 148 176 -10 370 -10C564 -10 697 148 697 345ZM162 345C162 504 248 607 370 607C493 607 579 504 579 345C579 187 493 83 370 83C248 83 162 187 162 345ZM524 777V860C494 834 466 824 437 824C390 824 362 875 305 875C276 875 248 863 218 839V756C248 782 276 792 305 792C352 792 380 741 437 741C466 741 494 753 524 777Z" glyph-name="Otilde" horiz-adv-x="740" unicode="&#213;" /><glyph d="M320 267C493 267 601 345 601 479C601 612 493 690 320 690H84V597H331C428 597 483 555 483 479C483 403 428 360 331 360H84V267ZM197 0V690H84V0Z" glyph-name="P" horiz-adv-x="625" unicode="P" /><glyph d="M758 0 447 250H287L597 0ZM697 345C697 542 564 700 370 700C176 700 43 542 43 345C43 148 176 -10 370 -10C564 -10 697 148 697 345ZM162 345C162 504 248 607 370 607C493 607 579 504 579 345C579 187 493 83 370 83C248 83 162 187 162 345Z" glyph-name="Q" horiz-adv-x="740" unicode="Q" /><glyph d="M303 280C476 280 580 355 580 485C580 616 476 690 303 690H84V597H313C410 597 462 558 462 485C462 412 410 373 313 373H84V280ZM197 0V690H84V0ZM591 0 428 307H304L467 0Z" glyph-name="R" horiz-adv-x="630" unicode="R" /><glyph d="M303 280C476 280 580 355 580 485C580 616 476 690 303 690H84V597H313C410 597 462 558 462 485C462 412 410 373 313 373H84V280ZM197 0V690H84V0ZM591 0 428 307H304L467 0ZM318 740 470 875H322L218 740Z" glyph-name="Racute" horiz-adv-x="630" unicode="&#340;" /><glyph d="M303 280C476 280 580 355 580 485C580 616 476 690 303 690H84V597H313C410 597 462 558 462 485C462 412 410 373 313 373H84V280ZM197 0V690H84V0ZM591 0 428 307H304L467 0ZM348 740 479 875H355L295 788L234 875H111L242 740Z" glyph-name="Rcaron" horiz-adv-x="630" unicode="&#344;" /><glyph d="M303 280C476 280 580 355 580 485C580 616 476 690 303 690H84V597H313C410 597 462 558 462 485C462 412 410 373 313 373H84V280ZM197 0V690H84V0ZM591 0 428 307H304L467 0ZM313 -252 384 -162V-50H268V-162H311L240 -252Z" glyph-name="Rcommaaccent" horiz-adv-x="630" unicode="&#342;" /><glyph d="M603 190C603 299 538 367 408 397L308 421C206 445 171 467 171 514C171 573 228 607 307 607C388 607 457 567 466 485H583C571 604 481 700 305 700C166 700 52 622 52 506C52 410 119 347 254 315L354 292C443 271 485 241 485 185C485 121 420 83 332 83C235 83 162 153 155 243H38C49 118 148 -10 331 -10C491 -10 603 75 603 190Z" glyph-name="S" horiz-adv-x="641" unicode="S" /><glyph d="M603 190C603 299 538 367 408 397L308 421C206 445 171 467 171 514C171 573 228 607 307 607C388 607 457 567 466 485H583C571 604 481 700 305 700C166 700 52 622 52 506C52 410 119 347 254 315L354 292C443 271 485 241 485 185C485 121 420 83 332 83C235 83 162 153 155 243H38C49 118 148 -10 331 -10C491 -10 603 75 603 190ZM326 740 478 875H330L226 740Z" glyph-name="Sacute" horiz-adv-x="641" unicode="&#346;" /><glyph d="M603 190C603 299 538 367 408 397L308 421C206 445 171 467 171 514C171 573 228 607 307 607C388 607 457 567 466 485H583C571 604 481 700 305 700C166 700 52 622 52 506C52 410 119 347 254 315L354 292C443 271 485 241 485 185C485 121 420 83 332 83C235 83 162 153 155 243H38C49 118 148 -10 331 -10C491 -10 603 75 603 190ZM359 740 490 875H366L306 788L245 875H122L253 740Z" glyph-name="Scaron" horiz-adv-x="641" unicode="&#352;" /><glyph d="M603 190C603 299 538 367 408 397L308 421C206 445 171 467 171 514C171 573 228 607 307 607C388 607 457 567 466 485H583C571 604 481 700 305 700C166 700 52 622 52 506C52 410 119 347 254 315L354 292C443 271 485 241 485 185C485 121 420 83 332 83C235 83 162 153 155 243H38C49 118 148 -10 331 -10C491 -10 603 75 603 190ZM348 -174C389 -174 410 -148 410 -117C410 -88 389 -61 348 -61H327L364 10H310L253 -105H337C357 -105 366 -108 366 -117C366 -127 357 -130 337 -130H253V-174Z" glyph-name="Scedilla" horiz-adv-x="641" unicode="&#350;" /><glyph d="M603 190C603 299 538 367 408 397L308 421C206 445 171 467 171 514C171 573 228 607 307 607C388 607 457 567 466 485H583C571 604 481 700 305 700C166 700 52 622 52 506C52 410 119 347 254 315L354 292C443 271 485 241 485 185C485 121 420 83 332 83C235 83 162 153 155 243H38C49 118 148 -10 331 -10C491 -10 603 75 603 190ZM245 740 306 828 366 740H490L359 875H253L122 740Z" glyph-name="Scircumflex" horiz-adv-x="641" unicode="&#348;" /><glyph d="M603 190C603 299 538 367 408 397L308 421C206 445 171 467 171 514C171 573 228 607 307 607C388 607 457 567 466 485H583C571 604 481 700 305 700C166 700 52 622 52 506C52 410 119 347 254 315L354 292C443 271 485 241 485 185C485 121 420 83 332 83C235 83 162 153 155 243H38C49 118 148 -10 331 -10C491 -10 603 75 603 190ZM319 -252 390 -162V-50H274V-162H317L246 -252Z" glyph-name="Scommaaccent" horiz-adv-x="641" unicode="&#536;" /><glyph d="M348 0V690H235V0ZM571 597V690H11V597Z" glyph-name="T" horiz-adv-x="582" unicode="T" /><glyph d="M88 320H518V413H88ZM360 0V690H247V0ZM583 597V690H23V597Z" glyph-name="Tbar" horiz-adv-x="606" unicode="&#358;" /><glyph d="M348 0V690H235V0ZM571 597V690H11V597ZM345 740 476 875H352L292 788L231 875H108L239 740Z" glyph-name="Tcaron" horiz-adv-x="582" unicode="&#356;" /><glyph d="M348 0V690H235V0ZM571 597V690H11V597ZM278 -252 349 -162V-50H233V-162H276L205 -252Z" glyph-name="Tcedilla" horiz-adv-x="582" unicode="&#354;" /><glyph d="M348 0V690H235V0ZM571 597V690H11V597ZM278 -252 349 -162V-50H233V-162H276L205 -252Z" glyph-name="Tcommaaccent" horiz-adv-x="582" unicode="&#538;" /><glyph d="M197 0V144H320C493 144 601 223 601 356C601 490 493 568 320 568H197V690H84V0ZM197 475H331C428 475 483 432 483 356C483 280 428 237 331 237H197Z" glyph-name="Thorn" horiz-adv-x="637" unicode="&#222;" /><glyph d="M610 274V690H497V261C497 141 440 83 344 83C248 83 190 141 190 261V690H77V274C77 83 177 -10 344 -10C510 -10 610 83 610 274Z" glyph-name="U" horiz-adv-x="687" unicode="U" /><glyph d="M610 274V690H497V261C497 141 440 83 344 83C248 83 190 141 190 261V690H77V274C77 83 177 -10 344 -10C510 -10 610 83 610 274ZM367 740 519 875H371L267 740Z" glyph-name="Uacute" horiz-adv-x="687" unicode="&#218;" /><glyph d="M610 274V690H497V261C497 141 440 83 344 83C248 83 190 141 190 261V690H77V274C77 83 177 -10 344 -10C510 -10 610 83 610 274ZM344 805C307 805 278 824 278 875H204C204 802 251 740 344 740C436 740 484 802 484 875H410C410 824 381 805 344 805Z" glyph-name="Ubreve" horiz-adv-x="687" unicode="&#364;" /><glyph d="M283 740 344 828 404 740H528L397 875H291L160 740ZM610 274V690H497V261C497 141 440 83 344 83C248 83 190 141 190 261V690H77V274C77 83 177 -10 344 -10C510 -10 610 83 610 274Z" glyph-name="Ucircumflex" horiz-adv-x="687" unicode="&#219;" /><glyph d="M191 753H307V864H191ZM382 753H498V864H382ZM610 274V690H497V261C497 141 440 83 344 83C248 83 190 141 190 261V690H77V274C77 83 177 -10 344 -10C510 -10 610 83 610 274Z" glyph-name="Udieresis" horiz-adv-x="687" unicode="&#220;" /><glyph d="M610 274V690H497V261C497 141 440 83 344 83C248 83 190 141 190 261V690H77V274C77 83 177 -10 344 -10C510 -10 610 83 610 274ZM402 -161V-50H286V-161Z" glyph-name="Udotaccent" horiz-adv-x="687" unicode="&#7908;" /><glyph d="M610 274V690H497V261C497 141 440 83 344 83C248 83 190 141 190 261V690H77V274C77 83 177 -10 344 -10C510 -10 610 83 610 274ZM418 740 314 875H167L319 740Z" glyph-name="Ugrave" horiz-adv-x="687" unicode="&#217;" /><glyph d="M610 274V690H497V261C497 141 440 83 344 83C248 83 190 141 190 261V690H77V274C77 83 177 -10 344 -10C510 -10 610 83 610 274ZM279 740 424 875H276L179 740ZM465 740 610 875H463L366 740Z" glyph-name="Uhungarumlaut" horiz-adv-x="687" unicode="&#368;" /><glyph d="M610 274V690H497V261C497 141 440 83 344 83C248 83 190 141 190 261V690H77V274C77 83 177 -10 344 -10C510 -10 610 83 610 274ZM188 765H499V851H188Z" glyph-name="Umacron" horiz-adv-x="687" unicode="&#362;" /><glyph d="M610 274V690H497V261C497 141 440 83 344 83C248 83 190 141 190 261V690H77V274C77 83 177 -10 344 -10C510 -10 610 83 610 274ZM316 0C273 -16 243 -48 243 -90C243 -152 302 -170 384 -170H428V-96H410C366 -96 346 -94 346 -68C346 -36 388 -17 431 0Z" glyph-name="Uogonek" horiz-adv-x="687" unicode="&#370;" /><glyph d="M610 274V690H497V261C497 141 440 83 344 83C248 83 190 141 190 261V690H77V274C77 83 177 -10 344 -10C510 -10 610 83 610 274ZM344 715C388 715 426 750 426 797C426 845 388 879 344 879C298 879 262 845 262 797C262 750 298 715 344 715ZM344 771C330 771 318 781 318 797C318 813 330 823 344 823C358 823 370 813 370 797C370 781 358 771 344 771Z" glyph-name="Uring" horiz-adv-x="687" unicode="&#366;" /><glyph d="M610 274V690H497V261C497 141 440 83 344 83C248 83 190 141 190 261V690H77V274C77 83 177 -10 344 -10C510 -10 610 83 610 274ZM497 777V860C467 834 439 824 410 824C363 824 335 875 278 875C249 875 221 863 191 839V756C221 782 249 792 278 792C325 792 353 741 410 741C439 741 467 753 497 777Z" glyph-name="Utilde" horiz-adv-x="687" unicode="&#360;" /><glyph d="M448 0 675 690H560L340 22V0ZM340 0V22L121 690H5L233 0Z" glyph-name="V" horiz-adv-x="680" unicode="V" /><glyph d="M839 0 982 690H871L731 22V0ZM280 0V22L141 690H29L173 0ZM387 0 506 668V690H399L280 22V0ZM731 0V22L612 690H506V668L625 0Z" glyph-name="W" horiz-adv-x="1011" unicode="W" /><glyph d="M839 0 982 690H871L731 22V0ZM280 0V22L141 690H29L173 0ZM387 0 506 668V690H399L280 22V0ZM731 0V22L612 690H506V668L625 0ZM533 740 685 875H537L433 740Z" glyph-name="Wacute" horiz-adv-x="1011" unicode="&#7810;" /><glyph d="M839 0 982 690H871L731 22V0ZM280 0V22L141 690H29L173 0ZM387 0 506 668V690H399L280 22V0ZM731 0V22L612 690H506V668L625 0ZM445 740 506 828 566 740H690L559 875H453L322 740Z" glyph-name="Wcircumflex" horiz-adv-x="1011" unicode="&#372;" /><glyph d="M839 0 982 690H871L731 22V0ZM280 0V22L141 690H29L173 0ZM387 0 506 668V690H399L280 22V0ZM731 0V22L612 690H506V668L625 0ZM352 753H468V864H352ZM543 753H659V864H543Z" glyph-name="Wdieresis" horiz-adv-x="1011" unicode="&#7812;" /><glyph d="M839 0 982 690H871L731 22V0ZM280 0V22L141 690H29L173 0ZM387 0 506 668V690H399L280 22V0ZM731 0V22L612 690H506V668L625 0ZM565 740 461 875H314L466 740Z" glyph-name="Wgrave" horiz-adv-x="1011" unicode="&#7808;" /><glyph d="M648 0 358 419 276 348 517 0ZM128 0 368 348 287 419 -4 0ZM360 400 159 690H27L269 342ZM617 690H486L285 400L376 342Z" glyph-name="X" horiz-adv-x="644" unicode="X" /><glyph d="M160 690H28L224 360L3 0H135L356 360ZM533 690 337 360 558 0H690L469 360L665 690Z" glyph-name="X.ss07" horiz-adv-x="693" /><glyph d="M630 690H502L276 353L372 304ZM374 0V352H261V0ZM358 353 132 690H4L262 304Z" glyph-name="Y" horiz-adv-x="634" unicode="Y" /><glyph d="M338 740 490 875H342L238 740ZM630 690H502L276 353L372 304ZM374 0V352H261V0ZM358 353 132 690H4L262 304Z" glyph-name="Yacute" horiz-adv-x="634" unicode="&#221;" /><glyph d="M630 690H502L276 353L372 304ZM374 0V352H261V0ZM358 353 132 690H4L262 304ZM256 740 317 828 377 740H501L370 875H264L133 740Z" glyph-name="Ycircumflex" horiz-adv-x="634" unicode="&#374;" /><glyph d="M630 690H502L276 353L372 304ZM374 0V352H261V0ZM358 353 132 690H4L262 304ZM163 753H279V864H163ZM354 753H470V864H354Z" glyph-name="Ydieresis" horiz-adv-x="634" unicode="&#376;" /><glyph d="M630 690H502L276 353L372 304ZM374 0V352H261V0ZM358 353 132 690H4L262 304ZM384 740 280 875H133L285 740Z" glyph-name="Ygrave" horiz-adv-x="634" unicode="&#7922;" /><glyph d="M630 690H502L276 353L372 304ZM374 0V352H261V0ZM358 353 132 690H4L262 304ZM162 765H473V851H162Z" glyph-name="Ymacron" horiz-adv-x="634" unicode="&#562;" /><glyph d="M175 93 527 597H389L37 93ZM537 0V93H37V0ZM527 597V690H46V597Z" glyph-name="Z" horiz-adv-x="574" unicode="Z" /><glyph d="M175 93 527 597H389L37 93ZM537 0V93H37V0ZM527 597V690H46V597ZM296 740 448 875H300L196 740Z" glyph-name="Zacute" horiz-adv-x="574" unicode="&#377;" /><glyph d="M175 93 527 597H389L37 93ZM537 0V93H37V0ZM527 597V690H46V597ZM340 740 471 875H347L287 788L226 875H103L234 740Z" glyph-name="Zcaron" horiz-adv-x="574" unicode="&#381;" /><glyph d="M175 93 527 597H389L37 93ZM537 0V93H37V0ZM527 597V690H46V597ZM345 753V864H229V753Z" glyph-name="Zdotaccent" horiz-adv-x="574" unicode="&#379;" /><glyph d="M364 98H367V0H472V307C472 442 391 510 264 510C135 510 57 439 53 342H162C165 398 201 429 262 429C325 429 363 394 363 327V312L236 299C125 287 35 249 35 146C35 55 108 -10 212 -10C287 -10 343 29 364 98ZM150 145C150 193 188 217 254 224L363 236V219C363 124 318 71 240 71C192 71 150 98 150 145Z" glyph-name="a" horiz-adv-x="534" unicode="a" /><glyph d="M408 105H411V0H518V500H411V396H408C384 465 326 510 250 510C117 510 40 390 40 250C40 110 114 -10 250 -10C326 -10 384 36 408 105ZM155 250C155 357 203 429 284 429C365 429 415 357 415 250C415 144 365 71 284 71C204 71 155 144 155 250Z" glyph-name="a.ss02" horiz-adv-x="585" /><glyph d="M364 98H367V0H472V307C472 442 391 510 264 510C135 510 57 439 53 342H162C165 398 201 429 262 429C325 429 363 394 363 327V312L236 299C125 287 35 249 35 146C35 55 108 -10 212 -10C287 -10 343 29 364 98ZM150 145C150 193 188 217 254 224L363 236V219C363 124 318 71 240 71C192 71 150 98 150 145ZM278 555 430 690H282L178 555Z" glyph-name="aacute" horiz-adv-x="534" unicode="&#225;" /><glyph d="M408 105H411V0H518V500H411V396H408C384 465 326 510 250 510C117 510 40 390 40 250C40 110 114 -10 250 -10C326 -10 384 36 408 105ZM155 250C155 357 203 429 284 429C365 429 415 357 415 250C415 144 365 71 284 71C204 71 155 144 155 250ZM313 555 465 690H317L213 555Z" glyph-name="aacute.ss02" horiz-adv-x="585" /><glyph d="M364 98H367V0H472V307C472 442 391 510 264 510C135 510 57 439 53 342H162C165 398 201 429 262 429C325 429 363 394 363 327V312L236 299C125 287 35 249 35 146C35 55 108 -10 212 -10C287 -10 343 29 364 98ZM150 145C150 193 188 217 254 224L363 236V219C363 124 318 71 240 71C192 71 150 98 150 145ZM264 620C227 620 198 639 198 690H124C124 617 171 555 264 555C356 555 404 617 404 690H330C330 639 301 620 264 620Z" glyph-name="abreve" horiz-adv-x="534" unicode="&#259;" /><glyph d="M408 105H411V0H518V500H411V396H408C384 465 326 510 250 510C117 510 40 390 40 250C40 110 114 -10 250 -10C326 -10 384 36 408 105ZM155 250C155 357 203 429 284 429C365 429 415 357 415 250C415 144 365 71 284 71C204 71 155 144 155 250ZM276 620C239 620 210 639 210 690H136C136 617 183 555 276 555C368 555 416 617 416 690H342C342 639 313 620 276 620Z" glyph-name="abreve.ss02" horiz-adv-x="585" /><glyph d="M364 98H367V0H472V307C472 442 391 510 264 510C135 510 57 439 53 342H162C165 398 201 429 262 429C325 429 363 394 363 327V312L236 299C125 287 35 249 35 146C35 55 108 -10 212 -10C287 -10 343 29 364 98ZM150 145C150 193 188 217 254 224L363 236V219C363 124 318 71 240 71C192 71 150 98 150 145ZM203 555 264 643 324 555H448L317 690H211L80 555Z" glyph-name="acircumflex" horiz-adv-x="534" unicode="&#226;" /><glyph d="M408 105H411V0H518V500H411V396H408C384 465 326 510 250 510C117 510 40 390 40 250C40 110 114 -10 250 -10C326 -10 384 36 408 105ZM155 250C155 357 203 429 284 429C365 429 415 357 415 250C415 144 365 71 284 71C204 71 155 144 155 250ZM225 555 286 643 346 555H470L339 690H233L102 555Z" glyph-name="acircumflex.ss02" horiz-adv-x="585" /><glyph d="M120 555 272 690H124L20 555Z" glyph-name="acute" horiz-adv-x="294" unicode="&#180;" /><glyph d="M120 740 272 875H124L20 740Z" glyph-name="acute.case" horiz-adv-x="294" /><glyph d="M364 98H367V0H472V307C472 442 391 510 264 510C135 510 57 439 53 342H162C165 398 201 429 262 429C325 429 363 394 363 327V312L236 299C125 287 35 249 35 146C35 55 108 -10 212 -10C287 -10 343 29 364 98ZM150 145C150 193 188 217 254 224L363 236V219C363 124 318 71 240 71C192 71 150 98 150 145ZM110 568H226V679H110ZM301 568H417V679H301Z" glyph-name="adieresis" horiz-adv-x="534" unicode="&#228;" /><glyph d="M408 105H411V0H518V500H411V396H408C384 465 326 510 250 510C117 510 40 390 40 250C40 110 114 -10 250 -10C326 -10 384 36 408 105ZM155 250C155 357 203 429 284 429C365 429 415 357 415 250C415 144 365 71 284 71C204 71 155 144 155 250ZM132 568H248V679H132ZM323 568H439V679H323Z" glyph-name="adieresis.ss02" horiz-adv-x="585" /><glyph d="M820 155H712C700 115 671 71 607 71C530 71 478 124 473 215H829C845 389 746 510 597 510C445 510 364 388 364 250C364 112 451 -10 600 -10C722 -10 800 56 820 155ZM150 145C150 193 188 217 254 224L363 236V219C363 124 318 71 240 71C192 71 150 98 150 145ZM418 96 423 418C402 459 354 510 264 510C135 510 57 439 53 342H162C163 398 200 429 262 429C325 429 363 394 363 327V312L236 299C125 287 35 249 35 146C35 55 108 -10 212 -10C318 -10 385 41 418 96ZM597 429C671 429 713 377 720 296H473C480 377 524 429 597 429Z" glyph-name="ae" horiz-adv-x="869" unicode="&#230;" /><glyph d="M364 98H367V0H472V307C472 442 391 510 264 510C135 510 57 439 53 342H162C165 398 201 429 262 429C325 429 363 394 363 327V312L236 299C125 287 35 249 35 146C35 55 108 -10 212 -10C287 -10 343 29 364 98ZM150 145C150 193 188 217 254 224L363 236V219C363 124 318 71 240 71C192 71 150 98 150 145ZM335 555 231 690H84L236 555Z" glyph-name="agrave" horiz-adv-x="534" unicode="&#224;" /><glyph d="M408 105H411V0H518V500H411V396H408C384 465 326 510 250 510C117 510 40 390 40 250C40 110 114 -10 250 -10C326 -10 384 36 408 105ZM155 250C155 357 203 429 284 429C365 429 415 357 415 250C415 144 365 71 284 71C204 71 155 144 155 250ZM372 555 268 690H121L273 555Z" glyph-name="agrave.ss02" horiz-adv-x="585" /><glyph d="M364 98H367V0H472V307C472 442 391 510 264 510C135 510 57 439 53 342H162C165 398 201 429 262 429C325 429 363 394 363 327V312L236 299C125 287 35 249 35 146C35 55 108 -10 212 -10C287 -10 343 29 364 98ZM150 145C150 193 188 217 254 224L363 236V219C363 124 318 71 240 71C192 71 150 98 150 145ZM109 580H420V666H109Z" glyph-name="amacron" horiz-adv-x="534" unicode="&#257;" /><glyph d="M408 105H411V0H518V500H411V396H408C384 465 326 510 250 510C117 510 40 390 40 250C40 110 114 -10 250 -10C326 -10 384 36 408 105ZM155 250C155 357 203 429 284 429C365 429 415 357 415 250C415 144 365 71 284 71C204 71 155 144 155 250ZM128 580H439V666H128Z" glyph-name="amacron.ss02" horiz-adv-x="585" /><glyph d="M614 341H505C506 206 452 71 299 71C222 71 152 122 152 203C152 273 190 306 289 358L344 387C423 428 493 474 493 547C493 638 421 700 308 700C196 700 122 631 122 552C122 496 151 452 209 384L534 0H677L304 440C268 482 237 516 237 553C237 586 261 619 306 619C352 619 378 590 378 549C378 507 346 487 287 457L221 424C136 382 37 325 37 208C37 65 154 -10 304 -10C517 -10 614 182 614 341Z" glyph-name="ampersand" horiz-adv-x="673" unicode="&amp;" /><glyph d="M367 0C324 -16 294 -48 294 -90C294 -152 353 -170 435 -170H474V-102H455C411 -102 389 -96 389 -69C389 -38 429 -17 472 0ZM364 98H367V0H472V307C472 442 391 510 264 510C135 510 57 439 53 342H162C165 398 201 429 262 429C325 429 363 394 363 327V312L236 299C125 287 35 249 35 146C35 55 108 -10 212 -10C287 -10 343 29 364 98ZM150 145C150 193 188 217 254 224L363 236V219C363 124 318 71 240 71C192 71 150 98 150 145Z" glyph-name="aogonek" horiz-adv-x="534" unicode="&#261;" /><glyph d="M518 -170V-102H501C457 -102 435 -96 435 -69C435 -38 475 -17 518 0H411C368 -16 338 -48 338 -90C338 -152 397 -170 479 -170ZM408 105H411V0H518V500H411V396H408C384 465 326 510 250 510C117 510 40 390 40 250C40 110 114 -10 250 -10C326 -10 384 36 408 105ZM155 250C155 357 203 429 284 429C365 429 415 357 415 250C415 144 365 71 284 71C204 71 155 144 155 250Z" glyph-name="aogonek.ss02" horiz-adv-x="585" /><glyph d="M384 690H341V0H384ZM250 672 211 655 475 18 514 34ZM133 604 104 573 592 86 622 115ZM51 496 36 457 674 193 690 232ZM17 365V323H708V365ZM36 231 53 193 690 458 674 496ZM105 115 135 86 622 575 593 604ZM213 33 252 18 514 656 476 672Z" glyph-name="apple" horiz-adv-x="725" unicode="&#63743;" /><glyph d="M364 98H367V0H472V307C472 442 391 510 264 510C135 510 57 439 53 342H162C165 398 201 429 262 429C325 429 363 394 363 327V312L236 299C125 287 35 249 35 146C35 55 108 -10 212 -10C287 -10 343 29 364 98ZM150 145C150 193 188 217 254 224L363 236V219C363 124 318 71 240 71C192 71 150 98 150 145ZM264 530C308 530 346 565 346 612C346 660 308 694 264 694C218 694 182 660 182 612C182 565 218 530 264 530ZM264 586C250 586 238 596 238 612C238 628 250 638 264 638C278 638 290 628 290 612C290 596 278 586 264 586Z" glyph-name="aring" horiz-adv-x="534" unicode="&#229;" /><glyph d="M408 105H411V0H518V500H411V396H408C384 465 326 510 250 510C117 510 40 390 40 250C40 110 114 -10 250 -10C326 -10 384 36 408 105ZM155 250C155 357 203 429 284 429C365 429 415 357 415 250C415 144 365 71 284 71C204 71 155 144 155 250ZM289 530C333 530 371 565 371 612C371 660 333 694 289 694C243 694 207 660 207 612C207 565 243 530 289 530ZM289 586C275 586 263 596 263 612C263 628 275 638 289 638C303 638 315 628 315 612C315 596 303 586 289 586Z" glyph-name="aring.ss02" horiz-adv-x="585" /><glyph d="M360 165 610 422V279L360 41ZM110 422 360 165V41L110 279ZM312 672H408V112H312Z" glyph-name="arrowdown" horiz-adv-x="720" unicode="&#8595;" /><glyph d="M224 531V244L545 565L613 497L292 176H579L486 85H133V438Z" glyph-name="arrowdownleft" horiz-adv-x="720" unicode="&#8601;" /><glyph d="M496 531V244L175 565L107 497L428 176H141L234 85H587V438Z" glyph-name="arrowdownright" horiz-adv-x="720" unicode="&#8600;" /><glyph d="M167 345 424 595H281L43 345ZM424 95 167 345H43L281 95ZM674 297V393H114V297Z" glyph-name="arrowleft" horiz-adv-x="720" unicode="&#8592;" /><glyph d="M553 345 296 595H439L677 345ZM296 95 553 345H677L439 95ZM46 297V393H606V297Z" glyph-name="arrowright" horiz-adv-x="720" unicode="&#8594;" /><glyph d="M360 525 610 268V411L360 649ZM110 268 360 525V649L110 411ZM312 18H408V578H312Z" glyph-name="arrowup" horiz-adv-x="720" unicode="&#8593;" /><glyph d="M224 119V406L545 85L613 153L292 474H579L486 565H133V212Z" glyph-name="arrowupleft" horiz-adv-x="720" unicode="&#8598;" /><glyph d="M496 119V406L175 85L107 153L428 474H141L234 565H587V212Z" glyph-name="arrowupright" horiz-adv-x="720" unicode="&#8599;" /><glyph d="M45 326H149L260 590V690H194ZM475 326 326 690H260V590L371 326Z" glyph-name="asciicircum" horiz-adv-x="520" unicode="^" /><glyph d="M176 381C127 381 87 364 45 329V226C88 263 135 277 175 277C241 277 270 226 348 226C397 226 437 243 479 278V381C436 344 389 330 349 330C283 330 254 381 176 381Z" glyph-name="asciitilde" horiz-adv-x="524" unicode="~" /><glyph d="M206 469 271 369 331 407 267 504 379 538 359 606 242 571V690H171V571L54 606L34 538L145 504L81 407L141 369Z" glyph-name="asterisk" horiz-adv-x="413" unicode="*" /><glyph d="M231 370V503H364V557H231V690H177V557H44V503H177V370ZM204 492 305 391 343 429 242 530 343 632 305 670 204 568 102 670 64 632 166 530 64 429 102 391Z" glyph-name="asterisk.ss08" horiz-adv-x="407" /><glyph d="M640 -136 600 -68C553 -96 498 -113 440 -113C264 -113 118 33 118 210C118 388 264 533 440 533C616 533 762 388 762 210H839C839 430 659 610 440 610C220 610 40 430 40 210C40 -10 220 -190 440 -190C513 -190 582 -171 640 -136ZM344 126C344 168 379 191 437 197L533 208V192C533 108 494 62 424 62C382 62 344 85 344 126ZM534 86H629V270C629 388 557 448 445 448C332 448 264 385 260 299H355C356 349 389 377 444 377C500 377 533 345 533 286V274L421 262C323 252 244 218 244 127C244 47 309 -10 399 -10C466 -10 516 24 534 86ZM839 210H762C762 85 714 67 686 67C657 67 629 88 629 136L537 86C554 27 603 -10 679 -10C757 -10 839 43 839 210Z" glyph-name="at" horiz-adv-x="885" unicode="@" /><glyph d="M621 23 576 100C530 71 477 54 420 54C259 54 128 185 128 346C128 506 259 636 420 636C580 636 711 506 711 346C711 296 686 255 628 255H547V167H628C741 167 800 252 800 346C800 555 629 725 420 725C210 725 39 555 39 346C39 136 210 -35 420 -35C494 -35 562 -14 621 23ZM319 167 420 544V572H336L227 167ZM530 256V339H311V256ZM613 167 505 572H420V544L521 167Z" glyph-name="at.case" horiz-adv-x="822" /><glyph d="M638 -136 598 -68C551 -96 496 -113 438 -113C262 -113 116 33 116 210C116 388 262 533 438 533C614 533 760 388 760 210H837C837 430 657 610 438 610C218 610 38 430 38 210C38 -10 218 -190 438 -190C511 -190 580 -171 638 -136ZM532 80H628V428H535V335H532C511 397 460 437 391 437C276 437 208 331 208 208C208 84 273 -21 391 -21C460 -21 511 20 532 80ZM310 208C310 301 351 365 422 365C494 365 538 301 538 208C538 114 494 51 422 51C351 51 310 114 310 208ZM837 210H760C760 82 713 68 684 68C657 68 628 83 628 133L535 80C552 21 610 -10 676 -10C756 -10 837 48 837 210Z" glyph-name="at.ss02" horiz-adv-x="880" /><glyph d="M364 98H367V0H472V307C472 442 391 510 264 510C135 510 57 439 53 342H162C165 398 201 429 262 429C325 429 363 394 363 327V312L236 299C125 287 35 249 35 146C35 55 108 -10 212 -10C287 -10 343 29 364 98ZM150 145C150 193 188 217 254 224L363 236V219C363 124 318 71 240 71C192 71 150 98 150 145ZM416 592V675C386 649 358 639 329 639C282 639 254 690 197 690C168 690 140 678 110 654V571C140 597 168 607 197 607C244 607 272 556 329 556C358 556 386 568 416 592Z" glyph-name="atilde" horiz-adv-x="534" unicode="&#227;" /><glyph d="M408 105H411V0H518V500H411V396H408C384 465 326 510 250 510C117 510 40 390 40 250C40 110 114 -10 250 -10C326 -10 384 36 408 105ZM155 250C155 357 203 429 284 429C365 429 415 357 415 250C415 144 365 71 284 71C204 71 155 144 155 250ZM440 592V675C410 649 382 639 353 639C306 639 278 690 221 690C192 690 164 678 134 654V571C164 597 192 607 221 607C268 607 296 556 353 556C382 556 410 568 440 592Z" glyph-name="atilde.ss02" horiz-adv-x="585" /><glyph d="M545 250C545 390 468 510 335 510C259 510 201 465 177 396H174V690H67V0H174V105H177C201 36 259 -10 335 -10C471 -10 545 110 545 250ZM170 250C170 357 216 429 300 429C383 429 430 357 430 250C430 144 383 71 300 71C216 71 170 144 170 250Z" glyph-name="b" horiz-adv-x="586" unicode="b" /><glyph d="M331 0 21 690H136L446 0Z" glyph-name="backslash" horiz-adv-x="468" unicode="\" /><glyph d="M78 -120H177V690H78Z" glyph-name="bar" horiz-adv-x="255" unicode="|" /><glyph d="M78 -60H191V750H78Z" glyph-name="bar.case" horiz-adv-x="269" /><glyph d="M292 -170C258 -122 230 -78 230 37C230 152 174 237 122 259V262C174 284 230 368 230 483C230 598 258 642 292 690H198C156 647 119 599 119 483C119 381 108 326 33 322V198C108 194 119 139 119 37C119 -79 156 -127 198 -170Z" glyph-name="braceleft" horiz-adv-x="318" unicode="{" /><glyph d="M316 0C275 54 243 105 243 207C243 292 191 334 130 344V346C191 356 243 398 243 483C243 585 275 636 316 690H203C161 647 124 599 124 491C124 430 106 404 35 401V290C106 286 124 260 124 200C124 91 161 43 203 0Z" glyph-name="braceleft.case" horiz-adv-x="347" /><glyph d="M26 -170C60 -122 88 -78 88 37C88 152 144 237 196 259V262C144 284 88 368 88 483C88 598 60 642 26 690H120C162 647 199 599 199 483C199 381 210 326 285 322V198C210 194 199 139 199 37C199 -79 162 -127 120 -170Z" glyph-name="braceright" horiz-adv-x="318" unicode="}" /><glyph d="M31 0C72 54 104 105 104 207C104 292 156 334 217 344V346C156 356 104 398 104 483C104 585 72 636 31 690H144C186 647 223 599 223 491C223 430 241 404 312 401V290C241 286 223 260 223 200C223 91 186 43 144 0Z" glyph-name="braceright.case" horiz-adv-x="347" /><glyph d="M79 -170H284V-89H188V609H284V690H79Z" glyph-name="bracketleft" horiz-adv-x="315" unicode="[" /><glyph d="M78 0H308V93H191V597H308V690H78Z" glyph-name="bracketleft.case" horiz-adv-x="346" /><glyph d="M236 -170H31V-89H127V609H31V690H236Z" glyph-name="bracketright" horiz-adv-x="315" unicode="]" /><glyph d="M268 0H38V93H155V597H38V690H268Z" glyph-name="bracketright.case" horiz-adv-x="346" /><glyph d="M163 620C126 620 97 639 97 690H23C23 617 70 555 163 555C255 555 303 617 303 690H229C229 639 200 620 163 620Z" glyph-name="breve" horiz-adv-x="325" unicode="&#728;" /><glyph d="M163 805C126 805 97 824 97 875H23C23 802 70 740 163 740C255 740 303 802 303 875H229C229 824 200 805 163 805Z" glyph-name="breve.case" horiz-adv-x="325" /><glyph d="M181 389V690H82V389ZM82 -120H181V181H82Z" glyph-name="brokenbar" horiz-adv-x="263" unicode="&#166;" /><glyph d="M195 449V750H82V449ZM195 -60V241H82V-60Z" glyph-name="brokenbar.case" horiz-adv-x="277" /><glyph d="M212 115C293 115 357 180 357 260C357 341 293 405 212 405C132 405 67 341 67 260C67 180 132 115 212 115Z" glyph-name="bullet" horiz-adv-x="424" unicode="&#8226;" /><glyph d="M186 203C267 203 331 268 331 348C331 429 267 493 186 493C106 493 41 429 41 348C41 268 106 203 186 203Z" glyph-name="bullet.case" horiz-adv-x="372" /><glyph d="M505 174H394C383 110 341 71 283 71C200 71 154 145 154 250C154 354 197 429 278 429C337 429 378 392 390 328H500C481 446 393 510 276 510C130 510 39 385 39 250C39 112 133 -10 280 -10C397 -10 486 56 505 174Z" glyph-name="c" horiz-adv-x="536" unicode="c" /><glyph d="M505 174H394C383 110 341 71 283 71C200 71 154 145 154 250C154 354 197 429 278 429C337 429 378 392 390 328H500C481 446 393 510 276 510C130 510 39 385 39 250C39 112 133 -10 280 -10C397 -10 486 56 505 174ZM295 555 447 690H299L195 555Z" glyph-name="cacute" horiz-adv-x="536" unicode="&#263;" /><glyph d="M260 555 391 690H267L207 603L146 690H23L154 555Z" glyph-name="caron" horiz-adv-x="413" unicode="&#711;" /><glyph d="M260 740 391 875H267L207 788L146 875H23L154 740Z" glyph-name="caron.case" horiz-adv-x="413" /><glyph d="M105 526 208 690H83L20 526Z" glyph-name="caron.slovak" horiz-adv-x="230" /><glyph d="M505 174H394C383 110 341 71 283 71C200 71 154 145 154 250C154 354 197 429 278 429C337 429 378 392 390 328H500C481 446 393 510 276 510C130 510 39 385 39 250C39 112 133 -10 280 -10C397 -10 486 56 505 174ZM329 555 460 690H336L276 603L215 690H92L223 555Z" glyph-name="ccaron" horiz-adv-x="536" unicode="&#269;" /><glyph d="M505 174H394C383 110 341 71 283 71C200 71 154 145 154 250C154 354 197 429 278 429C337 429 378 392 390 328H500C481 446 393 510 276 510C130 510 39 385 39 250C39 112 133 -10 280 -10C397 -10 486 56 505 174ZM289 -174C330 -174 351 -148 351 -117C351 -88 330 -61 289 -61H268L305 10H251L194 -105H278C298 -105 307 -108 307 -117C307 -127 298 -130 278 -130H194V-174Z" glyph-name="ccedilla" horiz-adv-x="536" unicode="&#231;" /><glyph d="M505 174H394C383 110 341 71 283 71C200 71 154 145 154 250C154 354 197 429 278 429C337 429 378 392 390 328H500C481 446 393 510 276 510C130 510 39 385 39 250C39 112 133 -10 280 -10C397 -10 486 56 505 174ZM215 555 276 643 336 555H460L329 690H223L92 555Z" glyph-name="ccircumflex" horiz-adv-x="536" unicode="&#265;" /><glyph d="M505 174H394C383 110 341 71 283 71C200 71 154 145 154 250C154 354 197 429 278 429C337 429 378 392 390 328H500C481 446 393 510 276 510C130 510 39 385 39 250C39 112 133 -10 280 -10C397 -10 486 56 505 174ZM333 568V679H217V568Z" glyph-name="cdotaccent" horiz-adv-x="536" unicode="&#267;" /><glyph d="M113 -174C154 -174 175 -148 175 -117C175 -88 154 -61 113 -61H92L129 10H75L18 -105H102C122 -105 131 -108 131 -117C131 -127 122 -130 102 -130H18V-174Z" glyph-name="cedilla" horiz-adv-x="200" unicode="&#184;" /><glyph d="M317 -120V46H233V-120ZM317 474V616H233V474ZM506 174H395C384 110 342 71 284 71C201 71 155 145 155 250C155 354 198 429 279 429C338 429 379 392 391 328H501C482 446 394 510 277 510C131 510 40 385 40 250C40 112 134 -10 281 -10C398 -10 487 56 506 174Z" glyph-name="cent" horiz-adv-x="538" unicode="&#162;" /><glyph d="M146 555 207 643 267 555H391L260 690H154L23 555Z" glyph-name="circumflex" horiz-adv-x="413" unicode="&#710;" /><glyph d="M146 740 207 828 267 740H391L260 875H154L23 740Z" glyph-name="circumflex.case" horiz-adv-x="413" /><glyph d="M177 389V500H61V389ZM177 0V112H61V0Z" glyph-name="colon" horiz-adv-x="238" unicode=":" /><glyph d="M356 389V500H240V389ZM356 0V112H240V0Z" glyph-name="colon.tf" horiz-adv-x="595" /><glyph d="M105 -115 178 0V112H62V0H105L32 -115Z" glyph-name="comma" horiz-adv-x="240" unicode="," /><glyph d="M80 -252 151 -162V-50H35V-162H78L7 -252Z" glyph-name="commaaccent" horiz-adv-x="174" unicode="&#806;" /><glyph d="M752 345C752 540 592 700 397 700C201 700 42 540 42 345C42 150 201 -10 397 -10C592 -10 752 150 752 345ZM120 345C120 498 244 623 397 623C550 623 675 498 675 345C675 193 550 68 397 68C244 68 120 193 120 345ZM588 290H506C496 231 458 197 405 197C334 197 291 257 291 346C291 435 332 494 400 494C455 494 492 463 503 400H585C571 497 496 560 398 560C283 560 204 465 204 346C204 223 284 132 400 132C499 132 573 194 588 290Z" glyph-name="copyright" horiz-adv-x="794" unicode="&#169;" /><glyph d="M529 348C529 471 429 572 306 572C183 572 82 471 82 348C82 225 183 124 306 124C429 124 529 225 529 348ZM237 212 170 279 51 160 118 93ZM180 348C180 423 236 475 306 475C376 475 432 423 432 348C432 274 376 222 306 222C236 222 180 274 180 348ZM227 494 118 604 51 537 161 428ZM562 160 445 277 378 210 495 93ZM562 537 495 604 388 496 454 430Z" glyph-name="currency" horiz-adv-x="613" unicode="&#164;" /><glyph d="M408 105H411V0H518V690H411V396H408C384 465 326 510 250 510C117 510 40 390 40 250C40 110 114 -10 250 -10C326 -10 384 36 408 105ZM155 250C155 357 202 429 285 429C369 429 415 357 415 250C415 144 369 71 285 71C202 71 155 144 155 250Z" glyph-name="d" horiz-adv-x="585" unicode="d" /><glyph d="M315 0V690H206V0ZM42 500V419H479V500Z" glyph-name="dagger" horiz-adv-x="521" unicode="&#8224;" /><glyph d="M315 0V690H206V0ZM42 500V419H479V500ZM42 308V227H479V308Z" glyph-name="daggerdbl" horiz-adv-x="521" unicode="&#8225;" /><glyph d="M408 105H411V0H518V690H411V396H408C384 465 326 510 250 510C117 510 40 390 40 250C40 110 114 -10 250 -10C326 -10 384 36 408 105ZM155 250C155 357 202 429 285 429C369 429 415 357 415 250C415 144 369 71 285 71C202 71 155 144 155 250ZM648 526 751 690H626L563 526Z" glyph-name="dcaron" horiz-adv-x="615" unicode="&#271;" /><glyph d="M308 557H578V638H308ZM408 105H411V0H518V690H411V396H408C384 465 326 510 250 510C117 510 40 390 40 250C40 110 114 -10 250 -10C326 -10 384 36 408 105ZM155 250C155 357 202 429 285 429C369 429 415 357 415 250C415 144 369 71 285 71C202 71 155 144 155 250Z" glyph-name="dcroat" horiz-adv-x="585" unicode="&#273;" /><glyph d="M194 386C280 386 351 457 351 543C351 630 280 700 194 700C107 700 37 630 37 543C37 457 107 386 194 386ZM194 467C153 467 118 502 118 543C118 585 153 619 194 619C236 619 270 585 270 543C270 502 236 467 194 467Z" glyph-name="degree" horiz-adv-x="388" unicode="&#176;" /><glyph d="M23 568H139V679H23ZM214 568H330V679H214Z" glyph-name="dieresis" horiz-adv-x="353" unicode="&#168;" /><glyph d="M23 753H139V864H23ZM214 753H330V864H214Z" glyph-name="dieresis.case" horiz-adv-x="353" /><glyph d="M515 228V313H45V228ZM338 35V147H222V35ZM338 394V506H222V394Z" glyph-name="divide" horiz-adv-x="560" unicode="&#247;" /><glyph d="M515 306V391H45V306ZM222 113H338V225H222ZM222 472H338V583H222Z" glyph-name="divide.case" horiz-adv-x="560" /><glyph d="M349 646V805H263V646ZM263 -120H349V34H263ZM596 190C596 299 531 367 401 397L301 421C199 445 164 467 164 514C164 573 221 607 300 607C381 607 450 567 459 485H576C564 604 474 700 298 700C159 700 45 622 45 506C45 410 112 347 247 315L347 292C436 271 478 241 478 185C478 121 413 83 325 83C228 83 155 153 148 243H31C42 118 141 -10 324 -10C484 -10 596 75 596 190Z" glyph-name="dollar" horiz-adv-x="628" unicode="$" /><glyph d="M139 568V679H23V568Z" glyph-name="dotaccent" horiz-adv-x="161" unicode="&#729;" /><glyph d="M139 753V864H23V753Z" glyph-name="dotaccent.case" horiz-adv-x="159" /><glyph d="M176 0V500H67V0Z" glyph-name="dotlessi" horiz-adv-x="243" unicode="&#305;" /><glyph d="M41 -170C134 -170 176 -136 176 -40V500H67V-31C67 -74 52 -89 10 -89H-21V-170Z" glyph-name="dotlessj" horiz-adv-x="243" unicode="&#567;" /><glyph d="M496 155H387C375 115 347 71 282 71C206 71 153 124 148 215H505C520 389 422 510 273 510C124 510 39 388 39 250C39 112 126 -10 275 -10C397 -10 475 56 496 155ZM273 429C346 429 389 377 396 296H149C156 377 200 429 273 429Z" glyph-name="e" horiz-adv-x="544" unicode="e" /><glyph d="M299 555 451 690H303L199 555ZM496 155H387C375 115 347 71 282 71C206 71 153 124 148 215H505C520 389 422 510 273 510C124 510 39 388 39 250C39 112 126 -10 275 -10C397 -10 475 56 496 155ZM273 429C346 429 389 377 396 296H149C156 377 200 429 273 429Z" glyph-name="eacute" horiz-adv-x="544" unicode="&#233;" /><glyph d="M496 155H387C375 115 347 71 282 71C206 71 153 124 148 215H505C520 389 422 510 273 510C124 510 39 388 39 250C39 112 126 -10 275 -10C397 -10 475 56 496 155ZM273 429C346 429 389 377 396 296H149C156 377 200 429 273 429ZM273 620C236 620 207 639 207 690H133C133 617 180 555 273 555C365 555 413 617 413 690H339C339 639 310 620 273 620Z" glyph-name="ebreve" horiz-adv-x="544" unicode="&#277;" /><glyph d="M496 155H387C375 115 347 71 282 71C206 71 153 124 148 215H505C520 389 422 510 273 510C124 510 39 388 39 250C39 112 126 -10 275 -10C397 -10 475 56 496 155ZM273 429C346 429 389 377 396 296H149C156 377 200 429 273 429ZM326 555 457 690H333L273 603L212 690H89L220 555Z" glyph-name="ecaron" horiz-adv-x="544" unicode="&#283;" /><glyph d="M496 155H387C375 115 347 71 282 71C206 71 153 124 148 215H505C520 389 422 510 273 510C124 510 39 388 39 250C39 112 126 -10 275 -10C397 -10 475 56 496 155ZM273 429C346 429 389 377 396 296H149C156 377 200 429 273 429ZM212 555 273 643 333 555H457L326 690H220L89 555Z" glyph-name="ecircumflex" horiz-adv-x="544" unicode="&#234;" /><glyph d="M119 568H235V679H119ZM310 568H426V679H310ZM496 155H387C375 115 347 71 282 71C206 71 153 124 148 215H505C520 389 422 510 273 510C124 510 39 388 39 250C39 112 126 -10 275 -10C397 -10 475 56 496 155ZM273 429C346 429 389 377 396 296H149C156 377 200 429 273 429Z" glyph-name="edieresis" horiz-adv-x="544" unicode="&#235;" /><glyph d="M496 155H387C375 115 347 71 282 71C206 71 153 124 148 215H505C520 389 422 510 273 510C124 510 39 388 39 250C39 112 126 -10 275 -10C397 -10 475 56 496 155ZM273 429C346 429 389 377 396 296H149C156 377 200 429 273 429ZM331 568V679H215V568Z" glyph-name="edotaccent" horiz-adv-x="544" unicode="&#279;" /><glyph d="M340 555 236 690H89L241 555ZM496 155H387C375 115 347 71 282 71C206 71 153 124 148 215H505C520 389 422 510 273 510C124 510 39 388 39 250C39 112 126 -10 275 -10C397 -10 475 56 496 155ZM273 429C346 429 389 377 396 296H149C156 377 200 429 273 429Z" glyph-name="egrave" horiz-adv-x="544" unicode="&#232;" /><glyph d="M567 194C567 297 480 352 417 367V370C474 390 544 434 544 520C544 624 443 700 306 700C170 700 68 624 68 520C68 434 138 390 195 370V367C132 352 45 297 45 194C45 71 163 -10 306 -10C449 -10 567 71 567 194ZM160 200C160 274 223 326 306 326C390 326 453 274 453 200C453 127 390 71 306 71C223 71 160 127 160 200ZM183 516C183 574 231 619 306 619C382 619 430 574 430 516C430 459 378 411 306 411C234 411 183 459 183 516Z" glyph-name="eight" horiz-adv-x="612" unicode="8" /><glyph d="M558 194C558 297 471 352 408 367V370C465 390 535 434 535 520C535 624 434 700 297 700C161 700 59 624 59 520C59 434 129 390 186 370V367C123 352 36 297 36 194C36 71 154 -10 297 -10C440 -10 558 71 558 194ZM151 200C151 274 214 326 297 326C381 326 444 274 444 200C444 127 381 71 297 71C214 71 151 127 151 200ZM174 516C174 574 222 619 297 619C373 619 421 574 421 516C421 459 369 411 297 411C225 411 174 459 174 516Z" glyph-name="eight.tf" horiz-adv-x="595" /><glyph d="M177 0V112H61V0ZM415 0V112H299V0ZM653 0V112H537V0Z" glyph-name="ellipsis" horiz-adv-x="714" unicode="&#8230;" /><glyph d="M496 155H387C375 115 347 71 282 71C206 71 153 124 148 215H505C520 389 422 510 273 510C124 510 39 388 39 250C39 112 126 -10 275 -10C397 -10 475 56 496 155ZM273 429C346 429 389 377 396 296H149C156 377 200 429 273 429ZM116 580H427V666H116Z" glyph-name="emacron" horiz-adv-x="544" unicode="&#275;" /><glyph d="M733 220V301H62V220Z" glyph-name="emdash" horiz-adv-x="795" unicode="&#8212;" /><glyph d="M733 306V387H62V306Z" glyph-name="emdash.case" horiz-adv-x="795" /><glyph d="M434 220V301H62V220Z" glyph-name="endash" horiz-adv-x="496" unicode="&#8211;" /><glyph d="M434 306V387H62V306Z" glyph-name="endash.case" horiz-adv-x="496" /><glyph d="M483 306V387H111V306Z" glyph-name="endash.tf" horiz-adv-x="595" /><glyph d="M176 0V300C176 382 209 428 276 428C343 428 376 386 376 293V0H485V325C485 435 431 510 321 510C248 510 196 472 175 402H173V500H67V0ZM350 -170C443 -170 485 -136 485 -40V0H376V-31C376 -74 360 -89 318 -89H288V-170Z" glyph-name="eng" horiz-adv-x="548" unicode="&#331;" /><glyph d="M496 155H387C375 115 347 71 282 71C206 71 153 124 148 215H505C520 389 422 510 273 510C124 510 39 388 39 250C39 112 126 -10 275 -10C397 -10 475 56 496 155ZM273 429C346 429 389 377 396 296H149C156 377 200 429 273 429ZM241 0C198 -16 168 -48 168 -90C168 -152 227 -170 309 -170H350V-102H331C287 -102 265 -96 265 -69C265 -38 307 -17 350 0Z" glyph-name="eogonek" horiz-adv-x="544" unicode="&#281;" /><glyph d="M515 318V402H45V318ZM515 138V223H45V138Z" glyph-name="equal" horiz-adv-x="560" unicode="=" /><glyph d="M515 396V480H45V396ZM515 216V301H45V216Z" glyph-name="equal.case" horiz-adv-x="560" /><glyph d="M528 275C528 494 429 609 311 690H149C299 599 387 507 410 396H407C383 465 325 510 249 510C116 510 39 390 39 250C39 113 132 -10 282 -10C444 -10 528 124 528 275ZM154 250C154 357 202 429 283 429C364 429 414 357 414 250C414 144 365 71 284 71C203 71 154 144 154 250ZM447 651 422 700 190 587 215 538Z" glyph-name="eth" horiz-adv-x="572" unicode="&#240;" /><glyph d="M743 250H629C612 144 547 83 456 83C343 83 270 184 270 345C270 504 339 607 451 607C543 607 607 546 624 440H739C715 593 603 700 449 700C272 700 152 542 152 345C152 142 276 -10 453 -10C608 -10 720 96 743 250ZM490 230 525 308H62L26 230ZM523 364 558 442H95L59 364Z" glyph-name="euro" horiz-adv-x="789" unicode="&#8364;" /><glyph d="M163 216 197 690H63L97 216ZM188 0V112H72V0Z" glyph-name="exclam" horiz-adv-x="260" unicode="!" /><glyph d="M163 216 197 690H63L97 216ZM188 0V112H72V0Z" glyph-name="exclam.case" horiz-adv-x="260" /><glyph d="M157 284 191 -190H57L91 284ZM182 500V388H66V500Z" glyph-name="exclamdown" horiz-adv-x="248" unicode="&#161;" /><glyph d="M163 474 197 0H63L97 474ZM188 690V578H72V690Z" glyph-name="exclamdown.case" horiz-adv-x="260" /><glyph d="M216 0V419H335V500H216V555C216 597 231 609 269 609H331V690H225C147 690 107 654 107 581V500H24V419H107V0Z" glyph-name="f" horiz-adv-x="349" unicode="f" /><glyph d="M289 419H501V500H289ZM565 0V419H684V500H565V555C565 597 580 609 618 609H680V690H574C496 690 456 654 456 581V500H373V419H456V0ZM216 0V419H335V500H216V555C216 597 231 609 269 609H331V690H225C147 690 107 654 107 581V500H24V419H107V0Z" glyph-name="f_f" horiz-adv-x="698" unicode="&#64256;" /><glyph d="M874 0V500H765V0ZM817 419V500H295V419ZM878 579V690H762V579ZM216 0V419H335V500H216V555C216 597 231 609 269 609H331V690H225C147 690 107 654 107 581V500H24V419H107V0ZM565 0V419H684V500H565V555C565 597 580 609 618 609H680V690H574C496 690 456 654 456 581V500H373V419H456V0Z" glyph-name="f_f_i" horiz-adv-x="941" unicode="&#64259;" /><glyph d="M295 419H817V500H295ZM765 0H874V690H765ZM216 0V419H335V500H216V555C216 597 231 609 269 609H331V690H225C147 690 107 654 107 581V500H24V419H107V0ZM565 0V419H684V500H565V555C565 597 580 609 618 609H680V690H574C496 690 456 654 456 581V500H373V419H456V0Z" glyph-name="f_f_l" horiz-adv-x="941" unicode="&#64260;" /><glyph d="M525 0V500H416V0ZM503 419V500H291V419ZM529 579V690H413V579ZM216 0V419H335V500H216V555C216 597 231 609 269 609H331V690H225C147 690 107 654 107 581V500H24V419H107V0Z" glyph-name="f_i" horiz-adv-x="592" unicode="&#64257;" /><glyph d="M321 609H525V690H321ZM416 0H525V690H416ZM216 0V419H335V500H216V555C216 597 231 609 269 609H331V690H225C147 690 107 654 107 581V500H24V419H107V0Z" glyph-name="f_l" horiz-adv-x="592" unicode="&#64258;" /><glyph d="M289 419H501V500H289ZM675 0V81H613C575 81 560 93 560 135V419H679V500H560V614H451V500H368V419H451V110C451 37 491 0 569 0ZM216 0V419H335V500H216V555C216 597 231 609 269 609H331V690H225C147 690 107 654 107 581V500H24V419H107V0Z" glyph-name="f_t" horiz-adv-x="702" /><glyph d="M438 236C438 137 383 71 303 71C212 71 169 140 162 214H53C64 73 165 -10 299 -10C444 -10 552 82 552 236C552 392 445 480 327 480C253 480 201 445 175 389H172V609H512V690H63V315H172C194 368 237 398 295 398C375 398 438 340 438 236Z" glyph-name="five" horiz-adv-x="591" unicode="5" /><glyph d="M440 236C440 137 385 71 305 71C214 71 171 140 164 214H55C66 73 167 -10 301 -10C446 -10 554 82 554 236C554 392 447 480 329 480C255 480 203 445 177 389H174V609H514V690H65V315H174C196 368 239 398 297 398C377 398 440 340 440 236Z" glyph-name="five.tf" horiz-adv-x="595" /><glyph d="M481 0V194H572V275H481V690H265L20 260V194H372V0ZM372 668V275H147Z" glyph-name="four" horiz-adv-x="607" unicode="4" /><glyph d="M475 0V194H566V275H475V690H259L14 260V194H366V0ZM366 668V275H141Z" glyph-name="four.tf" horiz-adv-x="595" /><glyph d="M519 24V500H412V396H409C385 465 327 510 251 510C118 510 41 400 41 260C41 120 118 10 251 10C327 10 385 56 409 125H412V21C412 -63 362 -99 295 -99C242 -99 190 -79 180 -17H72C83 -126 173 -180 295 -180C426 -180 519 -109 519 24ZM156 260C156 367 204 429 286 429C368 429 416 367 416 260C416 154 368 91 286 91C204 91 156 154 156 260Z" glyph-name="g" horiz-adv-x="586" unicode="g" /><glyph d="M400 -170C478 -170 518 -134 518 -61V500H411V396H408C384 465 326 510 250 510C117 510 40 390 40 250C40 110 114 -10 250 -10C326 -10 384 36 408 105H411V-35C411 -77 396 -89 358 -89H122V-170ZM155 250C155 357 203 429 284 429C365 429 415 357 415 250C415 144 365 71 284 71C204 71 155 144 155 250Z" glyph-name="g.ss03" horiz-adv-x="585" /><glyph d="M519 24V500H412V396H409C385 465 327 510 251 510C118 510 41 400 41 260C41 120 118 10 251 10C327 10 385 56 409 125H412V21C412 -63 362 -99 295 -99C242 -99 190 -79 180 -17H72C83 -126 173 -180 295 -180C426 -180 519 -109 519 24ZM156 260C156 367 204 429 286 429C368 429 416 367 416 260C416 154 368 91 286 91C204 91 156 154 156 260ZM294 620C257 620 228 639 228 690H154C154 617 201 555 294 555C386 555 434 617 434 690H360C360 639 331 620 294 620Z" glyph-name="gbreve" horiz-adv-x="586" unicode="&#287;" /><glyph d="M400 -170C478 -170 518 -134 518 -61V500H411V396H408C384 465 326 510 250 510C117 510 40 390 40 250C40 110 114 -10 250 -10C326 -10 384 36 408 105H411V-35C411 -77 396 -89 358 -89H122V-170ZM155 250C155 357 203 429 284 429C365 429 415 357 415 250C415 144 365 71 284 71C204 71 155 144 155 250ZM293 620C256 620 227 639 227 690H153C153 617 200 555 293 555C385 555 433 617 433 690H359C359 639 330 620 293 620Z" glyph-name="gbreve.ss03" horiz-adv-x="585" /><glyph d="M519 24V500H412V396H409C385 465 327 510 251 510C118 510 41 400 41 260C41 120 118 10 251 10C327 10 385 56 409 125H412V21C412 -63 362 -99 295 -99C242 -99 190 -79 180 -17H72C83 -126 173 -180 295 -180C426 -180 519 -109 519 24ZM156 260C156 367 204 429 286 429C368 429 416 367 416 260C416 154 368 91 286 91C204 91 156 154 156 260ZM233 555 294 643 354 555H478L347 690H241L110 555Z" glyph-name="gcircumflex" horiz-adv-x="586" unicode="&#285;" /><glyph d="M400 -170C478 -170 518 -134 518 -61V500H411V396H408C384 465 326 510 250 510C117 510 40 390 40 250C40 110 114 -10 250 -10C326 -10 384 36 408 105H411V-35C411 -77 396 -89 358 -89H122V-170ZM155 250C155 357 203 429 284 429C365 429 415 357 415 250C415 144 365 71 284 71C204 71 155 144 155 250ZM234 555 295 643 355 555H479L348 690H242L111 555Z" glyph-name="gcircumflex.ss03" horiz-adv-x="585" /><glyph d="M519 24V500H412V396H409C385 465 327 510 251 510C118 510 41 400 41 260C41 120 118 10 251 10C327 10 385 56 409 125H412V21C412 -63 362 -99 295 -99C242 -99 190 -79 180 -17H72C83 -126 173 -180 295 -180C426 -180 519 -109 519 24ZM156 260C156 367 204 429 286 429C368 429 416 367 416 260C416 154 368 91 286 91C204 91 156 154 156 260ZM292 770 221 680V568H337V680H294L365 770Z" glyph-name="gcommaaccent" horiz-adv-x="586" unicode="&#291;" /><glyph d="M400 -170C478 -170 518 -134 518 -61V500H411V396H408C384 465 326 510 250 510C117 510 40 390 40 250C40 110 114 -10 250 -10C326 -10 384 36 408 105H411V-35C411 -77 396 -89 358 -89H122V-170ZM155 250C155 357 203 429 284 429C365 429 415 357 415 250C415 144 365 71 284 71C204 71 155 144 155 250ZM293 770 222 680V568H338V680H295L366 770Z" glyph-name="gcommaaccent.ss03" horiz-adv-x="585" /><glyph d="M519 24V500H412V396H409C385 465 327 510 251 510C118 510 41 400 41 260C41 120 118 10 251 10C327 10 385 56 409 125H412V21C412 -63 362 -99 295 -99C242 -99 190 -79 180 -17H72C83 -126 173 -180 295 -180C426 -180 519 -109 519 24ZM156 260C156 367 204 429 286 429C368 429 416 367 416 260C416 154 368 91 286 91C204 91 156 154 156 260ZM338 568V679H222V568Z" glyph-name="gdotaccent" horiz-adv-x="586" unicode="&#289;" /><glyph d="M400 -170C478 -170 518 -134 518 -61V500H411V396H408C384 465 326 510 250 510C117 510 40 390 40 250C40 110 114 -10 250 -10C326 -10 384 36 408 105H411V-35C411 -77 396 -89 358 -89H122V-170ZM155 250C155 357 203 429 284 429C365 429 415 357 415 250C415 144 365 71 284 71C204 71 155 144 155 250ZM339 568V679H223V568Z" glyph-name="gdotaccent.ss03" horiz-adv-x="585" /><glyph d="M176 0V472C176 580 226 619 294 619C360 619 410 589 410 521C410 444 371 403 262 400V318C361 316 447 289 447 200C447 110 392 81 280 81H243V0H319C475 0 561 67 561 191C561 295 469 346 382 358V360C463 373 524 437 524 520C524 631 428 700 296 700C162 700 67 618 67 454V0Z" glyph-name="germandbls" horiz-adv-x="599" unicode="&#223;" /><glyph d="M274 555 170 690H23L175 555Z" glyph-name="grave" horiz-adv-x="294" unicode="`" /><glyph d="M274 740 170 875H23L175 740Z" glyph-name="grave.case" horiz-adv-x="294" /><glyph d="M72 143 409 270 72 398V489L509 324V216L72 51Z" glyph-name="greater" horiz-adv-x="560" unicode="&gt;" /><glyph d="M79 221 416 348 79 476V567L516 402V294L79 129Z" glyph-name="greater.case" horiz-adv-x="560" /><glyph d="M64 234 397 328 64 422V505L501 383V273L64 150ZM64 32V116H501V32Z" glyph-name="greaterequal" horiz-adv-x="560" unicode="&#8805;" /><glyph d="M66 312 399 406 66 500V583L503 461V351L66 228ZM66 110V194H503V110Z" glyph-name="greaterequal.case" horiz-adv-x="560" /><glyph d="M30 263 169 54H301L156 263L301 462H169ZM259 263 398 54H529L384 263L529 462H398Z" glyph-name="guillemotleft" horiz-adv-x="567" unicode="&#171;" /><glyph d="M30 346 169 137H301L156 346L301 545H169ZM259 346 398 137H529L384 346L529 545H398Z" glyph-name="guillemotleft.case" horiz-adv-x="567" /><glyph d="M537 263 398 54H266L411 263L266 462H398ZM308 263 169 54H38L183 263L38 462H169Z" glyph-name="guillemotright" horiz-adv-x="567" unicode="&#187;" /><glyph d="M537 346 398 137H266L411 346L266 545H398ZM308 346 169 137H38L183 346L38 545H169Z" glyph-name="guillemotright.case" horiz-adv-x="567" /><glyph d="M30 263 169 54H301L156 263L301 462H169Z" glyph-name="guilsinglleft" horiz-adv-x="339" unicode="&#8249;" /><glyph d="M30 346 169 137H301L156 346L301 545H169Z" glyph-name="guilsinglleft.case" horiz-adv-x="339" /><glyph d="M309 263 170 54H38L183 263L38 462H170Z" glyph-name="guilsinglright" horiz-adv-x="339" unicode="&#8250;" /><glyph d="M309 346 170 137H38L183 346L38 545H170Z" glyph-name="guilsinglright.case" horiz-adv-x="339" /><glyph d="M176 0V300C176 382 209 428 276 428C343 428 376 386 376 293V0H485V325C485 435 431 510 321 510C248 510 196 472 175 402H173V690H67V0Z" glyph-name="h" horiz-adv-x="548" unicode="h" /><glyph d="M277 557V638H7V557ZM176 0V300C176 382 209 428 276 428C343 428 376 386 376 293V0H485V325C485 435 431 510 321 510C248 510 196 472 175 402H173V690H67V0Z" glyph-name="hbar" horiz-adv-x="548" unicode="&#295;" /><glyph d="M176 0V300C176 382 209 428 276 428C343 428 376 386 376 293V0H485V325C485 435 431 510 321 510C248 510 196 472 175 402H173V690H67V0ZM59 715 120 803 180 715H304L173 850H67L-64 715Z" glyph-name="hcircumflex" horiz-adv-x="548" unicode="&#293;" /><glyph d="M120 555 265 690H117L20 555ZM306 555 451 690H304L207 555Z" glyph-name="hungarumlaut" horiz-adv-x="474" unicode="&#733;" /><glyph d="M120 740 265 875H117L20 740ZM306 740 451 875H304L207 740Z" glyph-name="hungarumlaut.case" horiz-adv-x="474" /><glyph d="M349 220V301H62V220Z" glyph-name="hyphen" horiz-adv-x="411" unicode="-" /><glyph d="M349 306V387H62V306Z" glyph-name="hyphen.case" horiz-adv-x="411" /><glyph d="M441 306V387H154V306Z" glyph-name="hyphen.tf" horiz-adv-x="595" /><glyph d="M176 0V500H67V0ZM180 579V690H64V579Z" glyph-name="i" horiz-adv-x="243" unicode="i" /><glyph d="M176 0V500H67V0ZM172 555 324 690H176L72 555Z" glyph-name="iacute" horiz-adv-x="243" unicode="&#237;" /><glyph d="M176 0V500H67V0ZM122 620C85 620 56 639 56 690H-18C-18 617 29 555 122 555C214 555 262 617 262 690H188C188 639 159 620 122 620Z" glyph-name="ibreve" horiz-adv-x="243" unicode="&#301;" /><glyph d="M176 0V500H67V0ZM61 555 122 643 182 555H306L175 690H69L-62 555Z" glyph-name="icircumflex" horiz-adv-x="243" unicode="&#238;" /><glyph d="M176 0V500H67V0ZM-32 568H84V679H-32ZM159 568H275V679H159Z" glyph-name="idieresis" horiz-adv-x="243" unicode="&#239;" /><glyph d="M180 586V697H64V586ZM176 0V500H67V0ZM180 -154V-43H64V-154Z" glyph-name="idotaccent" horiz-adv-x="243" /><glyph d="M176 0V500H67V0ZM171 555 67 690H-80L72 555Z" glyph-name="igrave" horiz-adv-x="243" unicode="&#236;" /><glyph d="M176 0V500H67V0ZM-34 580H277V666H-34Z" glyph-name="imacron" horiz-adv-x="243" unicode="&#299;" /><glyph d="M180 579V690H64V579ZM176 0V500H67V0ZM67 0C24 -16 -6 -48 -6 -90C-6 -152 53 -170 135 -170H176V-102H157C113 -102 91 -96 91 -69C91 -38 133 -17 176 0Z" glyph-name="iogonek" horiz-adv-x="243" unicode="&#303;" /><glyph d="M176 0V500H67V0ZM275 592V675C245 649 217 639 188 639C141 639 113 690 56 690C27 690 -1 678 -31 654V571C-1 597 27 607 56 607C103 607 131 556 188 556C217 556 245 568 275 592Z" glyph-name="itilde" horiz-adv-x="243" unicode="&#297;" /><glyph d="M41 -170C134 -170 176 -136 176 -40V500H67V-31C67 -74 52 -89 10 -89H-21V-170ZM180 579V690H64V579Z" glyph-name="j" horiz-adv-x="243" unicode="j" /><glyph d="M41 -170C134 -170 176 -136 176 -40V500H67V-31C67 -74 52 -89 10 -89H-21V-170ZM60 555 121 643 181 555H305L174 690H68L-63 555Z" glyph-name="jcircumflex" horiz-adv-x="243" unicode="&#309;" /><glyph d="M390 0H527L298 280L517 500H382L176 294V690H67V0H176V261Z" glyph-name="k" horiz-adv-x="532" unicode="k" /><glyph d="M385 290 527 500H403L261 290ZM402 0H539L288 306H176V690H67V0H176V274Z" glyph-name="k.ss04" horiz-adv-x="541" /><glyph d="M390 0H527L298 280L517 500H382L176 294V690H67V0H176V261ZM269 -252 340 -162V-50H224V-162H267L196 -252Z" glyph-name="kcommaaccent" horiz-adv-x="532" unicode="&#311;" /><glyph d="M385 290 527 500H403L261 290ZM402 0H539L288 306H176V690H67V0H176V274ZM267 -252 338 -162V-50H222V-162H265L194 -252Z" glyph-name="kcommaaccent.ss04" horiz-adv-x="541" /><glyph d="M67 0H176V690H67Z" glyph-name="l" horiz-adv-x="243" unicode="l" /><glyph d="M67 0H176V690H67ZM172 730 324 865H176L72 730Z" glyph-name="lacute" horiz-adv-x="243" unicode="&#314;" /><glyph d="M67 0H176V690H67ZM306 526 409 690H284L221 526Z" glyph-name="lcaron" horiz-adv-x="273" unicode="&#318;" /><glyph d="M67 0H176V690H67ZM109 -252 180 -162V-50H64V-162H107L36 -252Z" glyph-name="lcommaaccent" horiz-adv-x="243" unicode="&#316;" /><glyph d="M67 0H176V690H67ZM359 295V406H243V295Z" glyph-name="ldot" horiz-adv-x="359" unicode="&#320;" /><glyph d="M488 143 151 270 488 398V489L51 324V216L488 51Z" glyph-name="less" horiz-adv-x="560" unicode="&lt;" /><glyph d="M481 221 144 348 481 476V567L44 402V294L481 129Z" glyph-name="less.case" horiz-adv-x="560" /><glyph d="M496 234 163 328 496 422V505L59 383V273L496 150ZM496 32V116H59V32Z" glyph-name="lessequal" horiz-adv-x="560" unicode="&#8804;" /><glyph d="M494 312 161 406 494 500V583L57 461V351L494 228ZM494 110V194H57V110Z" glyph-name="lessequal.case" horiz-adv-x="560" /><glyph d="M505 122V419H35V335H421V122Z" glyph-name="logicalnot" horiz-adv-x="560" unicode="&#172;" /><glyph d="M498 200V497H28V413H414V200Z" glyph-name="logicalnot.case" horiz-adv-x="560" /><glyph d="M287 370V471L37 317V216ZM108 0H217V690H108Z" glyph-name="lslash" horiz-adv-x="323" unicode="&#322;" /><glyph d="M176 300C176 382 206 428 274 428C339 428 371 386 371 293V0H480V300C480 382 509 428 577 428C643 428 674 386 674 293V0H783V325C783 435 729 510 618 510C544 510 493 472 471 402H469C449 468 397 510 315 510C243 510 196 472 175 402H173V500H67V0H176Z" glyph-name="m" horiz-adv-x="846" unicode="m" /><glyph d="M23 580H334V666H23Z" glyph-name="macron" horiz-adv-x="356" unicode="&#175;" /><glyph d="M23 765H334V851H23Z" glyph-name="macron.case" horiz-adv-x="356" /><glyph d="M515 228V313H45V228Z" glyph-name="minus" horiz-adv-x="560" unicode="&#8722;" /><glyph d="M515 306V391H45V306Z" glyph-name="minus.case" horiz-adv-x="560" /><glyph d="M280 213 434 59 492 117 338 271 491 424 433 482 280 329 127 482 69 424 222 271 68 117 126 59Z" glyph-name="multiply" horiz-adv-x="560" unicode="&#215;" /><glyph d="M280 291 434 137 492 195 338 349 491 502 433 560 280 407 127 560 69 502 222 349 68 195 126 137Z" glyph-name="multiply.case" horiz-adv-x="560" /><glyph d="M176 0V300C176 382 209 428 276 428C343 428 376 386 376 293V0H485V325C485 435 431 510 321 510C248 510 196 472 175 402H173V500H67V0Z" glyph-name="n" horiz-adv-x="548" unicode="n" /><glyph d="M176 0V300C176 382 209 428 276 428C343 428 376 386 376 293V0H485V325C485 435 431 510 321 510C248 510 196 472 175 402H173V500H67V0ZM303 555 455 690H307L203 555Z" glyph-name="nacute" horiz-adv-x="548" unicode="&#324;" /><glyph d="M176 0V300C176 382 209 428 276 428C343 428 376 386 376 293V0H485V325C485 435 431 510 321 510C248 510 196 472 175 402H173V500H67V0ZM322 555 453 690H329L269 603L208 690H85L216 555Z" glyph-name="ncaron" horiz-adv-x="548" unicode="&#328;" /><glyph d="M176 0V300C176 382 209 428 276 428C343 428 376 386 376 293V0H485V325C485 435 431 510 321 510C248 510 196 472 175 402H173V500H67V0ZM263 -252 334 -162V-50H218V-162H261L190 -252Z" glyph-name="ncommaaccent" horiz-adv-x="548" unicode="&#326;" /><glyph d="M46 462C46 309 158 227 289 227C369 227 430 269 458 329H460C460 147 398 71 303 71C232 71 182 115 173 190H64C79 64 172 -10 301 -10C472 -10 572 135 572 355C572 550 486 700 303 700C173 700 46 616 46 462ZM457 460C457 370 397 309 307 309C219 309 161 373 161 462C161 554 223 619 308 619C390 619 457 554 457 460Z" glyph-name="nine" horiz-adv-x="620" unicode="9" /><glyph d="M34 462C34 309 146 227 277 227C357 227 418 269 446 329H448C448 147 386 71 291 71C220 71 170 115 161 190H52C67 64 160 -10 289 -10C460 -10 560 135 560 355C560 550 474 700 291 700C161 700 34 616 34 462ZM445 460C445 370 385 309 295 309C207 309 149 373 149 462C149 554 211 619 296 619C378 619 445 554 445 460Z" glyph-name="nine.tf" horiz-adv-x="595" /><glyph d="M181 35 486 505H380L75 35ZM515 138V223H45V138ZM515 318V402H45V318Z" glyph-name="notequal" horiz-adv-x="560" unicode="&#8800;" /><glyph d="M181 113 486 583H380L75 113ZM515 216V301H45V216ZM515 396V480H45V396Z" glyph-name="notequal.case" horiz-adv-x="560" /><glyph d="M176 0V300C176 382 209 428 276 428C343 428 376 386 376 293V0H485V325C485 435 431 510 321 510C248 510 196 472 175 402H173V500H67V0ZM424 592V675C394 649 366 639 337 639C290 639 262 690 205 690C176 690 148 678 118 654V571C148 597 176 607 205 607C252 607 280 556 337 556C366 556 394 568 424 592Z" glyph-name="ntilde" horiz-adv-x="548" unicode="&#241;" /><glyph d="M450 0 589 690H499L360 0ZM617 186 640 264H51L28 186ZM210 0 349 690H259L120 0ZM672 422 695 500H106L83 422Z" glyph-name="numbersign" horiz-adv-x="724" unicode="#" /><glyph d="M529 250C529 385 436 510 284 510C132 510 39 385 39 250C39 115 132 -10 284 -10C436 -10 529 115 529 250ZM154 250C154 357 201 429 284 429C368 429 415 357 415 250C415 144 368 71 284 71C201 71 154 144 154 250Z" glyph-name="o" horiz-adv-x="568" unicode="o" /><glyph d="M529 250C529 385 436 510 284 510C132 510 39 385 39 250C39 115 132 -10 284 -10C436 -10 529 115 529 250ZM154 250C154 357 201 429 284 429C368 429 415 357 415 250C415 144 368 71 284 71C201 71 154 144 154 250ZM303 555 455 690H307L203 555Z" glyph-name="oacute" horiz-adv-x="568" unicode="&#243;" /><glyph d="M529 250C529 385 436 510 284 510C132 510 39 385 39 250C39 115 132 -10 284 -10C436 -10 529 115 529 250ZM154 250C154 357 201 429 284 429C368 429 415 357 415 250C415 144 368 71 284 71C201 71 154 144 154 250ZM285 620C248 620 219 639 219 690H145C145 617 192 555 285 555C377 555 425 617 425 690H351C351 639 322 620 285 620Z" glyph-name="obreve" horiz-adv-x="568" unicode="&#335;" /><glyph d="M224 555 285 643 345 555H469L338 690H232L101 555ZM529 250C529 385 436 510 284 510C132 510 39 385 39 250C39 115 132 -10 284 -10C436 -10 529 115 529 250ZM154 250C154 357 201 429 284 429C368 429 415 357 415 250C415 144 368 71 284 71C201 71 154 144 154 250Z" glyph-name="ocircumflex" horiz-adv-x="568" unicode="&#244;" /><glyph d="M529 250C529 385 436 510 284 510C132 510 39 385 39 250C39 115 132 -10 284 -10C436 -10 529 115 529 250ZM154 250C154 357 201 429 284 429C368 429 415 357 415 250C415 144 368 71 284 71C201 71 154 144 154 250ZM131 568H247V679H131ZM322 568H438V679H322Z" glyph-name="odieresis" horiz-adv-x="568" unicode="&#246;" /><glyph d="M529 250C529 385 436 510 284 510C132 510 39 385 39 250C39 115 132 -10 284 -10C436 -10 529 115 529 250ZM154 250C154 357 201 429 284 429C368 429 415 357 415 250C415 144 368 71 284 71C201 71 154 144 154 250ZM343 -168V-57H227V-168Z" glyph-name="odotaccent" horiz-adv-x="568" unicode="&#559;" /><glyph d="M529 250C529 385 436 510 284 510C132 510 39 385 39 250C39 115 132 -10 284 -10C436 -10 529 115 529 250ZM154 250C154 357 201 429 284 429C368 429 415 357 415 250C415 144 368 71 284 71C201 71 154 144 154 250ZM875 155H766C754 115 726 71 661 71C585 71 532 124 527 215H884C899 389 801 510 652 510C503 510 418 388 418 250C418 112 505 -10 654 -10C776 -10 854 56 875 155ZM652 429C725 429 768 377 775 296H528C535 377 579 429 652 429Z" glyph-name="oe" horiz-adv-x="923.512" unicode="&#339;" /><glyph d="M96 0C53 -16 23 -48 23 -90C23 -152 82 -170 164 -170H205V-102H186C142 -102 120 -96 120 -69C120 -38 162 -17 205 0Z" glyph-name="ogonek" horiz-adv-x="227" unicode="&#731;" /><glyph d="M96 0C53 -16 23 -48 23 -90C23 -152 82 -170 164 -170H208V-96H190C146 -96 126 -94 126 -68C126 -36 168 -17 211 0Z" glyph-name="ogonek.case" horiz-adv-x="234" /><glyph d="M529 250C529 385 436 510 284 510C132 510 39 385 39 250C39 115 132 -10 284 -10C436 -10 529 115 529 250ZM154 250C154 357 201 429 284 429C368 429 415 357 415 250C415 144 368 71 284 71C201 71 154 144 154 250ZM352 555 248 690H101L253 555Z" glyph-name="ograve" horiz-adv-x="568" unicode="&#242;" /><glyph d="M529 250C529 385 436 510 284 510C132 510 39 385 39 250C39 115 132 -10 284 -10C436 -10 529 115 529 250ZM154 250C154 357 201 429 284 429C368 429 415 357 415 250C415 144 368 71 284 71C201 71 154 144 154 250ZM218 555 363 690H215L118 555ZM404 555 549 690H402L305 555Z" glyph-name="ohungarumlaut" horiz-adv-x="568" unicode="&#337;" /><glyph d="M529 250C529 385 436 510 284 510C132 510 39 385 39 250C39 115 132 -10 284 -10C436 -10 529 115 529 250ZM154 250C154 357 201 429 284 429C368 429 415 357 415 250C415 144 368 71 284 71C201 71 154 144 154 250ZM129 580H440V666H129Z" glyph-name="omacron" horiz-adv-x="568" unicode="&#333;" /><glyph d="M449 0V81H47V0ZM314 0V690H228L227 684C217 621 184 587 86 587H47V506H205V0Z" glyph-name="one" horiz-adv-x="464" unicode="1" /><glyph d="M287 0V690H201L200 684C190 621 157 587 59 587H20V506H178V0Z" glyph-name="one.ss01" horiz-adv-x="371" /><glyph d="M515 0V81H113V0ZM380 0V690H294L293 684C283 621 250 587 152 587H113V506H271V0Z" glyph-name="one.tf" horiz-adv-x="595" /><glyph d="M9 0H120L575 500H464ZM537 250C537 385 444 510 292 510C140 510 47 385 47 250C47 115 140 -10 292 -10C444 -10 537 115 537 250ZM162 250C162 357 209 429 292 429C376 429 423 357 423 250C423 144 376 71 292 71C209 71 162 144 162 250Z" glyph-name="oslash" horiz-adv-x="584" unicode="&#248;" /><glyph d="M529 250C529 385 436 510 284 510C132 510 39 385 39 250C39 115 132 -10 284 -10C436 -10 529 115 529 250ZM154 250C154 357 201 429 284 429C368 429 415 357 415 250C415 144 368 71 284 71C201 71 154 144 154 250ZM438 592V675C408 649 380 639 351 639C304 639 276 690 219 690C190 690 162 678 132 654V571C162 597 190 607 219 607C266 607 294 556 351 556C380 556 408 568 438 592Z" glyph-name="otilde" horiz-adv-x="568" unicode="&#245;" /><glyph d="M174 -170V105H177C201 36 259 -10 335 -10C471 -10 545 110 545 250C545 390 468 510 335 510C259 510 201 465 177 396H174V500H67V-170ZM170 250C170 357 216 429 300 429C383 429 430 357 430 250C430 144 383 71 300 71C216 71 170 144 170 250Z" glyph-name="p" horiz-adv-x="586" unicode="p" /><glyph d="M298 0V609H399V0H497V690H200C106 690 29 613 29 519C29 425 106 348 200 348V0Z" glyph-name="paragraph" horiz-adv-x="587" unicode="&#182;" /><glyph d="M44 260C44 43 125 -96 183 -170H277C234 -96 155 69 155 260C155 451 234 616 277 690H183C125 616 44 477 44 260Z" glyph-name="parenleft" horiz-adv-x="302" unicode="(" /><glyph d="M45 345C45 200 104 70 163 0H271C217 90 164 180 164 345C164 510 217 600 271 690H163C104 620 45 490 45 345Z" glyph-name="parenleft.case" horiz-adv-x="302" /><glyph d="M258 260C258 43 177 -96 119 -170H25C68 -96 147 69 147 260C147 451 68 616 25 690H119C177 616 258 477 258 260Z" glyph-name="parenright" horiz-adv-x="302" unicode=")" /><glyph d="M257 345C257 200 198 70 139 0H31C85 90 138 180 138 345C138 510 85 600 31 690H139C198 620 257 490 257 345Z" glyph-name="parenright.case" horiz-adv-x="302" /><glyph d="M309 0 680 690H583L212 0ZM361 505C361 613 297 700 195 700C93 700 30 613 30 505C30 398 93 310 195 310C297 310 361 398 361 505ZM117 505C117 583 145 635 195 635C246 635 274 583 274 505C274 428 246 376 195 376C145 376 117 428 117 505ZM863 185C863 293 799 380 697 380C595 380 532 293 532 185C532 78 595 -10 697 -10C799 -10 863 78 863 185ZM619 185C619 263 647 315 697 315C748 315 776 263 776 185C776 108 748 56 697 56C647 56 619 108 619 185Z" glyph-name="percent" horiz-adv-x="894" unicode="%" /><glyph d="M177 0V112H61V0Z" glyph-name="period" horiz-adv-x="238" unicode="." /><glyph d="M356 0V112H240V0Z" glyph-name="period.tf" horiz-adv-x="595" /><glyph d="M178 205V317H62V205Z" glyph-name="periodcentered" horiz-adv-x="240" unicode="&#183;" /><glyph d="M177 293V405H61V293Z" glyph-name="periodcentered.case" horiz-adv-x="238" /><glyph d="M1242 185C1242 293 1178 380 1076 380C974 380 911 293 911 185C911 78 974 -10 1076 -10C1178 -10 1242 78 1242 185ZM998 185C998 263 1026 315 1076 315C1127 315 1155 263 1155 185C1155 108 1127 56 1076 56C1026 56 998 108 998 185ZM309 0 680 690H583L212 0ZM361 505C361 613 297 700 195 700C93 700 30 613 30 505C30 398 93 310 195 310C297 310 361 398 361 505ZM117 505C117 583 145 635 195 635C246 635 274 583 274 505C274 428 246 376 195 376C145 376 117 428 117 505ZM863 185C863 293 799 380 697 380C595 380 532 293 532 185C532 78 595 -10 697 -10C799 -10 863 78 863 185ZM619 185C619 263 647 315 697 315C748 315 776 263 776 185C776 108 748 56 697 56C647 56 619 108 619 185Z" glyph-name="perthousand" horiz-adv-x="1272" unicode="&#8240;" /><glyph d="M515 228V313H323V505H238V313H45V228H238V35H323V228Z" glyph-name="plus" horiz-adv-x="560" unicode="+" /><glyph d="M515 306V391H323V583H238V391H45V306H238V113H323V306Z" glyph-name="plus.case" horiz-adv-x="560" /><glyph d="M515 35V120H323V261H515V345H323V505H238V345H45V261H238V120H45V35Z" glyph-name="plusminus" horiz-adv-x="560" unicode="&#177;" /><glyph d="M515 113V198H323V339H515V423H323V583H238V423H45V339H238V198H45V113Z" glyph-name="plusminus.case" horiz-adv-x="560" /><glyph d="M518 -170V500H411V396H408C384 465 326 510 250 510C117 510 40 390 40 250C40 110 114 -10 250 -10C326 -10 384 36 408 105H411V-170ZM155 250C155 357 202 429 285 429C369 429 415 357 415 250C415 144 369 71 285 71C202 71 155 144 155 250Z" glyph-name="q" horiz-adv-x="585" unicode="q" /><glyph d="M295 200C295 266 313 297 363 337L402 369C449 408 485 443 485 523C485 634 384 700 260 700C136 700 32 629 29 479H138C140 559 175 619 257 619C329 619 371 578 371 516C371 474 347 448 313 420L274 389C207 334 187 292 187 200ZM300 0V112H184V0Z" glyph-name="question" horiz-adv-x="518" unicode="?" /><glyph d="M281 200C281 266 299 297 349 337L388 369C435 408 471 443 471 523C471 634 370 700 246 700C122 700 18 629 15 479H124C126 559 161 619 243 619C315 619 357 578 357 516C357 474 333 448 299 420L260 389C193 334 173 292 173 200ZM286 0V112H170V0Z" glyph-name="question.case" horiz-adv-x="491" /><glyph d="M219 300C219 234 201 203 151 163L112 131C65 92 29 57 29 -23C29 -134 130 -200 254 -200C378 -200 482 -129 485 21H376C374 -59 339 -119 257 -119C185 -119 143 -78 143 -16C143 26 167 52 201 80L240 111C307 166 327 208 327 300ZM214 500V388H330V500Z" glyph-name="questiondown" horiz-adv-x="511" unicode="&#191;" /><glyph d="M211 490C211 424 193 393 143 353L104 321C57 282 21 247 21 167C21 56 122 -10 246 -10C370 -10 474 61 477 211H368C366 131 331 71 249 71C177 71 135 112 135 174C135 216 159 242 193 270L232 301C299 356 319 398 319 490ZM206 690V578H322V690Z" glyph-name="questiondown.case" horiz-adv-x="491" /><glyph d="M70 444H146L164 690H51ZM236 444H312L330 690H217Z" glyph-name="quotedbl" horiz-adv-x="381" unicode="&quot;" /><glyph d="M105 -115 178 0V112H62V0H105L32 -115ZM276 -115 349 0V112H233V0H276L203 -115Z" glyph-name="quotedblbase" horiz-adv-x="411" unicode="&#8222;" /><glyph d="M340 464V575H297L370 690H297L224 575V464ZM169 464V575H126L199 690H126L53 575V464Z" glyph-name="quotedblleft" horiz-adv-x="407" unicode="&#8220;" /><glyph d="M76 690V579H119L46 464H119L192 579V690ZM247 690V579H290L217 464H290L363 579V690Z" glyph-name="quotedblright" horiz-adv-x="404" unicode="&#8221;" /><glyph d="M169 464V575H126L199 690H126L53 575V464Z" glyph-name="quoteleft" horiz-adv-x="236" unicode="&#8216;" /><glyph d="M76 690V579H119L46 464H119L192 579V690Z" glyph-name="quoteright" horiz-adv-x="233" unicode="&#8217;" /><glyph d="M105 -115 178 0V112H62V0H105L32 -115Z" glyph-name="quotesinglbase" horiz-adv-x="240" unicode="&#8218;" /><glyph d="M70 444H146L164 690H51Z" glyph-name="quotesingle" horiz-adv-x="215" unicode="'" /><glyph d="M176 0V283C176 374 215 401 308 401H325V510C248 510 196 472 175 402H173V500H67V0Z" glyph-name="r" horiz-adv-x="342" unicode="r" /><glyph d="M176 0V283C176 374 215 401 308 401H325V510C248 510 196 472 175 402H173V500H67V0ZM182 555 334 690H186L82 555Z" glyph-name="racute" horiz-adv-x="342" unicode="&#341;" /><glyph d="M176 0V283C176 374 215 401 308 401H325V510C248 510 196 472 175 402H173V500H67V0ZM232 555 363 690H239L179 603L118 690H-5L126 555Z" glyph-name="rcaron" horiz-adv-x="342" unicode="&#345;" /><glyph d="M176 0V283C176 374 215 401 308 401H325V510C248 510 196 472 175 402H173V500H67V0ZM109 -252 180 -162V-50H64V-162H107L36 -252Z" glyph-name="rcommaaccent" horiz-adv-x="342" unicode="&#343;" /><glyph d="M752 345C752 540 592 700 397 700C201 700 42 540 42 345C42 150 201 -10 397 -10C592 -10 752 150 752 345ZM559 138 464 323H375L470 138ZM120 345C120 498 244 623 397 623C550 623 675 498 675 345C675 193 550 68 397 68C244 68 120 193 120 345ZM338 138V298H383C487 298 561 347 561 426C561 506 487 554 383 554H256V138ZM338 488H389C447 488 473 465 473 426C473 387 447 364 389 364H338Z" glyph-name="registered" horiz-adv-x="794" unicode="&#174;" /><glyph d="M105 530C149 530 187 565 187 612C187 660 149 694 105 694C59 694 23 660 23 612C23 565 59 530 105 530ZM105 586C91 586 79 596 79 612C79 628 91 638 105 638C119 638 131 628 131 612C131 596 119 586 105 586Z" glyph-name="ring" horiz-adv-x="210" unicode="&#730;" /><glyph d="M105 715C149 715 187 750 187 797C187 845 149 879 105 879C59 879 23 845 23 797C23 750 59 715 105 715ZM105 771C91 771 79 781 79 797C79 813 91 823 105 823C119 823 131 813 131 797C131 781 119 771 105 771Z" glyph-name="ring.case" horiz-adv-x="210" /><glyph d="M459 144C459 219 423 273 315 297L247 312C183 327 155 338 155 371C155 408 192 429 240 429C289 429 334 410 341 352H449C442 443 358 510 240 510C133 510 45 453 45 362C45 283 103 236 201 215L269 200C327 187 350 164 350 136C350 93 304 71 255 71C201 71 150 107 144 171H36C43 79 117 -10 254 -10C369 -10 459 47 459 144Z" glyph-name="s" horiz-adv-x="497" unicode="s" /><glyph d="M459 144C459 219 423 273 315 297L247 312C183 327 155 338 155 371C155 408 192 429 240 429C289 429 334 410 341 352H449C442 443 358 510 240 510C133 510 45 453 45 362C45 283 103 236 201 215L269 200C327 187 350 164 350 136C350 93 304 71 255 71C201 71 150 107 144 171H36C43 79 117 -10 254 -10C369 -10 459 47 459 144ZM261 555 413 690H265L161 555Z" glyph-name="sacute" horiz-adv-x="497" unicode="&#347;" /><glyph d="M459 144C459 219 423 273 315 297L247 312C183 327 155 338 155 371C155 408 192 429 240 429C289 429 334 410 341 352H449C442 443 358 510 240 510C133 510 45 453 45 362C45 283 103 236 201 215L269 200C327 187 350 164 350 136C350 93 304 71 255 71C201 71 150 107 144 171H36C43 79 117 -10 254 -10C369 -10 459 47 459 144ZM292 555 423 690H299L239 603L178 690H55L186 555Z" glyph-name="scaron" horiz-adv-x="497" unicode="&#353;" /><glyph d="M459 144C459 219 423 273 315 297L247 312C183 327 155 338 155 371C155 408 192 429 240 429C289 429 334 410 341 352H449C442 443 358 510 240 510C133 510 45 453 45 362C45 283 103 236 201 215L269 200C327 187 350 164 350 136C350 93 304 71 255 71C201 71 150 107 144 171H36C43 79 117 -10 254 -10C369 -10 459 47 459 144ZM270 -174C311 -174 332 -148 332 -117C332 -88 311 -61 270 -61H249L286 10H232L175 -105H259C279 -105 288 -108 288 -117C288 -127 279 -130 259 -130H175V-174Z" glyph-name="scedilla" horiz-adv-x="497" unicode="&#351;" /><glyph d="M459 144C459 219 423 273 315 297L247 312C183 327 155 338 155 371C155 408 192 429 240 429C289 429 334 410 341 352H449C442 443 358 510 240 510C133 510 45 453 45 362C45 283 103 236 201 215L269 200C327 187 350 164 350 136C350 93 304 71 255 71C201 71 150 107 144 171H36C43 79 117 -10 254 -10C369 -10 459 47 459 144ZM178 555 239 643 299 555H423L292 690H186L55 555Z" glyph-name="scircumflex" horiz-adv-x="497" unicode="&#349;" /><glyph d="M459 144C459 219 423 273 315 297L247 312C183 327 155 338 155 371C155 408 192 429 240 429C289 429 334 410 341 352H449C442 443 358 510 240 510C133 510 45 453 45 362C45 283 103 236 201 215L269 200C327 187 350 164 350 136C350 93 304 71 255 71C201 71 150 107 144 171H36C43 79 117 -10 254 -10C369 -10 459 47 459 144ZM240 -252 311 -162V-50H195V-162H238L167 -252Z" glyph-name="scommaaccent" horiz-adv-x="497" unicode="&#537;" /><glyph d="M544 227C544 307 500 369 386 411L272 453C208 477 177 497 177 540C177 587 219 619 281 619C349 619 403 575 407 485H519C512 617 418 700 285 700C158 700 63 630 63 531C63 438 121 393 197 365L311 324C399 292 430 264 430 216C430 166 385 134 348 134V74C455 74 544 138 544 227ZM522 -11C522 82 464 127 388 155L274 197C186 229 155 257 155 305C155 354 200 387 237 387V446C130 446 41 382 41 294C41 213 85 151 199 109L313 68C377 44 408 24 408 -20C408 -67 366 -99 304 -99C236 -99 182 -55 178 35H66C73 -97 167 -180 300 -180C427 -180 522 -110 522 -11Z" glyph-name="section" horiz-adv-x="585" unicode="&#167;" /><glyph d="M125 -115 198 0V112H82V0H125L52 -115ZM198 389V500H82V389Z" glyph-name="semicolon" horiz-adv-x="270" unicode=";" /><glyph d="M190 0 478 624V690H20V609H359L77 0Z" glyph-name="seven" horiz-adv-x="495" unicode="7" /><glyph d="M240 0 528 624V690H70V609H409L127 0Z" glyph-name="seven.tf" horiz-adv-x="595" /><glyph d="M574 228C574 381 462 463 331 463C251 463 190 421 162 361H160C160 543 222 619 317 619C388 619 438 575 447 500H556C541 626 448 700 319 700C148 700 48 555 48 335C48 140 134 -10 317 -10C447 -10 574 74 574 228ZM163 230C163 320 223 381 313 381C401 381 459 317 459 228C459 136 397 71 312 71C230 71 163 136 163 230Z" glyph-name="six" horiz-adv-x="620" unicode="6" /><glyph d="M561 228C561 381 449 463 318 463C238 463 177 421 149 361H147C147 543 209 619 304 619C375 619 425 575 434 500H543C528 626 435 700 306 700C135 700 35 555 35 335C35 140 121 -10 304 -10C434 -10 561 74 561 228ZM150 230C150 320 210 381 300 381C388 381 446 317 446 228C446 136 384 71 299 71C217 71 150 136 150 230Z" glyph-name="six.tf" horiz-adv-x="595" /><glyph d="M137 0 447 690H332L22 0Z" glyph-name="slash" horiz-adv-x="468" unicode="/" /><glyph d="M200 0 510 690H395L85 0Z" glyph-name="slash.tf" horiz-adv-x="595" /><glyph glyph-name="space" horiz-adv-x="233" unicode=" " /><glyph d="M194 93C251 142 291 182 291 246C291 357 183 412 183 498C183 561 229 607 309 607C395 607 439 551 445 474H560C550 605 457 700 305 700C164 700 65 613 65 503C65 398 172 350 172 244C172 187 132 148 65 93ZM552 0V93H65V0ZM468 292V385H48V292Z" glyph-name="sterling" horiz-adv-x="599" unicode="&#163;" /><glyph d="M326 0V81H264C226 81 211 93 211 135V419H330V500H211V614H102V500H19V419H102V110C102 37 142 0 220 0Z" glyph-name="t" horiz-adv-x="353" unicode="t" /><glyph d="M289 419H501V500H289ZM569 0V419H688V500H569V555C569 597 584 609 622 609H684V690H578C500 690 460 654 460 581V500H377V419H460V0ZM326 0V81H264C226 81 211 93 211 135V419H330V500H211V614H102V500H19V419H102V110C102 37 142 0 220 0Z" glyph-name="t_f" horiz-adv-x="702" /><glyph d="M289 419H501V500H289ZM679 0V81H617C579 81 564 93 564 135V419H683V500H564V614H455V500H372V419H455V110C455 37 495 0 573 0ZM326 0V81H264C226 81 211 93 211 135V419H330V500H211V614H102V500H19V419H102V110C102 37 142 0 220 0Z" glyph-name="t_t" horiz-adv-x="706" /><glyph d="M334 273V354H23V273ZM330 0V81H268C230 81 215 93 215 135V419H334V500H215V614H106V500H23V419H106V110C106 37 146 0 224 0Z" glyph-name="tbar" horiz-adv-x="359" unicode="&#359;" /><glyph d="M346 546 449 690H324L261 546ZM326 0V81H264C226 81 211 93 211 135V419H330V500H211V614H102V500H19V419H102V110C102 37 142 0 220 0Z" glyph-name="tcaron" horiz-adv-x="353" unicode="&#357;" /><glyph d="M326 0V81H264C226 81 211 93 211 135V419H330V500H211V614H102V500H19V419H102V110C102 37 142 0 220 0ZM170 -252 241 -162V-50H125V-162H168L97 -252Z" glyph-name="tcedilla" horiz-adv-x="353" unicode="&#355;" /><glyph d="M326 0V81H264C226 81 211 93 211 135V419H330V500H211V614H102V500H19V419H102V110C102 37 142 0 220 0ZM170 -252 241 -162V-50H125V-162H168L97 -252Z" glyph-name="tcommaaccent" horiz-adv-x="353" unicode="&#539;" /><glyph d="M174 -170V105H177C201 36 259 -10 335 -10C471 -10 545 110 545 250C545 390 468 510 335 510C259 510 201 465 177 396H174V690H67V-170ZM170 250C170 357 220 429 301 429C382 429 430 357 430 250C430 144 381 71 301 71C220 71 170 144 170 250Z" glyph-name="thorn" horiz-adv-x="586" unicode="&#254;" /><glyph d="M282 -10C414 -10 522 59 522 188C522 291 443 342 349 356V358C436 373 510 430 510 518C510 633 407 700 279 700C165 700 65 633 50 494H159C165 571 202 619 281 619C356 619 395 574 395 519C395 434 336 399 205 397V316C343 314 407 283 407 188C407 122 359 71 286 71C194 71 156 132 150 212H41C57 64 152 -10 282 -10Z" glyph-name="three" horiz-adv-x="571" unicode="3" /><glyph d="M294 -10C426 -10 534 59 534 188C534 291 455 342 361 356V358C448 373 522 430 522 518C522 633 419 700 291 700C177 700 77 633 62 494H171C177 571 214 619 293 619C368 619 407 574 407 519C407 434 348 399 217 397V316C355 314 419 283 419 188C419 122 371 71 298 71C206 71 168 132 162 212H53C69 64 164 -10 294 -10Z" glyph-name="three.tf" horiz-adv-x="595" /><glyph d="M324 592V675C294 649 266 639 237 639C190 639 162 690 105 690C76 690 48 678 18 654V571C48 597 76 607 105 607C152 607 180 556 237 556C266 556 294 568 324 592Z" glyph-name="tilde" horiz-adv-x="341" unicode="&#732;" /><glyph d="M329 777V860C299 834 271 824 242 824C195 824 167 875 110 875C81 875 53 863 23 839V756C53 782 81 792 110 792C157 792 185 741 242 741C271 741 299 753 329 777Z" glyph-name="tilde.case" horiz-adv-x="351" /><glyph d="M309 632V690H31V632H135V374H205V632ZM407 644 457 374H512V420L461 690H337V374H407ZM617 644V374H687V690H562L512 420V374H566Z" glyph-name="trademark" horiz-adv-x="760" unicode="&#8482;" /><glyph d="M526 0V81H201L389 273C476 362 520 422 520 502C520 614 426 700 283 700C154 700 45 621 45 467H154C154 566 203 619 283 619C366 619 407 565 407 496C407 444 378 409 315 344L42 66V0Z" glyph-name="two" horiz-adv-x="571" unicode="2" /><glyph d="M538 0V81H213L401 273C488 362 532 422 532 502C532 614 438 700 295 700C166 700 57 621 57 467H166C166 566 215 619 295 619C378 619 419 565 419 496C419 444 390 409 327 344L54 66V0Z" glyph-name="two.tf" horiz-adv-x="595" /><glyph d="M368 98H370V0H476V500H367V201C367 119 337 73 269 73C204 73 172 115 172 208V500H63V175C63 65 117 -10 228 -10C300 -10 347 29 368 98Z" glyph-name="u" horiz-adv-x="543" unicode="u" /><glyph d="M368 98H370V0H476V500H367V201C367 119 337 73 269 73C204 73 172 115 172 208V500H63V175C63 65 117 -10 228 -10C300 -10 347 29 368 98ZM289 555 441 690H293L189 555Z" glyph-name="uacute" horiz-adv-x="543" unicode="&#250;" /><glyph d="M368 98H370V0H476V500H367V201C367 119 337 73 269 73C204 73 172 115 172 208V500H63V175C63 65 117 -10 228 -10C300 -10 347 29 368 98ZM270 620C233 620 204 639 204 690H130C130 617 177 555 270 555C362 555 410 617 410 690H336C336 639 307 620 270 620Z" glyph-name="ubreve" horiz-adv-x="543" unicode="&#365;" /><glyph d="M368 98H370V0H476V500H367V201C367 119 337 73 269 73C204 73 172 115 172 208V500H63V175C63 65 117 -10 228 -10C300 -10 347 29 368 98ZM209 555 270 643 330 555H454L323 690H217L86 555Z" glyph-name="ucircumflex" horiz-adv-x="543" unicode="&#251;" /><glyph d="M368 98H370V0H476V500H367V201C367 119 337 73 269 73C204 73 172 115 172 208V500H63V175C63 65 117 -10 228 -10C300 -10 347 29 368 98ZM117 568H233V679H117ZM308 568H424V679H308Z" glyph-name="udieresis" horiz-adv-x="543" unicode="&#252;" /><glyph d="M368 98H370V0H476V500H367V201C367 119 337 73 269 73C204 73 172 115 172 208V500H63V175C63 65 117 -10 228 -10C300 -10 347 29 368 98ZM319 -168V-57H203V-168Z" glyph-name="udotaccent" horiz-adv-x="543" unicode="&#7909;" /><glyph d="M368 98H370V0H476V500H367V201C367 119 337 73 269 73C204 73 172 115 172 208V500H63V175C63 65 117 -10 228 -10C300 -10 347 29 368 98ZM350 555 246 690H99L251 555Z" glyph-name="ugrave" horiz-adv-x="543" unicode="&#249;" /><glyph d="M368 98H370V0H476V500H367V201C367 119 337 73 269 73C204 73 172 115 172 208V500H63V175C63 65 117 -10 228 -10C300 -10 347 29 368 98ZM202 555 347 690H199L102 555ZM388 555 533 690H386L289 555Z" glyph-name="uhungarumlaut" horiz-adv-x="543" unicode="&#369;" /><glyph d="M368 98H370V0H476V500H367V201C367 119 337 73 269 73C204 73 172 115 172 208V500H63V175C63 65 117 -10 228 -10C300 -10 347 29 368 98ZM115 580H426V666H115Z" glyph-name="umacron" horiz-adv-x="543" unicode="&#363;" /><glyph d="M449 -81V0H26V-81Z" glyph-name="underscore" horiz-adv-x="475" unicode="_" /><glyph glyph-name="uni00A0" horiz-adv-x="233" unicode="&#160;" /><glyph d="M349 220V301H62V220Z" glyph-name="uni00AD" horiz-adv-x="411" unicode="&#173;" /><glyph d="M678 345C678 534 560 700 356 700C196 700 83 610 56 475H173C190 540 248 607 347 607C462 607 561 527 561 345C561 162 472 83 360 83C246 83 170 166 161 299H585V392H43C21 156 164 -10 360 -10C559 -10 678 156 678 345Z" glyph-name="uni018F" horiz-adv-x="722" unicode="&#399;" /><glyph d="M48 345H157C169 385 197 429 262 429C338 429 391 376 396 285H39C24 111 122 -10 271 -10C420 -10 505 112 505 250C505 388 418 510 269 510C147 510 69 444 48 345ZM271 71C198 71 155 123 148 204H395C388 123 344 71 271 71Z" glyph-name="uni0259" horiz-adv-x="544" unicode="&#601;" /><glyph d="M752 345C752 540 592 700 397 700C201 700 42 540 42 345C42 150 201 -10 397 -10C592 -10 752 150 752 345ZM120 345C120 498 244 623 397 623C550 623 675 498 675 345C675 193 550 68 397 68C244 68 120 193 120 345ZM351 138V292H404C524 292 585 343 585 423C585 504 524 554 404 554H269V138ZM351 488H410C476 488 498 463 498 423C498 383 476 358 410 358H351Z" glyph-name="uni2117" horiz-adv-x="794" unicode="&#8471;" /><glyph d="M75 0H575V500H75Z" glyph-name="uni25A0" horiz-adv-x="650" unicode="&#9632;" /><glyph d="M75 0H575V500H75ZM156 81V419H494V81Z" glyph-name="uni25A1" horiz-adv-x="650" unicode="&#9633;" /><glyph d="M325 -10C468 -10 585 107 585 250C585 393 468 510 325 510C182 510 65 393 65 250C65 107 182 -10 325 -10ZM325 71C227 71 146 152 146 250C146 348 227 429 325 429C423 429 504 348 504 250C504 152 423 71 325 71Z" glyph-name="uni25CB" horiz-adv-x="650" unicode="&#9675;" /><glyph d="M325 -10C468 -10 585 107 585 250C585 393 468 510 325 510C182 510 65 393 65 250C65 107 182 -10 325 -10Z" glyph-name="uni25CF" horiz-adv-x="650" unicode="&#9679;" /><glyph d="M370 0C327 -16 297 -48 297 -90C297 -152 356 -170 439 -170H477V-102H459C415 -102 393 -96 393 -69C393 -38 433 -17 476 0ZM368 98H370V0H476V500H367V201C367 119 337 73 269 73C204 73 172 115 172 208V500H63V175C63 65 117 -10 228 -10C300 -10 347 29 368 98Z" glyph-name="uogonek" horiz-adv-x="543" unicode="&#371;" /><glyph d="M368 98H370V0H476V500H367V201C367 119 337 73 269 73C204 73 172 115 172 208V500H63V175C63 65 117 -10 228 -10C300 -10 347 29 368 98ZM270 530C314 530 352 565 352 612C352 660 314 694 270 694C224 694 188 660 188 612C188 565 224 530 270 530ZM270 586C256 586 244 596 244 612C244 628 256 638 270 638C284 638 296 628 296 612C296 596 284 586 270 586Z" glyph-name="uring" horiz-adv-x="543" unicode="&#367;" /><glyph d="M368 98H370V0H476V500H367V201C367 119 337 73 269 73C204 73 172 115 172 208V500H63V175C63 65 117 -10 228 -10C300 -10 347 29 368 98ZM423 592V675C393 649 365 639 336 639C289 639 261 690 204 690C175 690 147 678 117 654V571C147 597 175 607 204 607C251 607 279 556 336 556C365 556 393 568 423 592Z" glyph-name="utilde" horiz-adv-x="543" unicode="&#361;" /><glyph d="M362 0 498 500H389L261 32V0ZM261 0V32L134 500H24L161 0Z" glyph-name="v" horiz-adv-x="523" unicode="v" /><glyph d="M713 0 819 500H710L610 32V0ZM238 0V32L139 500H29L135 0ZM334 0 424 468V500H328L238 32V0ZM610 0V32L520 500H424V468L514 0Z" glyph-name="w" horiz-adv-x="848" unicode="w" /><glyph d="M713 0 819 500H710L610 32V0ZM238 0V32L139 500H29L135 0ZM334 0 424 468V500H328L238 32V0ZM610 0V32L520 500H424V468L514 0ZM1489 0 1595 500H1486L1386 32V0ZM1014 0V32L915 500H805L911 0ZM1110 0 1200 468V500H1104L1014 32V0ZM1386 0V32L1296 500H1200V468L1290 0ZM2265 0 2371 500H2262L2162 32V0ZM1790 0V32L1691 500H1581L1687 0ZM1886 0 1976 468V500H1880L1790 32V0ZM2162 0V32L2072 500H1976V468L2066 0Z" glyph-name="w_w_w" horiz-adv-x="2400" /><glyph d="M713 0 819 500H710L610 32V0ZM238 0V32L139 500H29L135 0ZM334 0 424 468V500H328L238 32V0ZM610 0V32L520 500H424V468L514 0ZM453 555 605 690H457L353 555Z" glyph-name="wacute" horiz-adv-x="848" unicode="&#7811;" /><glyph d="M713 0 819 500H710L610 32V0ZM238 0V32L139 500H29L135 0ZM334 0 424 468V500H328L238 32V0ZM610 0V32L520 500H424V468L514 0ZM364 555 425 643 485 555H609L478 690H372L241 555Z" glyph-name="wcircumflex" horiz-adv-x="848" unicode="&#373;" /><glyph d="M713 0 819 500H710L610 32V0ZM238 0V32L139 500H29L135 0ZM334 0 424 468V500H328L238 32V0ZM610 0V32L520 500H424V468L514 0ZM271 568H387V679H271ZM462 568H578V679H462Z" glyph-name="wdieresis" horiz-adv-x="848" unicode="&#7813;" /><glyph d="M713 0 819 500H710L610 32V0ZM238 0V32L139 500H29L135 0ZM334 0 424 468V500H328L238 32V0ZM610 0V32L520 500H424V468L514 0ZM486 555 382 690H235L387 555Z" glyph-name="wgrave" horiz-adv-x="848" unicode="&#7809;" /><glyph d="M513 0 294 309 224 243 391 0ZM125 0 291 243 222 309 2 0ZM293 294 150 500H27L213 242ZM488 500H366L223 294L302 242Z" glyph-name="x" horiz-adv-x="515" unicode="x" /><glyph d="M144 500H25L170 261L10 0H129L287 261ZM406 500 263 261 421 0H540L380 261L525 500Z" glyph-name="x.ss05" horiz-adv-x="550" /><glyph d="M288 -170 515 500H406L180 -170ZM277 58 124 500H14L167 58Z" glyph-name="y" horiz-adv-x="523" unicode="y" /><glyph d="M288 -170 515 500H406L180 -170ZM277 58 124 500H14L167 58ZM281 555 433 690H285L181 555Z" glyph-name="yacute" horiz-adv-x="523" unicode="&#253;" /><glyph d="M288 -170 515 500H406L180 -170ZM277 58 124 500H14L167 58ZM204 555 265 643 325 555H449L318 690H212L81 555Z" glyph-name="ycircumflex" horiz-adv-x="523" unicode="&#375;" /><glyph d="M288 -170 515 500H406L180 -170ZM277 58 124 500H14L167 58ZM111 568H227V679H111ZM302 568H418V679H302Z" glyph-name="ydieresis" horiz-adv-x="523" unicode="&#255;" /><glyph d="M593 302V383H87V302ZM593 161V242H87V161ZM653 690H525L299 353L395 304ZM397 0V352H284V0ZM381 353 155 690H27L285 304Z" glyph-name="yen" horiz-adv-x="680" unicode="&#165;" /><glyph d="M288 -170 515 500H406L180 -170ZM277 58 124 500H14L167 58ZM340 555 236 690H89L241 555Z" glyph-name="ygrave" horiz-adv-x="523" unicode="&#7923;" /><glyph d="M288 -170 515 500H406L180 -170ZM277 58 124 500H14L167 58ZM110 580H421V666H110Z" glyph-name="ymacron" horiz-adv-x="523" unicode="&#563;" /><glyph d="M430 0V81H170L420 422V500H43V419H287L37 78V0Z" glyph-name="z" horiz-adv-x="466" unicode="z" /><glyph d="M430 0V81H170L420 422V500H43V419H287L37 78V0ZM254 555 406 690H258L154 555Z" glyph-name="zacute" horiz-adv-x="466" unicode="&#378;" /><glyph d="M430 0V81H170L420 422V500H43V419H287L37 78V0ZM285 555 416 690H292L232 603L171 690H48L179 555Z" glyph-name="zcaron" horiz-adv-x="466" unicode="&#382;" /><glyph d="M430 0V81H170L420 422V500H43V419H287L37 78V0ZM290 568V679H174V568Z" glyph-name="zdotaccent" horiz-adv-x="466" unicode="&#380;" /><glyph d="M588 345C588 560 479 700 317 700C156 700 47 560 47 345C47 131 156 -10 317 -10C479 -10 588 131 588 345ZM162 345C162 512 213 619 317 619C421 619 474 511 474 345C474 179 421 71 317 71C213 71 162 179 162 345Z" glyph-name="zero" horiz-adv-x="636" unicode="0" /><glyph d="M568 345C568 560 458 700 297 700C135 700 27 560 27 345C27 131 135 -10 297 -10C458 -10 568 131 568 345ZM141 345C141 512 193 619 297 619C401 619 453 511 453 345C453 179 401 71 297 71C193 71 141 179 141 345Z" glyph-name="zero.tf" horiz-adv-x="595" /><glyph d="M526 563 439 612 111 131 198 82ZM588 345C588 560 479 700 317 700C156 700 47 560 47 345C47 131 156 -10 317 -10C479 -10 588 131 588 345ZM162 345C162 512 213 619 317 619C421 619 474 511 474 345C474 179 421 71 317 71C213 71 162 179 162 345Z" glyph-name="zeroslashed" horiz-adv-x="636" /><glyph d="M505 563 418 612 90 131 177 82ZM568 345C568 560 458 700 297 700C135 700 27 560 27 345C27 131 135 -10 297 -10C458 -10 568 131 568 345ZM141 345C141 512 193 619 297 619C401 619 453 511 453 345C453 179 401 71 297 71C193 71 141 179 141 345Z" glyph-name="zeroslashed.tf" horiz-adv-x="595" /></font>
</defs>
</svg>
