<?xml version="1.0" standalone="no"?><!DOCTYPE svg PUBLIC "-//W3C//DTD SVG 1.1//EN" "http://www.w3.org/Graphics/SVG/1.1/DTD/svg11.dtd" ><svg version="1.1" xmlns="http://www.w3.org/2000/svg"><defs><font horiz-adv-x="0" id="font"><font-face ascent="820" bbox="-89 -259 2384 885" cap-height="690" descent="-180" font-family="Everett" font-weight="700" units-per-em="1000" x-height="500" /><missing-glyph d="M81 678H453V12H81ZM69 0H465V690H69ZM81 678V668L443 12H453V22L91 678ZM453 678H443L81 22V12H91L453 668Z" horiz-adv-x="534" /><glyph glyph-name=".null" horiz-adv-x="0" /><glyph d="M131 179H555V295H131ZM222 690 0 0H140L348 650V690ZM474 690H348V650L556 0H696Z" glyph-name="A" horiz-adv-x="696" unicode="A" /><glyph d="M458 576H883V690H458ZM468 297H874V411H468ZM568 0H891V114H568ZM131 179H555V295H131ZM222 690 0 0H140L348 650V690ZM474 690H348V650L556 0H696Z" glyph-name="AE" horiz-adv-x="939" unicode="&#198;" /><glyph d="M131 179H555V295H131ZM222 690 0 0H140L348 650V690ZM474 690H348V650L556 0H696ZM388 740 544 875H370L267 740Z" glyph-name="Aacute" horiz-adv-x="696" unicode="&#193;" /><glyph d="M131 179H555V295H131ZM222 690 0 0H140L348 650V690ZM474 690H348V650L556 0H696ZM348 820C314 820 286 836 286 875H201C201 802 257 740 348 740C439 740 495 802 495 875H410C410 836 382 820 348 820Z" glyph-name="Abreve" horiz-adv-x="696" unicode="&#258;" /><glyph d="M131 179H555V295H131ZM222 690 0 0H140L348 650V690ZM474 690H348V650L556 0H696ZM149 740H298L348 822L398 740H547L409 875H287Z" glyph-name="Acircumflex" horiz-adv-x="696" unicode="&#194;" /><glyph d="M131 179H555V295H131ZM222 690 0 0H140L348 650V690ZM474 690H348V650L556 0H696ZM180 745H315V871H180ZM381 745H516V871H381Z" glyph-name="Adieresis" horiz-adv-x="696" unicode="&#196;" /><glyph d="M131 179H555V295H131ZM222 690 0 0H140L348 650V690ZM474 690H348V650L556 0H696ZM293 740H414L311 875H137Z" glyph-name="Agrave" horiz-adv-x="696" unicode="&#192;" /><glyph d="M131 179H555V295H131ZM222 690 0 0H140L348 650V690ZM474 690H348V650L556 0H696ZM187 755H508V861H187Z" glyph-name="Amacron" horiz-adv-x="696" unicode="&#256;" /><glyph d="M131 179H555V295H131ZM222 690 0 0H140L348 650V690ZM474 690H348V650L556 0H696ZM556 0C513 -16 483 -51 483 -90C483 -150 538 -170 636 -170H691V-84H670C626 -84 609 -83 609 -62C609 -36 653 -17 696 0Z" glyph-name="Aogonek" horiz-adv-x="696" unicode="&#260;" /><glyph d="M131 179H555V295H131ZM222 690 0 0H140L348 650V690ZM474 690H348V650L556 0H696ZM348 715C392 715 430 749 430 797C430 845 392 879 348 879C302 879 266 845 266 797C266 749 302 715 348 715ZM348 776C338 776 328 785 328 797C328 809 338 817 348 817C358 817 369 809 369 797C369 785 358 776 348 776Z" glyph-name="Aring" horiz-adv-x="696" unicode="&#197;" /><glyph d="M131 179H555V295H131ZM222 690 0 0H140L348 650V690ZM474 690H348V650L556 0H696ZM506 766V870C475 843 443 834 414 834C367 834 339 885 282 885C253 885 221 872 190 849V745C221 772 253 781 282 781C329 781 357 730 414 730C443 730 475 743 506 766Z" glyph-name="Atilde" horiz-adv-x="696" unicode="&#195;" /><glyph d="M75 0H215V690H75ZM435 356V359C507 372 580 418 580 500C580 623 501 690 322 690H118V576H330C410 576 436 544 436 495C436 446 410 414 330 414H118V356ZM118 0H345C518 0 613 74 613 199C613 294 547 347 435 356H118V300H339C433 300 469 266 469 207C469 148 433 114 339 114H118Z" glyph-name="B" horiz-adv-x="648" unicode="B" /><glyph d="M37 345C37 148 175 -10 370 -10C531 -10 671 93 690 256H545C534 160 470 104 379 104C258 104 181 193 181 345C181 497 256 586 372 586C468 586 527 534 542 433H687C668 596 529 700 368 700C173 700 37 542 37 345Z" glyph-name="C" horiz-adv-x="718" unicode="C" /><glyph glyph-name="CR" horiz-adv-x="220" /><glyph d="M37 345C37 148 175 -10 370 -10C531 -10 671 93 690 256H545C534 160 470 104 379 104C258 104 181 193 181 345C181 497 256 586 372 586C468 586 527 534 542 433H687C668 596 529 700 368 700C173 700 37 542 37 345ZM401 740 557 875H383L280 740Z" glyph-name="Cacute" horiz-adv-x="718" unicode="&#262;" /><glyph d="M37 345C37 148 175 -10 370 -10C531 -10 671 93 690 256H545C534 160 470 104 379 104C258 104 181 193 181 345C181 497 256 586 372 586C468 586 527 534 542 433H687C668 596 529 700 368 700C173 700 37 542 37 345ZM169 875H318L368 793L418 875H567L429 740H307Z" glyph-name="Ccaron" horiz-adv-x="718" unicode="&#268;" /><glyph d="M37 345C37 148 175 -10 370 -10C531 -10 671 93 690 256H545C534 160 470 104 379 104C258 104 181 193 181 345C181 497 256 586 372 586C468 586 527 534 542 433H687C668 596 529 700 368 700C173 700 37 542 37 345ZM379 -177C420 -177 441 -149 441 -119C441 -89 420 -61 379 -61H358L397 10H335L276 -109H370C385 -109 393 -111 393 -119C393 -127 385 -129 370 -129H276V-177Z" glyph-name="Ccedilla" horiz-adv-x="718" unicode="&#199;" /><glyph d="M37 345C37 148 175 -10 370 -10C531 -10 671 93 690 256H545C534 160 470 104 379 104C258 104 181 193 181 345C181 497 256 586 372 586C468 586 527 534 542 433H687C668 596 529 700 368 700C173 700 37 542 37 345ZM169 740H318L368 822L418 740H567L429 875H307Z" glyph-name="Ccircumflex" horiz-adv-x="718" unicode="&#264;" /><glyph d="M37 345C37 148 175 -10 370 -10C531 -10 671 93 690 256H545C534 160 470 104 379 104C258 104 181 193 181 345C181 497 256 586 372 586C468 586 527 534 542 433H687C668 596 529 700 368 700C173 700 37 542 37 345ZM300 745H435V871H300Z" glyph-name="Cdotaccent" horiz-adv-x="718" unicode="&#266;" /><glyph d="M75 576H299C439 576 514 483 514 345C514 207 439 114 299 114H75V0H289C512 0 658 121 658 345C658 569 516 690 293 690H75ZM75 0H215V690H75Z" glyph-name="D" horiz-adv-x="696" unicode="D" /><glyph d="M75 576H299C439 576 514 483 514 345C514 207 439 114 299 114H75V0H289C512 0 658 121 658 345C658 569 516 690 293 690H75ZM75 0H215V690H75ZM126 875H275L325 793L375 875H524L386 740H264Z" glyph-name="Dcaron" horiz-adv-x="696" unicode="&#270;" /><glyph d="M377 289V403H12V289ZM90 576H314C454 576 529 483 529 345C529 207 454 114 314 114H90V0H304C527 0 673 121 673 345C673 569 531 690 308 690H90ZM90 0H230V690H90Z" glyph-name="Dcroat" horiz-adv-x="711" unicode="&#272;" /><glyph d="M75 576H500V690H75ZM75 297H491V411H75ZM75 0H508V114H75ZM75 0H215V690H75Z" glyph-name="E" horiz-adv-x="556" unicode="E" /><glyph d="M75 576H500V690H75ZM75 297H491V411H75ZM75 0H508V114H75ZM75 0H215V690H75ZM316 740 472 875H298L195 740Z" glyph-name="Eacute" horiz-adv-x="556" unicode="&#201;" /><glyph d="M75 576H500V690H75ZM75 297H491V411H75ZM75 0H508V114H75ZM75 0H215V690H75ZM287 820C253 820 225 836 225 875H140C140 802 196 740 287 740C378 740 434 802 434 875H349C349 836 321 820 287 820Z" glyph-name="Ebreve" horiz-adv-x="556" unicode="&#276;" /><glyph d="M75 576H500V690H75ZM75 297H491V411H75ZM75 0H508V114H75ZM75 0H215V690H75ZM88 875H237L287 793L337 875H486L348 740H226Z" glyph-name="Ecaron" horiz-adv-x="556" unicode="&#282;" /><glyph d="M75 576H500V690H75ZM75 297H491V411H75ZM75 0H508V114H75ZM75 0H215V690H75ZM88 740H237L287 822L337 740H486L348 875H226Z" glyph-name="Ecircumflex" horiz-adv-x="556" unicode="&#202;" /><glyph d="M75 576H500V690H75ZM75 297H491V411H75ZM75 0H508V114H75ZM75 0H215V690H75ZM119 745H254V871H119ZM320 745H455V871H320Z" glyph-name="Edieresis" horiz-adv-x="556" unicode="&#203;" /><glyph d="M220 745H355V871H220ZM75 576H500V690H75ZM75 297H491V411H75ZM75 0H508V114H75ZM75 0H215V690H75Z" glyph-name="Edotaccent" horiz-adv-x="556" unicode="&#278;" /><glyph d="M75 576H500V690H75ZM75 297H491V411H75ZM75 0H508V114H75ZM75 0H215V690H75ZM250 740H371L268 875H94Z" glyph-name="Egrave" horiz-adv-x="556" unicode="&#200;" /><glyph d="M75 576H500V690H75ZM75 297H491V411H75ZM75 0H508V114H75ZM75 0H215V690H75ZM127 755H448V861H127Z" glyph-name="Emacron" horiz-adv-x="556" unicode="&#274;" /><glyph d="M559 40 346 690H215V650L428 0H559ZM75 0H215V690H75ZM559 0H699V690H559ZM559 22C559 -37 550 -56 488 -56H399V-170H521C646 -170 699 -146 699 3V520H559Z" glyph-name="Eng" horiz-adv-x="774" unicode="&#330;" /><glyph d="M75 576H500V690H75ZM75 297H491V411H75ZM75 0H508V114H75ZM75 0H215V690H75ZM368 0C325 -16 295 -51 295 -90C295 -150 350 -170 448 -170H503V-84H482C438 -84 421 -83 421 -62C421 -36 465 -17 508 0Z" glyph-name="Eogonek" horiz-adv-x="556" unicode="&#280;" /><glyph d="M377 289V403H12V289ZM90 576H314C454 576 529 483 529 345C529 207 454 114 314 114H90V0H304C527 0 673 121 673 345C673 569 531 690 308 690H90ZM90 0H230V690H90Z" glyph-name="Eth" horiz-adv-x="711" unicode="&#208;" /><glyph d="M522 290V404H75V290ZM75 576H529V690H75ZM75 0H215V690H75Z" glyph-name="F" horiz-adv-x="566" unicode="F" /><glyph d="M369 -10C458 -10 533 38 558 108H568V266H561V256C561 150 470 104 384 104C258 104 181 193 181 345C181 497 256 586 378 586C468 586 525 539 538 468H683C659 614 537 700 374 700C173 700 37 542 37 345C37 148 175 -10 369 -10ZM329 268H561V0H691V379H329Z" glyph-name="G" horiz-adv-x="741" unicode="G" /><glyph d="M369 -10C458 -10 533 38 558 108H568V266H561V256C561 150 470 104 384 104C258 104 181 193 181 345C181 497 256 586 378 586C468 586 525 539 538 468H683C659 614 537 700 374 700C173 700 37 542 37 345C37 148 175 -10 369 -10ZM329 268H561V0H691V379H329ZM374 820C340 820 312 836 312 875H227C227 802 283 740 374 740C465 740 521 802 521 875H436C436 836 408 820 374 820Z" glyph-name="Gbreve" horiz-adv-x="741" unicode="&#286;" /><glyph d="M369 -10C458 -10 533 38 558 108H568V266H561V256C561 150 470 104 384 104C258 104 181 193 181 345C181 497 256 586 378 586C468 586 525 539 538 468H683C659 614 537 700 374 700C173 700 37 542 37 345C37 148 175 -10 369 -10ZM329 268H561V0H691V379H329ZM175 740H324L374 822L424 740H573L435 875H313Z" glyph-name="Gcircumflex" horiz-adv-x="741" unicode="&#284;" /><glyph d="M369 -10C458 -10 533 38 558 108H568V266H561V256C561 150 470 104 384 104C258 104 181 193 181 345C181 497 256 586 378 586C468 586 525 539 538 468H683C659 614 537 700 374 700C173 700 37 542 37 345C37 148 175 -10 369 -10ZM329 268H561V0H691V379H329ZM364 -259 437 -176V-50H302V-176H350L277 -259Z" glyph-name="Gcommaaccent" horiz-adv-x="741" unicode="&#290;" /><glyph d="M369 -10C458 -10 533 38 558 108H568V266H561V256C561 150 470 104 384 104C258 104 181 193 181 345C181 497 256 586 378 586C468 586 525 539 538 468H683C659 614 537 700 374 700C173 700 37 542 37 345C37 148 175 -10 369 -10ZM329 268H561V0H691V379H329ZM306 745H441V871H306Z" glyph-name="Gdotaccent" horiz-adv-x="741" unicode="&#288;" /><glyph d="M215 690H75V0H215ZM479 0H619V690H479ZM75 293H619V407H75Z" glyph-name="H" horiz-adv-x="694" unicode="H" /><glyph d="M702 480V594H18V480ZM228 690H88V0H228ZM492 0H632V690H492ZM88 293H632V407H88Z" glyph-name="Hbar" horiz-adv-x="720" unicode="&#294;" /><glyph d="M215 690H75V0H215ZM479 0H619V690H479ZM75 293H619V407H75ZM148 740H297L347 822L397 740H546L408 875H286Z" glyph-name="Hcircumflex" horiz-adv-x="694" unicode="&#292;" /><glyph d="M75 0H215V690H75Z" glyph-name="I" horiz-adv-x="290" unicode="I" /><glyph d="M75 0H215V690H75ZM206 740 362 875H188L85 740Z" glyph-name="Iacute" horiz-adv-x="290" unicode="&#205;" /><glyph d="M75 0H215V690H75ZM145 820C111 820 83 836 83 875H-2C-2 802 54 740 145 740C236 740 292 802 292 875H207C207 836 179 820 145 820Z" glyph-name="Ibreve" horiz-adv-x="290" unicode="&#300;" /><glyph d="M75 0H215V690H75ZM-54 740H95L145 822L195 740H344L206 875H84Z" glyph-name="Icircumflex" horiz-adv-x="290" unicode="&#206;" /><glyph d="M75 0H215V690H75ZM-23 745H112V871H-23ZM178 745H313V871H178Z" glyph-name="Idieresis" horiz-adv-x="290" unicode="&#207;" /><glyph d="M75 0H215V690H75ZM77 745H212V871H77Z" glyph-name="Idotaccent" horiz-adv-x="290" unicode="&#304;" /><glyph d="M75 0H215V690H75ZM84 740H205L102 875H-72Z" glyph-name="Igrave" horiz-adv-x="290" unicode="&#204;" /><glyph d="M75 0H215V690H75ZM-15 755H306V861H-15Z" glyph-name="Imacron" horiz-adv-x="290" unicode="&#298;" /><glyph d="M75 0C32 -16 2 -51 2 -90C2 -150 57 -170 155 -170H210V-84H189C145 -84 128 -83 128 -62C128 -36 172 -17 215 0ZM75 0H215V690H75Z" glyph-name="Iogonek" horiz-adv-x="290" unicode="&#302;" /><glyph d="M75 0H215V690H75ZM303 766V870C272 843 240 834 211 834C164 834 136 885 79 885C50 885 18 872 -13 849V745C18 772 50 781 79 781C126 781 154 730 211 730C240 730 272 743 303 766Z" glyph-name="Itilde" horiz-adv-x="290" unicode="&#296;" /><glyph d="M171 192C171 133 162 114 100 114H11V0H133C258 0 311 24 311 173V690H171Z" glyph-name="J" horiz-adv-x="382" unicode="J" /><glyph d="M171 192C171 133 162 114 100 114H11V0H133C258 0 311 24 311 173V690H171ZM42 740H191L241 822L291 740H440L302 875H180Z" glyph-name="Jcircumflex" horiz-adv-x="382" unicode="&#308;" /><glyph d="M195 360 507 0H683L371 360L656 690H480ZM75 0H215V690H75Z" glyph-name="K" horiz-adv-x="670" unicode="K" /><glyph d="M498 0H682L362 374H215V690H75V0H215V330ZM450 353 684 690H529L295 353Z" glyph-name="K.ss06" horiz-adv-x="678" /><glyph d="M195 360 507 0H683L371 360L656 690H480ZM75 0H215V690H75ZM344 -259 417 -176V-50H282V-176H330L257 -259Z" glyph-name="Kcommaaccent" horiz-adv-x="670" unicode="&#310;" /><glyph d="M498 0H682L362 374H215V690H75V0H215V330ZM450 353 684 690H529L295 353ZM338 -259 411 -176V-50H276V-176H324L251 -259Z" glyph-name="Kcommaaccent.ss06" horiz-adv-x="678" /><glyph d="M75 0H499V114H75ZM75 0H215V690H75Z" glyph-name="L" horiz-adv-x="509" unicode="L" /><glyph d="M75 0H499V114H75ZM75 0H215V690H75ZM206 740 362 875H188L85 740Z" glyph-name="Lacute" horiz-adv-x="509" unicode="&#313;" /><glyph d="M75 0H499V114H75ZM75 0H215V690H75ZM392 526 505 690H350L279 526Z" glyph-name="Lcaron" horiz-adv-x="519" unicode="&#317;" /><glyph d="M75 0H499V114H75ZM75 0H215V690H75ZM276 -259 349 -176V-50H214V-176H262L189 -259Z" glyph-name="Lcommaaccent" horiz-adv-x="509" unicode="&#315;" /><glyph d="M75 0H499V114H75ZM75 0H215V690H75ZM334 290H469V416H334Z" glyph-name="Ldot" horiz-adv-x="513" unicode="&#319;" /><glyph d="M352 386V510L23 335V211ZM83 0H507V114H83ZM83 0H223V690H83Z" glyph-name="Lslash" horiz-adv-x="517" unicode="&#321;" /><glyph d="M491 40 344 690H215V650L362 0H491ZM75 0H215V690H75ZM491 40V0H620L767 650V690H638ZM907 0V690H767V0Z" glyph-name="M" horiz-adv-x="982" unicode="M" /><glyph d="M559 40 346 690H215V650L428 0H559ZM75 0H215V690H75ZM559 0H699V690H559Z" glyph-name="N" horiz-adv-x="774" unicode="N" /><glyph d="M559 40 346 690H215V650L428 0H559ZM75 0H215V690H75ZM559 0H699V690H559ZM414 740 570 875H396L293 740Z" glyph-name="Nacute" horiz-adv-x="774" unicode="&#323;" /><glyph d="M559 40 346 690H215V650L428 0H559ZM75 0H215V690H75ZM559 0H699V690H559ZM188 875H337L387 793L437 875H586L448 740H326Z" glyph-name="Ncaron" horiz-adv-x="774" unicode="&#327;" /><glyph d="M559 40 346 690H215V650L428 0H559ZM75 0H215V690H75ZM559 0H699V690H559ZM391 -259 464 -176V-50H329V-176H377L304 -259Z" glyph-name="Ncommaaccent" horiz-adv-x="774" unicode="&#325;" /><glyph d="M559 40 346 690H215V650L428 0H559ZM75 0H215V690H75ZM559 0H699V690H559ZM545 766V870C514 843 482 834 453 834C406 834 378 885 321 885C292 885 260 872 229 849V745C260 772 292 781 321 781C368 781 396 730 453 730C482 730 514 743 545 766Z" glyph-name="Ntilde" horiz-adv-x="774" unicode="&#209;" /><glyph d="M369 700C172 700 37 542 37 345C37 148 172 -10 369 -10C566 -10 701 148 701 345C701 542 566 700 369 700ZM369 586C477 586 557 497 557 345C557 193 477 104 369 104C261 104 181 193 181 345C181 497 261 586 369 586Z" glyph-name="O" horiz-adv-x="738" unicode="O" /><glyph d="M369 700C172 700 37 542 37 345C37 148 172 -10 369 -10C566 -10 701 148 701 345C701 542 566 700 369 700ZM369 586C477 586 557 497 557 345C557 193 477 104 369 104C261 104 181 193 181 345C181 497 261 586 369 586ZM561 576H986V690H561ZM561 297H977V411H561ZM561 0H994V114H561ZM561 0H701V690H561Z" glyph-name="OE" horiz-adv-x="1042" unicode="&#338;" /><glyph d="M369 700C172 700 37 542 37 345C37 148 172 -10 369 -10C566 -10 701 148 701 345C701 542 566 700 369 700ZM369 586C477 586 557 497 557 345C557 193 477 104 369 104C261 104 181 193 181 345C181 497 261 586 369 586ZM386 740 542 875H368L265 740Z" glyph-name="Oacute" horiz-adv-x="738" unicode="&#211;" /><glyph d="M369 700C172 700 37 542 37 345C37 148 172 -10 369 -10C566 -10 701 148 701 345C701 542 566 700 369 700ZM369 586C477 586 557 497 557 345C557 193 477 104 369 104C261 104 181 193 181 345C181 497 261 586 369 586ZM369 820C335 820 307 836 307 875H222C222 802 278 740 369 740C460 740 516 802 516 875H431C431 836 403 820 369 820Z" glyph-name="Obreve" horiz-adv-x="738" unicode="&#334;" /><glyph d="M170 740H319L369 822L419 740H568L430 875H308ZM369 700C172 700 37 542 37 345C37 148 172 -10 369 -10C566 -10 701 148 701 345C701 542 566 700 369 700ZM369 586C477 586 557 497 557 345C557 193 477 104 369 104C261 104 181 193 181 345C181 497 261 586 369 586Z" glyph-name="Ocircumflex" horiz-adv-x="738" unicode="&#212;" /><glyph d="M201 745H336V871H201ZM402 745H537V871H402ZM369 700C172 700 37 542 37 345C37 148 172 -10 369 -10C566 -10 701 148 701 345C701 542 566 700 369 700ZM369 586C477 586 557 497 557 345C557 193 477 104 369 104C261 104 181 193 181 345C181 497 261 586 369 586Z" glyph-name="Odieresis" horiz-adv-x="738" unicode="&#214;" /><glyph d="M369 700C172 700 37 542 37 345C37 148 172 -10 369 -10C566 -10 701 148 701 345C701 542 566 700 369 700ZM369 586C477 586 557 497 557 345C557 193 477 104 369 104C261 104 181 193 181 345C181 497 261 586 369 586ZM301 -165H436V-39H301Z" glyph-name="Odotaccent" horiz-adv-x="738" unicode="&#7884;" /><glyph d="M369 700C172 700 37 542 37 345C37 148 172 -10 369 -10C566 -10 701 148 701 345C701 542 566 700 369 700ZM369 586C477 586 557 497 557 345C557 193 477 104 369 104C261 104 181 193 181 345C181 497 261 586 369 586ZM318 740H439L336 875H162Z" glyph-name="Ograve" horiz-adv-x="738" unicode="&#210;" /><glyph d="M369 700C172 700 37 542 37 345C37 148 172 -10 369 -10C566 -10 701 148 701 345C701 542 566 700 369 700ZM369 586C477 586 557 497 557 345C557 193 477 104 369 104C261 104 181 193 181 345C181 497 261 586 369 586ZM311 740 453 875H279L190 740ZM511 740 653 875H479L390 740Z" glyph-name="Ohungarumlaut" horiz-adv-x="738" unicode="&#336;" /><glyph d="M369 700C172 700 37 542 37 345C37 148 172 -10 369 -10C566 -10 701 148 701 345C701 542 566 700 369 700ZM369 586C477 586 557 497 557 345C557 193 477 104 369 104C261 104 181 193 181 345C181 497 261 586 369 586ZM208 755H529V861H208Z" glyph-name="Omacron" horiz-adv-x="738" unicode="&#332;" /><glyph d="M-6 0H170L768 690H592ZM381 700C184 700 49 542 49 345C49 148 184 -10 381 -10C578 -10 713 148 713 345C713 542 578 700 381 700ZM381 586C489 586 569 497 569 345C569 193 489 104 381 104C273 104 193 193 193 345C193 497 273 586 381 586Z" glyph-name="Oslash" horiz-adv-x="761" unicode="&#216;" /><glyph d="M369 700C172 700 37 542 37 345C37 148 172 -10 369 -10C566 -10 701 148 701 345C701 542 566 700 369 700ZM369 586C477 586 557 497 557 345C557 193 477 104 369 104C261 104 181 193 181 345C181 497 261 586 369 586ZM527 766V870C496 843 464 834 435 834C388 834 360 885 303 885C274 885 242 872 211 849V745C242 772 274 781 303 781C350 781 378 730 435 730C464 730 496 743 527 766Z" glyph-name="Otilde" horiz-adv-x="738" unicode="&#213;" /><glyph d="M75 0H215V690H75ZM75 576H332C419 576 467 536 467 473C467 410 419 370 332 370H75V256H321C500 256 611 340 611 473C611 606 500 690 321 690H75Z" glyph-name="P" horiz-adv-x="630" unicode="P" /><glyph d="M577 0H767L449 263H259ZM369 700C172 700 37 542 37 345C37 148 172 -10 369 -10C566 -10 701 148 701 345C701 542 566 700 369 700ZM369 586C477 586 557 497 557 345C557 193 477 104 369 104C261 104 181 193 181 345C181 497 261 586 369 586Z" glyph-name="Q" horiz-adv-x="738" unicode="Q" /><glyph d="M296 307 448 0H596L444 307ZM75 576H309C396 576 444 542 444 479C444 416 396 382 309 382H75V268H298C477 268 588 346 588 479C588 612 477 690 298 690H75ZM75 0H215V690H75Z" glyph-name="R" horiz-adv-x="631" unicode="R" /><glyph d="M296 307 448 0H596L444 307ZM75 576H309C396 576 444 542 444 479C444 416 396 382 309 382H75V268H298C477 268 588 346 588 479C588 612 477 690 298 690H75ZM75 0H215V690H75ZM326 740 482 875H308L205 740Z" glyph-name="Racute" horiz-adv-x="631" unicode="&#340;" /><glyph d="M296 307 448 0H596L444 307ZM75 576H309C396 576 444 542 444 479C444 416 396 382 309 382H75V268H298C477 268 588 346 588 479C588 612 477 690 298 690H75ZM75 0H215V690H75ZM98 875H247L297 793L347 875H496L358 740H236Z" glyph-name="Rcaron" horiz-adv-x="631" unicode="&#344;" /><glyph d="M296 307 448 0H596L444 307ZM75 576H309C396 576 444 542 444 479C444 416 396 382 309 382H75V268H298C477 268 588 346 588 479C588 612 477 690 298 690H75ZM75 0H215V690H75ZM321 -259 394 -176V-50H259V-176H307L234 -259Z" glyph-name="Rcommaaccent" horiz-adv-x="631" unicode="&#342;" /><glyph d="M334 -10C490 -10 616 75 616 201C616 299 555 374 422 405L315 430C225 451 187 466 187 508C187 556 239 586 308 586C364 586 440 567 449 485H594C582 604 488 700 308 700C159 700 43 615 43 496C43 400 109 335 234 306L341 281C430 260 474 238 474 190C474 135 415 104 340 104C251 104 185 161 177 243H32C45 124 149 -10 334 -10Z" glyph-name="S" horiz-adv-x="647" unicode="S" /><glyph d="M334 -10C490 -10 616 75 616 201C616 299 555 374 422 405L315 430C225 451 187 466 187 508C187 556 239 586 308 586C364 586 440 567 449 485H594C582 604 488 700 308 700C159 700 43 615 43 496C43 400 109 335 234 306L341 281C430 260 474 238 474 190C474 135 415 104 340 104C251 104 185 161 177 243H32C45 124 149 -10 334 -10ZM341 740 497 875H323L220 740Z" glyph-name="Sacute" horiz-adv-x="647" unicode="&#346;" /><glyph d="M334 -10C490 -10 616 75 616 201C616 299 555 374 422 405L315 430C225 451 187 466 187 508C187 556 239 586 308 586C364 586 440 567 449 485H594C582 604 488 700 308 700C159 700 43 615 43 496C43 400 109 335 234 306L341 281C430 260 474 238 474 190C474 135 415 104 340 104C251 104 185 161 177 243H32C45 124 149 -10 334 -10ZM109 875H258L308 793L358 875H507L369 740H247Z" glyph-name="Scaron" horiz-adv-x="647" unicode="&#352;" /><glyph d="M334 -10C490 -10 616 75 616 201C616 299 555 374 422 405L315 430C225 451 187 466 187 508C187 556 239 586 308 586C364 586 440 567 449 485H594C582 604 488 700 308 700C159 700 43 615 43 496C43 400 109 335 234 306L341 281C430 260 474 238 474 190C474 135 415 104 340 104C251 104 185 161 177 243H32C45 124 149 -10 334 -10ZM354 -177C395 -177 416 -149 416 -119C416 -89 395 -61 354 -61H333L372 10H310L251 -109H345C360 -109 368 -111 368 -119C368 -127 360 -129 345 -129H251V-177Z" glyph-name="Scedilla" horiz-adv-x="647" unicode="&#350;" /><glyph d="M334 -10C490 -10 616 75 616 201C616 299 555 374 422 405L315 430C225 451 187 466 187 508C187 556 239 586 308 586C364 586 440 567 449 485H594C582 604 488 700 308 700C159 700 43 615 43 496C43 400 109 335 234 306L341 281C430 260 474 238 474 190C474 135 415 104 340 104C251 104 185 161 177 243H32C45 124 149 -10 334 -10ZM109 740H258L308 822L358 740H507L369 875H247Z" glyph-name="Scircumflex" horiz-adv-x="647" unicode="&#348;" /><glyph d="M334 -10C490 -10 616 75 616 201C616 299 555 374 422 405L315 430C225 451 187 466 187 508C187 556 239 586 308 586C364 586 440 567 449 485H594C582 604 488 700 308 700C159 700 43 615 43 496C43 400 109 335 234 306L341 281C430 260 474 238 474 190C474 135 415 104 340 104C251 104 185 161 177 243H32C45 124 149 -10 334 -10ZM331 -259 404 -176V-50H269V-176H317L244 -259Z" glyph-name="Scommaaccent" horiz-adv-x="647" unicode="&#536;" /><glyph d="M580 576V690H10V576ZM225 690V0H365V690Z" glyph-name="T" horiz-adv-x="590" unicode="T" /><glyph d="M85 309H525V423H85ZM590 576V690H20V576ZM235 690V0H375V690Z" glyph-name="Tbar" horiz-adv-x="610" unicode="&#358;" /><glyph d="M580 576V690H10V576ZM225 690V0H365V690ZM96 875H245L295 793L345 875H494L356 740H234Z" glyph-name="Tcaron" horiz-adv-x="590" unicode="&#356;" /><glyph d="M580 576V690H10V576ZM225 690V0H365V690ZM289 -259 362 -176V-50H227V-176H275L202 -259Z" glyph-name="Tcedilla" horiz-adv-x="590" unicode="&#354;" /><glyph d="M580 576V690H10V576ZM225 690V0H365V690ZM289 -259 362 -176V-50H227V-176H275L202 -259Z" glyph-name="Tcommaaccent" horiz-adv-x="590" unicode="&#354;" /><glyph d="M215 0V137H321C500 137 611 221 611 354C611 487 500 571 321 571H215V690H75V0ZM332 457C419 457 467 417 467 354C467 291 419 251 332 251H215V457Z" glyph-name="Thorn" horiz-adv-x="640" unicode="&#222;" /><glyph d="M346 104C274 104 208 141 208 261V690H68V273C68 87 173 -10 346 -10C519 -10 624 87 624 273V690H484V261C484 141 418 104 346 104Z" glyph-name="U" horiz-adv-x="692" unicode="U" /><glyph d="M346 104C274 104 208 141 208 261V690H68V273C68 87 173 -10 346 -10C519 -10 624 87 624 273V690H484V261C484 141 418 104 346 104ZM378 740 534 875H360L257 740Z" glyph-name="Uacute" horiz-adv-x="692" unicode="&#218;" /><glyph d="M346 104C274 104 208 141 208 261V690H68V273C68 87 173 -10 346 -10C519 -10 624 87 624 273V690H484V261C484 141 418 104 346 104ZM346 820C312 820 284 836 284 875H199C199 802 255 740 346 740C437 740 493 802 493 875H408C408 836 380 820 346 820Z" glyph-name="Ubreve" horiz-adv-x="692" unicode="&#364;" /><glyph d="M147 740H296L346 822L396 740H545L407 875H285ZM346 104C274 104 208 141 208 261V690H68V273C68 87 173 -10 346 -10C519 -10 624 87 624 273V690H484V261C484 141 418 104 346 104Z" glyph-name="Ucircumflex" horiz-adv-x="692" unicode="&#219;" /><glyph d="M178 745H313V871H178ZM379 745H514V871H379ZM346 104C274 104 208 141 208 261V690H68V273C68 87 173 -10 346 -10C519 -10 624 87 624 273V690H484V261C484 141 418 104 346 104Z" glyph-name="Udieresis" horiz-adv-x="692" unicode="&#220;" /><glyph d="M346 104C274 104 208 141 208 261V690H68V273C68 87 173 -10 346 -10C519 -10 624 87 624 273V690H484V261C484 141 418 104 346 104ZM278 -176H413V-50H278Z" glyph-name="Udotaccent" horiz-adv-x="692" unicode="&#7908;" /><glyph d="M346 104C274 104 208 141 208 261V690H68V273C68 87 173 -10 346 -10C519 -10 624 87 624 273V690H484V261C484 141 418 104 346 104ZM319 740H440L337 875H163Z" glyph-name="Ugrave" horiz-adv-x="692" unicode="&#217;" /><glyph d="M346 104C274 104 208 141 208 261V690H68V273C68 87 173 -10 346 -10C519 -10 624 87 624 273V690H484V261C484 141 418 104 346 104ZM289 740 431 875H257L168 740ZM489 740 631 875H457L368 740Z" glyph-name="Uhungarumlaut" horiz-adv-x="692" unicode="&#368;" /><glyph d="M346 104C274 104 208 141 208 261V690H68V273C68 87 173 -10 346 -10C519 -10 624 87 624 273V690H484V261C484 141 418 104 346 104ZM185 755H506V861H185Z" glyph-name="Umacron" horiz-adv-x="692" unicode="&#362;" /><glyph d="M346 104C274 104 208 141 208 261V690H68V273C68 87 173 -10 346 -10C519 -10 624 87 624 273V690H484V261C484 141 418 104 346 104ZM295 0C252 -16 222 -51 222 -90C222 -150 277 -170 375 -170H430V-84H409C365 -84 348 -83 348 -62C348 -36 392 -17 435 0Z" glyph-name="Uogonek" horiz-adv-x="692" unicode="&#370;" /><glyph d="M346 104C274 104 208 141 208 261V690H68V273C68 87 173 -10 346 -10C519 -10 624 87 624 273V690H484V261C484 141 418 104 346 104ZM346 715C390 715 428 749 428 797C428 845 390 879 346 879C300 879 264 845 264 797C264 749 300 715 346 715ZM346 776C336 776 326 785 326 797C326 809 336 817 346 817C356 817 367 809 367 797C367 785 356 776 346 776Z" glyph-name="Uring" horiz-adv-x="692" unicode="&#366;" /><glyph d="M346 104C274 104 208 141 208 261V690H68V273C68 87 173 -10 346 -10C519 -10 624 87 624 273V690H484V261C484 141 418 104 346 104ZM504 766V870C473 843 441 834 412 834C365 834 337 885 280 885C251 885 219 872 188 849V745C219 772 251 781 280 781C327 781 355 730 412 730C441 730 473 743 504 766Z" glyph-name="Utilde" horiz-adv-x="692" unicode="&#360;" /><glyph d="M221 0H347V40L139 690H-1ZM473 0 695 690H555L347 40V0Z" glyph-name="V" horiz-adv-x="694" unicode="V" /><glyph d="M886 0 1010 690H872L755 40V0ZM626 0H755V40L648 690H519V650ZM152 0H283V40L166 690H28ZM412 0 519 650V690H390L283 40V0Z" glyph-name="W" horiz-adv-x="1038" unicode="W" /><glyph d="M886 0 1010 690H872L755 40V0ZM626 0H755V40L648 690H519V650ZM152 0H283V40L166 690H28ZM412 0 519 650V690H390L283 40V0ZM564 740 720 875H546L443 740Z" glyph-name="Wacute" horiz-adv-x="1038" unicode="&#7810;" /><glyph d="M886 0 1010 690H872L755 40V0ZM626 0H755V40L648 690H519V650ZM152 0H283V40L166 690H28ZM412 0 519 650V690H390L283 40V0ZM320 740H469L519 822L569 740H718L580 875H458Z" glyph-name="Wcircumflex" horiz-adv-x="1038" unicode="&#372;" /><glyph d="M886 0 1010 690H872L755 40V0ZM626 0H755V40L648 690H519V650ZM152 0H283V40L166 690H28ZM412 0 519 650V690H390L283 40V0ZM351 745H486V871H351ZM552 745H687V871H552Z" glyph-name="Wdieresis" horiz-adv-x="1038" unicode="&#7812;" /><glyph d="M886 0 1010 690H872L755 40V0ZM626 0H755V40L648 690H519V650ZM152 0H283V40L166 690H28ZM412 0 519 650V690H390L283 40V0ZM458 740H579L476 875H302Z" glyph-name="Wgrave" horiz-adv-x="1038" unicode="&#7808;" /><glyph d="M261 355 503 0H666L374 427ZM18 690 255 343 368 415 181 690ZM396 355 283 427 -9 0H154ZM639 690H476L289 415L402 343Z" glyph-name="X" horiz-adv-x="657" unicode="X" /><glyph d="M188 690H23L209 357L-2 0H163L374 357ZM526 690 340 357 551 0H716L505 357L691 690Z" glyph-name="X.ss07" horiz-adv-x="714" /><glyph d="M-2 690 256 302 365 378 157 690ZM254 0H394V375H254ZM649 690H490L282 378L391 302Z" glyph-name="Y" horiz-adv-x="648" unicode="Y" /><glyph d="M364 740 520 875H346L243 740ZM-2 690 256 302 365 378 157 690ZM254 0H394V375H254ZM649 690H490L282 378L391 302Z" glyph-name="Yacute" horiz-adv-x="648" unicode="&#221;" /><glyph d="M-2 690 256 302 365 378 157 690ZM254 0H394V375H254ZM649 690H490L282 378L391 302ZM124 740H273L323 822L373 740H522L384 875H262Z" glyph-name="Ycircumflex" horiz-adv-x="648" unicode="&#374;" /><glyph d="M-2 690 256 302 365 378 157 690ZM254 0H394V375H254ZM649 690H490L282 378L391 302ZM155 745H290V871H155ZM356 745H491V871H356Z" glyph-name="Ydieresis" horiz-adv-x="648" unicode="&#376;" /><glyph d="M-2 690 256 302 365 378 157 690ZM254 0H394V375H254ZM649 690H490L282 378L391 302ZM280 740H401L298 875H124Z" glyph-name="Ygrave" horiz-adv-x="648" unicode="&#7922;" /><glyph d="M-2 690 256 302 365 378 157 690ZM254 0H394V375H254ZM649 690H490L282 378L391 302ZM163 755H484V861H163Z" glyph-name="Ymacron" horiz-adv-x="648" unicode="&#562;" /><glyph d="M534 576V690H44V576ZM206 114 534 576H363L35 114ZM545 0V114H35V0Z" glyph-name="Z" horiz-adv-x="579" unicode="Z" /><glyph d="M534 576V690H44V576ZM206 114 534 576H363L35 114ZM545 0V114H35V0ZM321 740 477 875H303L200 740Z" glyph-name="Zacute" horiz-adv-x="579" unicode="&#377;" /><glyph d="M534 576V690H44V576ZM206 114 534 576H363L35 114ZM545 0V114H35V0ZM90 875H239L289 793L339 875H488L350 740H228Z" glyph-name="Zcaron" horiz-adv-x="579" unicode="&#381;" /><glyph d="M534 576V690H44V576ZM206 114 534 576H363L35 114ZM545 0V114H35V0ZM221 745H356V871H221Z" glyph-name="Zdotaccent" horiz-adv-x="579" unicode="&#379;" /><glyph d="M246 86C208 86 169 104 169 148C169 191 208 212 265 218L350 227V221C350 138 314 86 246 86ZM351 98H354V0H485V309C485 429 414 510 270 510C139 510 51 444 48 342H183C187 394 220 414 267 414C314 414 350 389 350 331V317L236 305C119 293 30 249 30 146C30 61 98 -10 210 -10C282 -10 335 28 351 98Z" glyph-name="a" horiz-adv-x="538" unicode="a" /><glyph d="M173 250C173 352 216 414 282 414C348 414 395 352 395 250C395 148 347 86 282 86C217 86 173 148 173 250ZM34 250C34 108 108 -10 238 -10C312 -10 367 37 387 103H391V0H522V500H391V397H387C367 463 312 510 238 510C114 510 34 392 34 250Z" glyph-name="a.ss02" horiz-adv-x="581" /><glyph d="M246 86C208 86 169 104 169 148C169 191 208 212 265 218L350 227V221C350 138 314 86 246 86ZM351 98H354V0H485V309C485 429 414 510 270 510C139 510 51 444 48 342H183C187 394 220 414 267 414C314 414 350 389 350 331V317L236 305C119 293 30 249 30 146C30 61 98 -10 210 -10C282 -10 335 28 351 98ZM296 555 452 690H278L175 555Z" glyph-name="aacute" horiz-adv-x="538" unicode="&#225;" /><glyph d="M173 250C173 352 216 414 282 414C348 414 395 352 395 250C395 148 347 86 282 86C217 86 173 148 173 250ZM34 250C34 108 108 -10 238 -10C312 -10 367 37 387 103H391V0H522V500H391V397H387C367 463 312 510 238 510C114 510 34 392 34 250ZM314 555 470 690H296L193 555Z" glyph-name="aacute.ss02" horiz-adv-x="581" /><glyph d="M246 86C208 86 169 104 169 148C169 191 208 212 265 218L350 227V221C350 138 314 86 246 86ZM351 98H354V0H485V309C485 429 414 510 270 510C139 510 51 444 48 342H183C187 394 220 414 267 414C314 414 350 389 350 331V317L236 305C119 293 30 249 30 146C30 61 98 -10 210 -10C282 -10 335 28 351 98ZM270 635C236 635 208 651 208 690H123C123 617 179 555 270 555C361 555 417 617 417 690H332C332 651 304 635 270 635Z" glyph-name="abreve" horiz-adv-x="538" unicode="&#259;" /><glyph d="M173 250C173 352 216 414 282 414C348 414 395 352 395 250C395 148 347 86 282 86C217 86 173 148 173 250ZM34 250C34 108 108 -10 238 -10C312 -10 367 37 387 103H391V0H522V500H391V397H387C367 463 312 510 238 510C114 510 34 392 34 250ZM272 635C238 635 210 651 210 690H125C125 617 181 555 272 555C363 555 419 617 419 690H334C334 651 306 635 272 635Z" glyph-name="abreve.ss02" horiz-adv-x="581" /><glyph d="M246 86C208 86 169 104 169 148C169 191 208 212 265 218L350 227V221C350 138 314 86 246 86ZM351 98H354V0H485V309C485 429 414 510 270 510C139 510 51 444 48 342H183C187 394 220 414 267 414C314 414 350 389 350 331V317L236 305C119 293 30 249 30 146C30 61 98 -10 210 -10C282 -10 335 28 351 98ZM71 555H220L270 637L320 555H469L331 690H209Z" glyph-name="acircumflex" horiz-adv-x="538" unicode="&#226;" /><glyph d="M173 250C173 352 216 414 282 414C348 414 395 352 395 250C395 148 347 86 282 86C217 86 173 148 173 250ZM34 250C34 108 108 -10 238 -10C312 -10 367 37 387 103H391V0H522V500H391V397H387C367 463 312 510 238 510C114 510 34 392 34 250ZM89 555H238L288 637L338 555H487L349 690H227Z" glyph-name="acircumflex.ss02" horiz-adv-x="581" /><glyph d="M141 555 297 690H123L20 555Z" glyph-name="acute" horiz-adv-x="317" unicode="&#180;" /><glyph d="M141 740 297 875H123L20 740Z" glyph-name="acute.case" horiz-adv-x="317" /><glyph d="M246 86C208 86 169 104 169 148C169 191 208 212 265 218L350 227V221C350 138 314 86 246 86ZM351 98H354V0H485V309C485 429 414 510 270 510C139 510 51 444 48 342H183C187 394 220 414 267 414C314 414 350 389 350 331V317L236 305C119 293 30 249 30 146C30 61 98 -10 210 -10C282 -10 335 28 351 98ZM102 560H237V686H102ZM303 560H438V686H303Z" glyph-name="adieresis" horiz-adv-x="538" unicode="&#228;" /><glyph d="M173 250C173 352 216 414 282 414C348 414 395 352 395 250C395 148 347 86 282 86C217 86 173 148 173 250ZM34 250C34 108 108 -10 238 -10C312 -10 367 37 387 103H391V0H522V500H391V397H387C367 463 312 510 238 510C114 510 34 392 34 250ZM111 560H246V686H111ZM312 560H447V686H312Z" glyph-name="adieresis.ss02" horiz-adv-x="581" /><glyph d="M246 86C208 86 169 104 169 148C169 191 208 212 265 218L350 227V221C350 138 314 86 246 86ZM418 84 428 423C408 458 357 510 270 510C139 510 51 444 48 342H183C183 395 219 414 267 414C315 414 350 389 350 331V317L236 305C119 293 30 249 30 146C30 61 98 -10 210 -10C328 -10 388 39 418 84ZM590 414C649 414 686 372 693 300H486C492 372 532 414 590 414ZM683 151C670 113 639 86 597 86C536 86 491 126 485 204H829C846 385 739 510 590 510C441 510 351 387 351 250C351 113 442 -10 591 -10C698 -10 794 42 817 151Z" glyph-name="ae" horiz-adv-x="861.7753" unicode="&#230;" /><glyph d="M246 86C208 86 169 104 169 148C169 191 208 212 265 218L350 227V221C350 138 314 86 246 86ZM351 98H354V0H485V309C485 429 414 510 270 510C139 510 51 444 48 342H183C187 394 220 414 267 414C314 414 350 389 350 331V317L236 305C119 293 30 249 30 146C30 61 98 -10 210 -10C282 -10 335 28 351 98ZM233 555H354L251 690H77Z" glyph-name="agrave" horiz-adv-x="538" unicode="&#224;" /><glyph d="M173 250C173 352 216 414 282 414C348 414 395 352 395 250C395 148 347 86 282 86C217 86 173 148 173 250ZM34 250C34 108 108 -10 238 -10C312 -10 367 37 387 103H391V0H522V500H391V397H387C367 463 312 510 238 510C114 510 34 392 34 250ZM262 555H383L280 690H106Z" glyph-name="agrave.ss02" horiz-adv-x="581" /><glyph d="M246 86C208 86 169 104 169 148C169 191 208 212 265 218L350 227V221C350 138 314 86 246 86ZM351 98H354V0H485V309C485 429 414 510 270 510C139 510 51 444 48 342H183C187 394 220 414 267 414C314 414 350 389 350 331V317L236 305C119 293 30 249 30 146C30 61 98 -10 210 -10C282 -10 335 28 351 98ZM110 570H431V676H110Z" glyph-name="amacron" horiz-adv-x="538" unicode="&#257;" /><glyph d="M173 250C173 352 216 414 282 414C348 414 395 352 395 250C395 148 347 86 282 86C217 86 173 148 173 250ZM34 250C34 108 108 -10 238 -10C312 -10 367 37 387 103H391V0H522V500H391V397H387C367 463 312 510 238 510C114 510 34 392 34 250ZM126 570H447V676H126Z" glyph-name="amacron.ss02" horiz-adv-x="581" /><glyph d="M496 346C496 209 440 86 299 86C227 86 170 133 170 202C170 269 205 299 304 351L359 380C451 428 508 476 508 546C508 634 436 700 311 700C186 700 112 628 112 546C112 498 133 454 190 385L510 0H679L304 450C263 499 251 516 251 549C251 578 272 604 307 604C342 604 369 585 369 549C369 513 346 490 291 463L225 430C140 388 31 332 31 209C31 66 148 -10 305 -10C510 -10 631 182 631 346Z" glyph-name="ampersand" horiz-adv-x="674" unicode="&amp;" /><glyph d="M354 0C311 -16 281 -51 281 -90C281 -150 336 -170 434 -170H485V-87H468C424 -87 402 -83 402 -62C402 -36 442 -17 485 0ZM246 86C208 86 169 104 169 148C169 191 208 212 265 218L350 227V221C350 138 314 86 246 86ZM351 98H354V0H485V309C485 429 414 510 270 510C139 510 51 444 48 342H183C187 394 220 414 267 414C314 414 350 389 350 331V317L236 305C119 293 30 249 30 146C30 61 98 -10 210 -10C282 -10 335 28 351 98Z" glyph-name="aogonek" horiz-adv-x="538" unicode="&#261;" /><glyph d="M391 0C348 -16 318 -51 318 -90C318 -150 373 -170 471 -170H522V-87H505C461 -87 439 -83 439 -62C439 -36 479 -17 522 0ZM173 250C173 352 216 414 282 414C348 414 395 352 395 250C395 148 347 86 282 86C217 86 173 148 173 250ZM34 250C34 108 108 -10 238 -10C312 -10 367 37 387 103H391V0H522V500H391V397H387C367 463 312 510 238 510C114 510 34 392 34 250Z" glyph-name="aogonek.ss02" horiz-adv-x="581" /><glyph d="M383 690H330V0H383ZM249 674 200 653 464 16 513 36ZM131 608 94 569 582 82 619 119ZM48 501 28 451 666 188 686 236ZM12 371V317L703 319V371ZM28 237 49 187 687 452 667 500ZM94 119 133 81 621 570 584 606ZM200 35 251 15 514 653 467 673Z" glyph-name="apple" horiz-adv-x="715" /><glyph d="M246 86C208 86 169 104 169 148C169 191 208 212 265 218L350 227V221C350 138 314 86 246 86ZM351 98H354V0H485V309C485 429 414 510 270 510C139 510 51 444 48 342H183C187 394 220 414 267 414C314 414 350 389 350 331V317L236 305C119 293 30 249 30 146C30 61 98 -10 210 -10C282 -10 335 28 351 98ZM270 530C314 530 352 564 352 612C352 660 314 694 270 694C224 694 188 660 188 612C188 564 224 530 270 530ZM270 591C260 591 250 600 250 612C250 624 260 632 270 632C280 632 291 624 291 612C291 600 280 591 270 591Z" glyph-name="aring" horiz-adv-x="538" unicode="&#229;" /><glyph d="M173 250C173 352 216 414 282 414C348 414 395 352 395 250C395 148 347 86 282 86C217 86 173 148 173 250ZM34 250C34 108 108 -10 238 -10C312 -10 367 37 387 103H391V0H522V500H391V397H387C367 463 312 510 238 510C114 510 34 392 34 250ZM292 530C336 530 374 564 374 612C374 660 336 694 292 694C246 694 210 660 210 612C210 564 246 530 292 530ZM292 591C282 591 272 600 272 612C272 624 282 632 292 632C302 632 313 624 313 612C313 600 302 591 292 591Z" glyph-name="aring.ss02" horiz-adv-x="581" /><glyph d="M360 184 610 432V254L360 27ZM360 184V27L110 254V432ZM300 98V671H420V98Z" glyph-name="arrowdown" horiz-adv-x="720" unicode="&#8595;" /><glyph d="M234 177H587L477 67H124ZM217 75 132 160 537 565 622 480ZM124 420 234 530V177L124 67Z" glyph-name="arrowdownleft" horiz-adv-x="720" unicode="&#8601;" /><glyph d="M486 177H133L243 67H596ZM503 75 588 160 183 565 98 480ZM596 420 486 530V177L596 67Z" glyph-name="arrowdownright" horiz-adv-x="720" unicode="&#8600;" /><glyph d="M192 345 440 595H262L35 345ZM192 345H35L262 95H440ZM106 285H679V405H106Z" glyph-name="arrowleft" horiz-adv-x="720" unicode="&#8592;" /><glyph d="M528 345 280 595H458L685 345ZM528 345H685L458 95H280ZM614 285H41V405H614Z" glyph-name="arrowright" horiz-adv-x="720" unicode="&#8594;" /><glyph d="M360 506 610 258V436L360 663ZM360 506V663L110 436V258ZM300 592V19H420V592Z" glyph-name="arrowup" horiz-adv-x="720" unicode="&#8593;" /><glyph d="M234 455H587L477 565H124ZM217 557 132 472 537 67 622 152ZM124 212 234 102V455L124 565Z" glyph-name="arrowupleft" horiz-adv-x="720" unicode="&#8598;" /><glyph d="M486 455H133L243 565H596ZM503 557 588 472 183 67 98 152ZM596 212 486 102V455L596 565Z" glyph-name="arrowupright" horiz-adv-x="720" unicode="&#8599;" /><glyph d="M40 326H165L269 580V690H189ZM498 326 349 690H269V580L373 326Z" glyph-name="asciicircum" horiz-adv-x="538" unicode="^" /><glyph d="M176 391C127 391 82 374 40 339V216C83 253 135 267 175 267C241 267 270 216 348 216C397 216 442 233 484 268V391C441 354 389 340 349 340C283 340 254 391 176 391Z" glyph-name="asciitilde" horiz-adv-x="524" unicode="~" /><glyph d="M337 411 285 500 384 527 362 610 251 580V690H165V580L54 610L32 527L131 500L79 411L154 368L208 463L262 368Z" glyph-name="asterisk" horiz-adv-x="416" unicode="*" /><glyph d="M358 498V562H230V690H166V562H38V498H166V370H230V498ZM341 628 296 673 198 575 100 673 55 628 153 530 55 432 100 387 198 485 296 387 341 432 243 530Z" glyph-name="asterisk.ss08" horiz-adv-x="396" /><glyph d="M422 75C389 75 354 90 354 129C354 166 389 188 439 193L515 201V193C515 120 484 75 422 75ZM516 87H633V272C633 376 570 448 444 448C329 448 252 389 249 298H366C366 346 398 363 441 363C485 363 515 340 515 289V279L413 268C311 258 233 219 233 127C233 53 293 -10 390 -10C455 -10 502 24 516 87ZM519 87C540 21 587 -10 666 -10C756 -10 832 49 832 210H742C742 109 709 79 680 79C651 79 633 103 633 148ZM832 210C832 430 652 610 433 610C213 610 33 430 33 210C33 -10 213 -190 433 -190C509 -190 580 -169 640 -132L593 -55C546 -84 491 -100 433 -100C263 -100 123 40 123 210C123 380 263 520 433 520C602 520 742 380 742 210Z" glyph-name="at" horiz-adv-x="871" unicode="@" /><glyph d="M325 163 413 525V568H318L220 163ZM304 247H523V344H304ZM621 163C743 163 793 261 793 346C793 555 621 725 412 725C203 725 32 555 32 346C32 136 203 -35 412 -35C488 -35 558 -13 618 26L565 114C521 85 469 68 412 68C260 68 135 192 135 346C135 498 260 622 412 622C565 622 690 498 690 346C690 302 671 266 621 266H552V163ZM501 163H606L508 568H413V525Z" glyph-name="at.case" horiz-adv-x="808" /><glyph d="M512 74C533 8 597 -10 656 -10C750 -10 830 59 830 210H740C740 102 703 80 673 80C647 80 625 92 625 142ZM321 203C321 290 355 346 414 346C473 346 516 290 516 203C516 111 473 60 414 60C356 60 321 111 321 203ZM196 203C196 75 262 -26 374 -26C441 -26 491 16 509 74H625V423H512V330H509C491 390 441 432 374 432C268 432 196 326 196 203ZM830 210C830 430 650 610 431 610C211 610 31 430 31 210C31 -10 211 -190 431 -190C507 -190 578 -169 638 -132L591 -55C544 -84 489 -100 431 -100C261 -100 121 40 121 210C121 380 261 520 431 520C600 520 740 380 740 210Z" glyph-name="at.ss02" horiz-adv-x="866" /><glyph d="M246 86C208 86 169 104 169 148C169 191 208 212 265 218L350 227V221C350 138 314 86 246 86ZM351 98H354V0H485V309C485 429 414 510 270 510C139 510 51 444 48 342H183C187 394 220 414 267 414C314 414 350 389 350 331V317L236 305C119 293 30 249 30 146C30 61 98 -10 210 -10C282 -10 335 28 351 98ZM425 581V685C394 658 362 649 333 649C286 649 258 700 201 700C172 700 140 687 109 664V560C140 587 172 596 201 596C248 596 276 545 333 545C362 545 394 558 425 581Z" glyph-name="atilde" horiz-adv-x="538" unicode="&#227;" /><glyph d="M173 250C173 352 216 414 282 414C348 414 395 352 395 250C395 148 347 86 282 86C217 86 173 148 173 250ZM34 250C34 108 108 -10 238 -10C312 -10 367 37 387 103H391V0H522V500H391V397H387C367 463 312 510 238 510C114 510 34 392 34 250ZM438 581V685C407 658 375 649 346 649C299 649 271 700 214 700C185 700 153 687 122 664V560C153 587 185 596 214 596C261 596 289 545 346 545C375 545 407 558 438 581Z" glyph-name="atilde.ss02" horiz-adv-x="581" /><glyph d="M547 250C547 392 467 510 343 510C269 510 214 463 194 397H190V690H59V0H190V103H194C214 37 269 -10 343 -10C473 -10 547 108 547 250ZM297 86C226 86 186 148 186 250C186 352 226 414 297 414C368 414 408 352 408 250C408 148 368 86 297 86Z" glyph-name="b" horiz-adv-x="581" unicode="b" /><glyph d="M344 0 19 690H161L486 0Z" glyph-name="backslash" horiz-adv-x="506" unicode="\" /><glyph d="M69 -120H194V690H69Z" glyph-name="bar" horiz-adv-x="263" unicode="|" /><glyph d="M69 -60H209V750H69Z" glyph-name="bar.case" horiz-adv-x="278" /><glyph d="M29 183C104 179 115 139 115 37C115 -79 152 -127 194 -170H312C278 -122 250 -78 250 37C250 152 194 237 142 259V262C194 284 250 368 250 483C250 598 278 642 312 690H194C152 647 115 599 115 483C115 381 104 341 29 337Z" glyph-name="braceleft" horiz-adv-x="332" unicode="{" /><glyph d="M120 192C120 91 157 43 199 0H343C302 54 264 105 264 207C264 288 212 333 151 343V346C212 356 264 402 264 483C264 585 302 636 343 690H199C157 647 120 599 120 498C120 439 97 417 31 413V277C97 273 120 251 120 192Z" glyph-name="braceleft.case" horiz-adv-x="367" /><glyph d="M303 183C228 179 217 139 217 37C217 -79 180 -127 138 -170H20C54 -122 82 -78 82 37C82 152 138 237 190 259V262C138 284 82 368 82 483C82 598 54 642 20 690H138C180 647 217 599 217 483C217 381 228 341 303 337Z" glyph-name="braceright" horiz-adv-x="332" unicode="}" /><glyph d="M247 192C247 91 210 43 168 0H24C65 54 103 105 103 207C103 288 155 333 216 343V346C155 356 103 402 103 483C103 585 65 636 24 690H168C210 647 247 599 247 498C247 439 270 417 336 413V277C270 273 247 251 247 192Z" glyph-name="braceright.case" horiz-adv-x="367" /><glyph d="M69 -170H296V-74H204V594H296V690H69Z" glyph-name="bracketleft" horiz-adv-x="327" unicode="[" /><glyph d="M69 0H326V114H209V576H326V690H69Z" glyph-name="bracketleft.case" horiz-adv-x="361" /><glyph d="M258 -170H31V-74H123V594H31V690H258Z" glyph-name="bracketright" horiz-adv-x="327" unicode="]" /><glyph d="M292 0H35V114H152V576H35V690H292Z" glyph-name="bracketright.case" horiz-adv-x="361" /><glyph d="M167 635C133 635 105 651 105 690H20C20 617 76 555 167 555C258 555 314 617 314 690H229C229 651 201 635 167 635Z" glyph-name="breve" horiz-adv-x="334" unicode="&#728;" /><glyph d="M167 820C133 820 105 836 105 875H20C20 802 76 740 167 740C258 740 314 802 314 875H229C229 836 201 820 167 820Z" glyph-name="breve.case" horiz-adv-x="334" /><glyph d="M198 384V690H73V384ZM73 -120H198V186H73Z" glyph-name="brokenbar" horiz-adv-x="271" unicode="&#166;" /><glyph d="M213 444V750H73V444ZM73 -60H213V246H73Z" glyph-name="brokenbar.case" horiz-adv-x="286" /><glyph d="M218 102C306 102 376 172 376 260C376 348 306 418 218 418C130 418 60 348 60 260C60 172 130 102 218 102Z" glyph-name="bullet" horiz-adv-x="436" unicode="&#8226;" /><glyph d="M192 190C280 190 350 260 350 348C350 436 280 506 192 506C104 506 34 436 34 348C34 260 104 190 192 190Z" glyph-name="bullet.case" horiz-adv-x="384" /><glyph d="M32 250C32 113 128 -10 278 -10C391 -10 492 58 508 179H370C362 132 329 86 278 86C210 86 171 148 171 250C171 352 206 414 274 414C325 414 358 370 366 323H504C488 444 387 510 274 510C124 510 32 387 32 250Z" glyph-name="c" horiz-adv-x="532" unicode="c" /><glyph d="M32 250C32 113 128 -10 278 -10C391 -10 492 58 508 179H370C362 132 329 86 278 86C210 86 171 148 171 250C171 352 206 414 274 414C325 414 358 370 366 323H504C488 444 387 510 274 510C124 510 32 387 32 250ZM304 555 460 690H286L183 555Z" glyph-name="cacute" horiz-adv-x="532" unicode="&#263;" /><glyph d="M20 690H169L219 608L269 690H418L280 555H158Z" glyph-name="caron" horiz-adv-x="438" unicode="&#711;" /><glyph d="M20 875H169L219 793L269 875H418L280 740H158Z" glyph-name="caron.case" horiz-adv-x="438" /><glyph d="M133 526 246 690H91L20 526Z" glyph-name="caron.slovak" horiz-adv-x="266" /><glyph d="M32 250C32 113 128 -10 278 -10C391 -10 492 58 508 179H370C362 132 329 86 278 86C210 86 171 148 171 250C171 352 206 414 274 414C325 414 358 370 366 323H504C488 444 387 510 274 510C124 510 32 387 32 250ZM75 690H224L274 608L324 690H473L335 555H213Z" glyph-name="ccaron" horiz-adv-x="532" unicode="&#269;" /><glyph d="M32 250C32 113 128 -10 278 -10C391 -10 492 58 508 179H370C362 132 329 86 278 86C210 86 171 148 171 250C171 352 206 414 274 414C325 414 358 370 366 323H504C488 444 387 510 274 510C124 510 32 387 32 250ZM283 -177C324 -177 345 -149 345 -119C345 -89 324 -61 283 -61H262L301 10H239L180 -109H274C289 -109 297 -111 297 -119C297 -127 289 -129 274 -129H180V-177Z" glyph-name="ccedilla" horiz-adv-x="532" unicode="&#231;" /><glyph d="M32 250C32 113 128 -10 278 -10C391 -10 492 58 508 179H370C362 132 329 86 278 86C210 86 171 148 171 250C171 352 206 414 274 414C325 414 358 370 366 323H504C488 444 387 510 274 510C124 510 32 387 32 250ZM75 555H224L274 637L324 555H473L335 690H213Z" glyph-name="ccircumflex" horiz-adv-x="532" unicode="&#265;" /><glyph d="M32 250C32 113 128 -10 278 -10C391 -10 492 58 508 179H370C362 132 329 86 278 86C210 86 171 148 171 250C171 352 206 414 274 414C325 414 358 370 366 323H504C488 444 387 510 274 510C124 510 32 387 32 250ZM203 560H338V686H203Z" glyph-name="cdotaccent" horiz-adv-x="532" unicode="&#267;" /><glyph d="M123 -177C164 -177 185 -149 185 -119C185 -89 164 -61 123 -61H102L141 10H79L20 -109H114C129 -109 137 -111 137 -119C137 -127 129 -129 114 -129H20V-177Z" glyph-name="cedilla" horiz-adv-x="205" unicode="&#184;" /><glyph d="M329 460V616H224V460ZM224 -120H329V55H224ZM37 250C37 113 133 -10 283 -10C396 -10 497 58 513 179H375C367 132 334 86 283 86C215 86 176 148 176 250C176 352 211 414 279 414C330 414 363 370 371 323H509C493 444 392 510 279 510C129 510 37 387 37 250Z" glyph-name="cent" horiz-adv-x="543" unicode="&#162;" /><glyph d="M20 555H169L219 637L269 555H418L280 690H158Z" glyph-name="circumflex" horiz-adv-x="438" unicode="&#710;" /><glyph d="M20 740H169L219 822L269 740H418L280 875H158Z" glyph-name="circumflex.case" horiz-adv-x="438" /><glyph d="M55 374H190V500H55ZM55 0H190V126H55Z" glyph-name="colon" horiz-adv-x="245" unicode=":" /><glyph d="M230 374H365V500H230ZM230 0H365V126H230Z" glyph-name="colon.tf" horiz-adv-x="595" /><glyph d="M118 -115 191 0V126H56V0H104L31 -115Z" glyph-name="comma" horiz-adv-x="247" unicode="," /><glyph d="M107 -259 180 -176V-50H45V-176H93L20 -259Z" glyph-name="commaaccent" horiz-adv-x="200" unicode="&#806;" /><glyph d="M390 -10C585 -10 745 150 745 345C745 540 585 700 390 700C194 700 35 540 35 345C35 150 194 -10 390 -10ZM390 80C245 80 125 201 125 345C125 490 245 610 390 610C535 610 655 490 655 345C655 201 535 80 390 80ZM196 345C196 228 276 135 393 135C488 135 570 195 582 292H491C484 235 444 209 399 209C336 209 292 262 292 345C292 428 334 481 394 481C443 481 480 458 489 397H580C568 494 487 555 392 555C275 555 196 462 196 345Z" glyph-name="copyright" horiz-adv-x="780" unicode="&#169;" /><glyph d="M304 242C246 242 198 286 198 348C198 410 246 454 304 454C362 454 409 410 409 348C409 286 362 242 304 242ZM304 124C427 124 527 225 527 348C527 471 427 572 304 572C181 572 80 471 80 348C80 225 181 124 304 124ZM181 303 43 165 121 87 259 225ZM565 531 487 609 353 475 431 397ZM259 471 121 609 43 531 181 393ZM487 87 565 165 431 299 353 221Z" glyph-name="currency" horiz-adv-x="608" unicode="&#164;" /><glyph d="M34 250C34 108 108 -10 238 -10C312 -10 367 37 387 103H391V0H522V690H391V397H387C367 463 312 510 238 510C114 510 34 392 34 250ZM284 86C213 86 173 148 173 250C173 352 213 414 284 414C355 414 395 352 395 250C395 148 355 86 284 86Z" glyph-name="d" horiz-adv-x="581" unicode="d" /><glyph d="M327 0V690H192V0ZM36 500V404H483V500Z" glyph-name="dagger" horiz-adv-x="519" unicode="&#8224;" /><glyph d="M327 0V690H192V0ZM36 500V404H483V500ZM36 315V219H483V315Z" glyph-name="daggerdbl" horiz-adv-x="519" unicode="&#8225;" /><glyph d="M34 250C34 108 108 -10 238 -10C312 -10 367 37 387 103H391V0H522V690H391V397H387C367 463 312 510 238 510C114 510 34 392 34 250ZM284 86C213 86 173 148 173 250C173 352 213 414 284 414C355 414 395 352 395 250C395 148 355 86 284 86ZM675 526 788 690H633L562 526Z" glyph-name="dcaron" horiz-adv-x="611" unicode="&#271;" /><glyph d="M300 547H582V643H300ZM34 250C34 108 108 -10 238 -10C312 -10 367 37 387 103H391V0H522V690H391V397H387C367 463 312 510 238 510C114 510 34 392 34 250ZM284 86C213 86 173 148 173 250C173 352 213 414 284 414C355 414 395 352 395 250C395 148 355 86 284 86Z" glyph-name="dcroat" horiz-adv-x="581" unicode="&#273;" /><glyph d="M188 386C274 386 345 457 345 543C345 630 274 700 188 700C101 700 31 630 31 543C31 457 101 386 188 386ZM188 482C155 482 127 509 127 543C127 576 155 604 188 604C222 604 249 576 249 543C249 509 222 482 188 482Z" glyph-name="degree" horiz-adv-x="376" unicode="&#176;" /><glyph d="M20 560H155V686H20ZM221 560H356V686H221Z" glyph-name="dieresis" horiz-adv-x="376" unicode="&#168;" /><glyph d="M20 745H155V871H20ZM221 745H356V871H221Z" glyph-name="dieresis.case" horiz-adv-x="376" /><glyph d="M520 219V322H40V219ZM212 30H347V156H212ZM212 384H347V510H212Z" glyph-name="divide" horiz-adv-x="560" unicode="&#247;" /><glyph d="M520 297V400H40V297ZM212 108H347V234H212ZM212 462H347V588H212Z" glyph-name="divide.case" horiz-adv-x="560" /><glyph d="M366 641V804H261V641ZM261 -120H366V38H261ZM333 -10C489 -10 615 75 615 201C615 299 554 374 421 405L314 430C224 451 186 466 186 508C186 556 238 586 307 586C363 586 439 567 448 485H593C581 604 487 700 307 700C158 700 42 615 42 496C42 400 108 335 233 306L340 281C429 260 473 238 473 190C473 135 414 104 339 104C250 104 184 161 176 243H31C44 124 148 -10 333 -10Z" glyph-name="dollar" horiz-adv-x="644" unicode="$" /><glyph d="M20 560H155V686H20Z" glyph-name="dotaccent" horiz-adv-x="175" unicode="&#729;" /><glyph d="M20 745H155V871H20Z" glyph-name="dotaccent.case" horiz-adv-x="175" /><glyph d="M59 0H194V500H59Z" glyph-name="dotlessi" horiz-adv-x="253" unicode="&#305;" /><glyph d="M194 500H59V-12C59 -60 42 -74 0 -74H-25V-170H40C142 -170 194 -142 194 -22Z" glyph-name="dotlessj" horiz-adv-x="253" unicode="&#567;" /><glyph d="M271 414C330 414 367 372 374 300H167C173 372 213 414 271 414ZM364 151C351 113 320 86 278 86C217 86 172 126 166 204H510C527 385 420 510 271 510C122 510 32 387 32 250C32 113 123 -10 272 -10C379 -10 475 42 498 151Z" glyph-name="e" horiz-adv-x="542.7753" unicode="e" /><glyph d="M315 555 471 690H297L194 555ZM271 414C330 414 367 372 374 300H167C173 372 213 414 271 414ZM364 151C351 113 320 86 278 86C217 86 172 126 166 204H510C527 385 420 510 271 510C122 510 32 387 32 250C32 113 123 -10 272 -10C379 -10 475 42 498 151Z" glyph-name="eacute" horiz-adv-x="542.7753" unicode="&#233;" /><glyph d="M271 414C330 414 367 372 374 300H167C173 372 213 414 271 414ZM364 151C351 113 320 86 278 86C217 86 172 126 166 204H510C527 385 420 510 271 510C122 510 32 387 32 250C32 113 123 -10 272 -10C379 -10 475 42 498 151ZM271 635C237 635 209 651 209 690H124C124 617 180 555 271 555C362 555 418 617 418 690H333C333 651 305 635 271 635Z" glyph-name="ebreve" horiz-adv-x="542.7753" unicode="&#277;" /><glyph d="M271 414C330 414 367 372 374 300H167C173 372 213 414 271 414ZM364 151C351 113 320 86 278 86C217 86 172 126 166 204H510C527 385 420 510 271 510C122 510 32 387 32 250C32 113 123 -10 272 -10C379 -10 475 42 498 151ZM72 690H221L271 608L321 690H470L332 555H210Z" glyph-name="ecaron" horiz-adv-x="542.7753" unicode="&#283;" /><glyph d="M271 414C330 414 367 372 374 300H167C173 372 213 414 271 414ZM364 151C351 113 320 86 278 86C217 86 172 126 166 204H510C527 385 420 510 271 510C122 510 32 387 32 250C32 113 123 -10 272 -10C379 -10 475 42 498 151ZM72 555H221L271 637L321 555H470L332 690H210Z" glyph-name="ecircumflex" horiz-adv-x="542.7753" unicode="&#234;" /><glyph d="M103 560H238V686H103ZM304 560H439V686H304ZM271 414C330 414 367 372 374 300H167C173 372 213 414 271 414ZM364 151C351 113 320 86 278 86C217 86 172 126 166 204H510C527 385 420 510 271 510C122 510 32 387 32 250C32 113 123 -10 272 -10C379 -10 475 42 498 151Z" glyph-name="edieresis" horiz-adv-x="542.7753" unicode="&#235;" /><glyph d="M271 414C330 414 367 372 374 300H167C173 372 213 414 271 414ZM364 151C351 113 320 86 278 86C217 86 172 126 166 204H510C527 385 420 510 271 510C122 510 32 387 32 250C32 113 123 -10 272 -10C379 -10 475 42 498 151ZM203 560H338V686H203Z" glyph-name="edotaccent" horiz-adv-x="542.7753" unicode="&#279;" /><glyph d="M236 555H357L254 690H80ZM271 414C330 414 367 372 374 300H167C173 372 213 414 271 414ZM364 151C351 113 320 86 278 86C217 86 172 126 166 204H510C527 385 420 510 271 510C122 510 32 387 32 250C32 113 123 -10 272 -10C379 -10 475 42 498 151Z" glyph-name="egrave" horiz-adv-x="542.7753" unicode="&#232;" /><glyph d="M306 -10C460 -10 572 79 572 197C572 298 490 352 427 367V370C484 390 552 437 552 518C552 623 447 700 306 700C165 700 60 623 60 518C60 437 128 390 185 370V367C122 352 40 298 40 197C40 79 152 -10 306 -10ZM306 419C244 419 199 459 199 512C199 565 244 604 306 604C368 604 413 565 413 512C413 459 368 419 306 419ZM306 86C234 86 179 136 179 203C179 270 234 319 306 319C378 319 433 270 433 203C433 136 378 86 306 86Z" glyph-name="eight" horiz-adv-x="612" unicode="8" /><glyph d="M297 -10C451 -10 563 79 563 197C563 298 481 352 418 367V370C475 390 543 437 543 518C543 623 438 700 297 700C156 700 51 623 51 518C51 437 119 390 176 370V367C113 352 31 298 31 197C31 79 143 -10 297 -10ZM297 419C235 419 190 459 190 512C190 565 235 604 297 604C359 604 404 565 404 512C404 459 359 419 297 419ZM297 86C225 86 170 136 170 203C170 270 225 319 297 319C369 319 424 270 424 203C424 136 369 86 297 86Z" glyph-name="eight.tf" horiz-adv-x="595" /><glyph d="M54 0H189V126H54ZM297 0H432V126H297ZM540 0H675V126H540Z" glyph-name="ellipsis" horiz-adv-x="729" unicode="&#8230;" /><glyph d="M271 414C330 414 367 372 374 300H167C173 372 213 414 271 414ZM364 151C351 113 320 86 278 86C217 86 172 126 166 204H510C527 385 420 510 271 510C122 510 32 387 32 250C32 113 123 -10 272 -10C379 -10 475 42 498 151ZM110 570H431V676H110Z" glyph-name="emacron" horiz-adv-x="542.7753" unicode="&#275;" /><glyph d="M736 212V308H55V212Z" glyph-name="emdash" horiz-adv-x="791" unicode="&#8212;" /><glyph d="M736 298V394H55V298Z" glyph-name="emdash.case" horiz-adv-x="791" /><glyph d="M437 212V308H55V212Z" glyph-name="endash" horiz-adv-x="492" unicode="&#8211;" /><glyph d="M437 298V394H55V298Z" glyph-name="endash.case" horiz-adv-x="492" /><glyph d="M488 298V394H106V298Z" glyph-name="endash.tf" horiz-adv-x="595" /><glyph d="M194 281C194 374 226 414 278 414C330 414 362 378 362 275V0H497V311C497 437 446 510 334 510C262 510 209 472 193 402H190V500H59V0H194ZM362 0V-12C362 -60 345 -74 303 -74H278V-170H343C445 -170 497 -142 497 -22V0Z" glyph-name="eng" horiz-adv-x="551" unicode="&#331;" /><glyph d="M271 414C330 414 367 372 374 300H167C173 372 213 414 271 414ZM364 151C351 113 320 86 278 86C217 86 172 126 166 204H510C527 385 420 510 271 510C122 510 32 387 32 250C32 113 123 -10 272 -10C379 -10 475 42 498 151ZM214 0C171 -16 141 -51 141 -90C141 -150 196 -170 294 -170H349V-87H328C284 -87 262 -83 262 -62C262 -36 306 -17 349 0Z" glyph-name="eogonek" horiz-adv-x="542.7753" unicode="&#281;" /><glyph d="M520 122V225H40V122ZM520 315V418H40V315Z" glyph-name="equal" horiz-adv-x="560" unicode="=" /><glyph d="M520 200V303H40V200ZM520 393V496H40V393Z" glyph-name="equal.case" horiz-adv-x="560" /><glyph d="M282 86C216 86 171 148 171 250C171 352 214 414 280 414C346 414 393 352 393 250C393 148 348 86 282 86ZM127 690C283 582 363 504 389 397H385C365 463 310 510 236 510C112 510 32 392 32 250C32 113 128 -10 282 -10C436 -10 532 111 532 275C532 478 445 590 320 690ZM209 534 447 646 420 700 182 588Z" glyph-name="eth" horiz-adv-x="569" unicode="&#240;" /><glyph d="M531 357 572 447H102L61 357ZM495 219 536 309H66L25 219ZM462 -10C615 -10 738 102 759 255H619C606 159 540 104 462 104C362 104 296 193 296 345C296 497 358 586 458 586C536 586 602 531 615 435H755C734 588 611 700 458 700C276 700 152 542 152 345C152 148 280 -10 462 -10Z" glyph-name="euro" horiz-adv-x="801" unicode="&#8364;" /><glyph d="M65 0H200V126H65ZM174 211 213 690H52L91 211Z" glyph-name="exclam" horiz-adv-x="265" unicode="!" /><glyph d="M65 0H200V126H65ZM174 211 213 690H52L91 211Z" glyph-name="exclam.case" horiz-adv-x="265" /><glyph d="M60 500H195V374H60ZM169 289 208 -190H47L86 289Z" glyph-name="exclamdown" horiz-adv-x="255" unicode="&#161;" /><glyph d="M65 690H200V564H65ZM174 479 213 0H52L91 479Z" glyph-name="exclamdown.case" horiz-adv-x="265" /><glyph d="M347 404V500H236V541C236 586 251 594 285 594H343V690H221C148 690 101 657 101 583V500H26V404H101V0H236V404Z" glyph-name="f" horiz-adv-x="358" unicode="f" /><glyph d="M284 404H519V500H284ZM705 404V500H594V541C594 586 609 594 643 594H701V690H579C506 690 459 657 459 583V500H384V404H459V0H594V404ZM347 404V500H236V541C236 586 251 594 285 594H343V690H221C148 690 101 657 101 583V500H26V404H101V0H236V404Z" glyph-name="f_f" horiz-adv-x="716" unicode="&#64256;" /><glyph d="M285 404H820V500H285ZM775 0H910V500H775ZM775 564H910V690H775ZM347 404V500H236V541C236 586 251 594 285 594H343V690H221C148 690 101 657 101 583V500H26V404H101V0H236V404ZM705 404V500H594V541C594 586 609 594 643 594H701V690H579C506 690 459 657 459 583V500H384V404H459V0H594V404Z" glyph-name="f_f_i" horiz-adv-x="969" unicode="&#64259;" /><glyph d="M271 404H806V500H271ZM775 0H910V690H775ZM347 404V500H236V541C236 586 251 594 285 594H343V690H221C148 690 101 657 101 583V500H26V404H101V0H236V404ZM705 404V500H594V541C594 586 609 594 643 594H701V690H579C506 690 459 657 459 583V500H384V404H459V0H594V404Z" glyph-name="f_f_l" horiz-adv-x="969" unicode="&#64260;" /><glyph d="M417 0H552V500H417ZM417 564H552V690H417ZM272 404H507V500H272ZM347 404V500H236V541C236 586 251 594 285 594H343V690H221C148 690 101 657 101 583V500H26V404H101V0H236V404Z" glyph-name="f_i" horiz-adv-x="611" unicode="&#64257;" /><glyph d="M332 594H552V690H332ZM417 0H552V690H417ZM347 404V500H236V541C236 586 251 594 285 594H343V690H221C148 690 101 657 101 583V500H26V404H101V0H236V404Z" glyph-name="f_l" horiz-adv-x="611" unicode="&#64258;" /><glyph d="M285 404H520V500H285ZM701 500H590V614H455V500H380V404H455V107C455 33 502 0 575 0H697V96H639C605 96 590 104 590 149V404H701ZM347 404V500H236V541C236 586 251 594 285 594H343V690H221C148 690 101 657 101 583V500H26V404H101V0H236V404Z" glyph-name="f_t" horiz-adv-x="723" /><glyph d="M425 240C425 158 384 86 308 86C231 86 189 144 185 217H50C58 71 169 -10 304 -10C447 -10 564 86 564 240C564 394 459 487 338 487C267 487 218 454 194 402H191V594H523V690H56V308H191C209 352 247 390 302 390C384 390 425 322 425 240Z" glyph-name="five" horiz-adv-x="596" unicode="5" /><glyph d="M424 240C424 158 383 86 307 86C230 86 188 144 184 217H49C57 71 168 -10 303 -10C446 -10 563 86 563 240C563 394 458 487 337 487C266 487 217 454 193 402H190V594H522V690H55V308H190C208 352 246 390 301 390C383 390 424 322 424 240Z" glyph-name="five.tf" horiz-adv-x="595" /><glyph d="M501 690H240L17 262V186H366V0H501V186H582V282H501ZM366 650V282H174Z" glyph-name="four" horiz-adv-x="615" unicode="4" /><glyph d="M491 690H230L7 262V186H356V0H491V186H572V282H491ZM356 650V282H164Z" glyph-name="four.tf" horiz-adv-x="595" /><glyph d="M173 260C173 362 216 414 284 414C352 414 395 362 395 260C395 158 352 106 284 106C216 106 173 158 173 260ZM391 25C391 -53 351 -84 295 -84C254 -84 207 -72 198 -20H65C73 -136 183 -180 295 -180C412 -180 522 -122 522 31V500H391V397H387C367 463 312 510 238 510C114 510 34 402 34 260C34 118 114 10 238 10C312 10 367 57 387 123H391Z" glyph-name="g" horiz-adv-x="581" unicode="g" /><glyph d="M342 -74H116V-170H402C475 -170 522 -137 522 -63V500H391V397H387C367 463 312 510 238 510C114 510 34 392 34 250C34 108 108 -10 238 -10C312 -10 367 37 387 103H391V-21C391 -66 376 -74 342 -74ZM173 250C173 352 216 414 282 414C348 414 395 352 395 250C395 148 347 85 282 85C217 85 173 148 173 250Z" glyph-name="g.ss03" horiz-adv-x="581" /><glyph d="M173 260C173 362 216 414 284 414C352 414 395 362 395 260C395 158 352 106 284 106C216 106 173 158 173 260ZM391 25C391 -53 351 -84 295 -84C254 -84 207 -72 198 -20H65C73 -136 183 -180 295 -180C412 -180 522 -122 522 31V500H391V397H387C367 463 312 510 238 510C114 510 34 402 34 260C34 118 114 10 238 10C312 10 367 57 387 123H391ZM292 635C258 635 230 651 230 690H145C145 617 201 555 292 555C383 555 439 617 439 690H354C354 651 326 635 292 635Z" glyph-name="gbreve" horiz-adv-x="581" unicode="&#287;" /><glyph d="M342 -74H116V-170H402C475 -170 522 -137 522 -63V500H391V397H387C367 463 312 510 238 510C114 510 34 392 34 250C34 108 108 -10 238 -10C312 -10 367 37 387 103H391V-21C391 -66 376 -74 342 -74ZM173 250C173 352 216 414 282 414C348 414 395 352 395 250C395 148 347 85 282 85C217 85 173 148 173 250ZM291 635C257 635 229 651 229 690H144C144 617 200 555 291 555C382 555 438 617 438 690H353C353 651 325 635 291 635Z" glyph-name="gbreve.ss03" horiz-adv-x="581" /><glyph d="M173 260C173 362 216 414 284 414C352 414 395 362 395 260C395 158 352 106 284 106C216 106 173 158 173 260ZM391 25C391 -53 351 -84 295 -84C254 -84 207 -72 198 -20H65C73 -136 183 -180 295 -180C412 -180 522 -122 522 31V500H391V397H387C367 463 312 510 238 510C114 510 34 402 34 260C34 118 114 10 238 10C312 10 367 57 387 123H391ZM95 555H244L294 637L344 555H493L355 690H233Z" glyph-name="gcircumflex" horiz-adv-x="581" unicode="&#285;" /><glyph d="M342 -74H116V-170H402C475 -170 522 -137 522 -63V500H391V397H387C367 463 312 510 238 510C114 510 34 392 34 250C34 108 108 -10 238 -10C312 -10 367 37 387 103H391V-21C391 -66 376 -74 342 -74ZM173 250C173 352 216 414 282 414C348 414 395 352 395 250C395 148 347 85 282 85C217 85 173 148 173 250ZM99 555H248L298 637L348 555H497L359 690H237Z" glyph-name="gcircumflex.ss03" horiz-adv-x="581" /><glyph d="M173 260C173 362 216 414 284 414C352 414 395 362 395 260C395 158 352 106 284 106C216 106 173 158 173 260ZM391 25C391 -53 351 -84 295 -84C254 -84 207 -72 198 -20H65C73 -136 183 -180 295 -180C412 -180 522 -122 522 31V500H391V397H387C367 463 312 510 238 510C114 510 34 402 34 260C34 118 114 10 238 10C312 10 367 57 387 123H391ZM278 769 205 686V560H340V686H292L365 769Z" glyph-name="gcommaaccent" horiz-adv-x="581" unicode="&#291;" /><glyph d="M342 -74H116V-170H402C475 -170 522 -137 522 -63V500H391V397H387C367 463 312 510 238 510C114 510 34 392 34 250C34 108 108 -10 238 -10C312 -10 367 37 387 103H391V-21C391 -66 376 -74 342 -74ZM173 250C173 352 216 414 282 414C348 414 395 352 395 250C395 148 347 85 282 85C217 85 173 148 173 250ZM282 769 209 686V560H344V686H296L369 769Z" glyph-name="gcommaaccent.ss03" horiz-adv-x="581" /><glyph d="M173 260C173 362 216 414 284 414C352 414 395 362 395 260C395 158 352 106 284 106C216 106 173 158 173 260ZM391 25C391 -53 351 -84 295 -84C254 -84 207 -72 198 -20H65C73 -136 183 -180 295 -180C412 -180 522 -122 522 31V500H391V397H387C367 463 312 510 238 510C114 510 34 402 34 260C34 118 114 10 238 10C312 10 367 57 387 123H391ZM205 560H340V686H205Z" glyph-name="gdotaccent" horiz-adv-x="581" unicode="&#289;" /><glyph d="M342 -74H116V-170H402C475 -170 522 -137 522 -63V500H391V397H387C367 463 312 510 238 510C114 510 34 392 34 250C34 108 108 -10 238 -10C312 -10 367 37 387 103H391V-21C391 -66 376 -74 342 -74ZM173 250C173 352 216 414 282 414C348 414 395 352 395 250C395 148 347 85 282 85C217 85 173 148 173 250ZM209 560H344V686H209Z" glyph-name="gdotaccent.ss03" horiz-adv-x="581" /><glyph d="M194 0V472C194 570 240 604 290 604C349 604 387 572 387 517C387 462 363 409 254 406V310C358 309 424 274 424 203C424 132 386 96 276 96H240V0H316C472 0 563 69 563 191C563 293 464 347 379 357V360C464 372 526 433 526 516C526 630 427 700 293 700C159 700 59 618 59 454V0Z" glyph-name="germandbls" horiz-adv-x="594" unicode="&#223;" /><glyph d="M176 555H297L194 690H20Z" glyph-name="grave" horiz-adv-x="317" unicode="`" /><glyph d="M176 740H297L194 875H20Z" glyph-name="grave.case" horiz-adv-x="317" /><glyph d="M66 46V156L398 270L66 384V494L513 340V200Z" glyph-name="greater" horiz-adv-x="560" unicode="&gt;" /><glyph d="M72 124V234L404 348L72 462V572L519 418V278Z" glyph-name="greater.case" horiz-adv-x="560" /><glyph d="M59 23V126H506V23ZM59 156V255L391 333L59 411V510L506 405V261Z" glyph-name="greaterequal" horiz-adv-x="560" unicode="&#8805;" /><glyph d="M60 101V204H507V101ZM60 234V333L392 411L60 489V588L507 483V339Z" glyph-name="greaterequal.case" horiz-adv-x="560" /><glyph d="M26 263 160 54H322L182 263L322 462H160ZM277 263 411 54H573L433 263L573 462H411Z" glyph-name="guillemotleft" horiz-adv-x="605" unicode="&#171;" /><glyph d="M23 346 157 137H319L179 346L319 545H157ZM274 346 408 137H570L430 346L570 545H408Z" glyph-name="guillemotleft.case" horiz-adv-x="601" /><glyph d="M579 263 445 54H283L423 263L283 462H445ZM328 263 194 54H32L172 263L32 462H194Z" glyph-name="guillemotright" horiz-adv-x="605" unicode="&#187;" /><glyph d="M578 346 444 137H282L422 346L282 545H444ZM327 346 193 137H31L171 346L31 545H193Z" glyph-name="guillemotright.case" horiz-adv-x="601" /><glyph d="M26 263 160 54H322L182 263L322 462H160Z" glyph-name="guilsinglleft" horiz-adv-x="354" unicode="&#8249;" /><glyph d="M23 346 157 137H319L179 346L319 545H157Z" glyph-name="guilsinglleft.case" horiz-adv-x="350" /><glyph d="M328 263 194 54H32L172 263L32 462H194Z" glyph-name="guilsinglright" horiz-adv-x="354" unicode="&#8250;" /><glyph d="M327 346 193 137H31L171 346L31 545H193Z" glyph-name="guilsinglright.case" horiz-adv-x="350" /><glyph d="M59 690V0H194V281C194 374 226 414 278 414C330 414 362 378 362 275V0H497V311C497 437 446 510 334 510C262 510 209 472 193 402H190V690Z" glyph-name="h" horiz-adv-x="551" unicode="h" /><glyph d="M281 547V643H-1V547ZM59 690V0H194V281C194 374 226 414 278 414C330 414 362 378 362 275V0H497V311C497 437 446 510 334 510C262 510 209 472 193 402H190V690Z" glyph-name="hbar" horiz-adv-x="551" unicode="&#295;" /><glyph d="M59 690V0H194V281C194 374 226 414 278 414C330 414 362 378 362 275V0H497V311C497 437 446 510 334 510C262 510 209 472 193 402H190V690ZM-75 715H74L124 797L174 715H323L185 850H63Z" glyph-name="hcircumflex" horiz-adv-x="551" unicode="&#293;" /><glyph d="M141 555 283 690H109L20 555ZM341 555 483 690H309L220 555Z" glyph-name="hungarumlaut" horiz-adv-x="503" unicode="&#733;" /><glyph d="M141 740 283 875H109L20 740ZM341 740 483 875H309L220 740Z" glyph-name="hungarumlaut.case" horiz-adv-x="503" /><glyph d="M352 212V308H55V212Z" glyph-name="hyphen" horiz-adv-x="407" unicode="-" /><glyph d="M352 298V394H55V298Z" glyph-name="hyphen.case" horiz-adv-x="407" /><glyph d="M446 298V394H149V298Z" glyph-name="hyphen.tf" horiz-adv-x="595" /><glyph d="M59 0H194V500H59ZM59 564H194V690H59Z" glyph-name="i" horiz-adv-x="253" unicode="i" /><glyph d="M59 0H194V500H59ZM186 555 342 690H168L65 555Z" glyph-name="iacute" horiz-adv-x="253" unicode="&#237;" /><glyph d="M59 0H194V500H59ZM127 635C93 635 65 651 65 690H-20C-20 617 36 555 127 555C218 555 274 617 274 690H189C189 651 161 635 127 635Z" glyph-name="ibreve" horiz-adv-x="253" unicode="&#301;" /><glyph d="M59 0H194V500H59ZM-72 555H77L127 637L177 555H326L188 690H66Z" glyph-name="icircumflex" horiz-adv-x="253" unicode="&#238;" /><glyph d="M59 0H194V500H59ZM-41 560H94V686H-41ZM160 560H295V686H160Z" glyph-name="idieresis" horiz-adv-x="253" unicode="&#239;" /><glyph d="M59 -176H194V-50H59ZM59 0H194V500H59ZM59 564H194V690H59Z" glyph-name="idotaccent" horiz-adv-x="253" unicode="&#7883;" /><glyph d="M59 0H194V500H59ZM67 555H188L85 690H-89Z" glyph-name="igrave" horiz-adv-x="253" unicode="&#236;" /><glyph d="M59 0H194V500H59ZM-34 570H287V676H-34Z" glyph-name="imacron" horiz-adv-x="253" unicode="&#299;" /><glyph d="M59 0H194V500H59ZM59 564H194V690H59ZM59 0C16 -16 -14 -51 -14 -90C-14 -150 41 -170 139 -170H194V-87H173C129 -87 107 -83 107 -62C107 -36 151 -17 194 0Z" glyph-name="iogonek" horiz-adv-x="253" unicode="&#303;" /><glyph d="M59 0H194V500H59ZM285 581V685C254 658 222 649 193 649C146 649 118 700 61 700C32 700 0 687 -31 664V560C0 587 32 596 61 596C108 596 136 545 193 545C222 545 254 558 285 581Z" glyph-name="itilde" horiz-adv-x="253" unicode="&#297;" /><glyph d="M194 500H59V-12C59 -60 42 -74 0 -74H-25V-170H40C142 -170 194 -142 194 -22ZM59 564H194V690H59Z" glyph-name="j" horiz-adv-x="253" unicode="j" /><glyph d="M194 500H59V-12C59 -60 42 -74 0 -74H-25V-170H40C142 -170 194 -142 194 -22ZM-72 555H77L127 637L177 555H326L188 690H66Z" glyph-name="jcircumflex" horiz-adv-x="253" unicode="&#309;" /><glyph d="M384 0H552L335 279L542 500H377L194 305V690H59V0H194V245Z" glyph-name="k" horiz-adv-x="551" unicode="k" /><glyph d="M424 283 566 500H412L270 283ZM399 0H572L318 311H194V690H59V0H194V251Z" glyph-name="k.ss04" horiz-adv-x="571" /><glyph d="M384 0H552L335 279L542 500H377L194 305V690H59V0H194V245ZM282 -259 355 -176V-50H220V-176H268L195 -259Z" glyph-name="kcommaaccent" horiz-adv-x="551" unicode="&#311;" /><glyph d="M424 283 566 500H412L270 283ZM399 0H572L318 311H194V690H59V0H194V251ZM282 -259 355 -176V-50H220V-176H268L195 -259Z" glyph-name="kcommaaccent.ss04" horiz-adv-x="571" /><glyph d="M59 0H194V690H59Z" glyph-name="l" horiz-adv-x="253" unicode="l" /><glyph d="M59 0H194V690H59ZM186 730 342 865H168L65 730Z" glyph-name="lacute" horiz-adv-x="253" unicode="&#314;" /><glyph d="M59 0H194V690H59ZM347 526 460 690H305L234 526Z" glyph-name="lcaron" horiz-adv-x="283" unicode="&#318;" /><glyph d="M59 0H194V690H59ZM121 -259 194 -176V-50H59V-176H107L34 -259Z" glyph-name="lcommaaccent" horiz-adv-x="253" unicode="&#316;" /><glyph d="M59 0H194V690H59ZM253 287H388V413H253Z" glyph-name="ldot" horiz-adv-x="388" unicode="&#320;" /><glyph d="M494 46V156L162 270L494 384V494L47 340V200Z" glyph-name="less" horiz-adv-x="560" unicode="&lt;" /><glyph d="M488 124V234L156 348L488 462V572L41 418V278Z" glyph-name="less.case" horiz-adv-x="560" /><glyph d="M501 23V126H54V23ZM501 156V255L169 333L501 411V510L54 405V261Z" glyph-name="lessequal" horiz-adv-x="560" unicode="&#8804;" /><glyph d="M500 101V204H53V101ZM500 234V333L168 411L500 489V588L53 483V339Z" glyph-name="lessequal.case" horiz-adv-x="560" /><glyph d="M510 424H30V321H407V117H510Z" glyph-name="logicalnot" horiz-adv-x="560" unicode="&#172;" /><glyph d="M503 502H23V399H400V195H503Z" glyph-name="logicalnot.case" horiz-adv-x="560" /><glyph d="M292 352V476L32 335V211ZM95 0H230V690H95Z" glyph-name="lslash" horiz-adv-x="328" unicode="&#322;" /><glyph d="M194 281C194 374 224 414 276 414C328 414 357 378 357 275V0H492V281C492 374 522 414 574 414C626 414 655 378 655 275V0H790V311C790 437 739 510 627 510C550 510 500 473 483 402H480C460 471 410 510 329 510C257 510 209 472 193 402H190V500H59V0H194Z" glyph-name="m" horiz-adv-x="844" unicode="m" /><glyph d="M20 570H341V676H20Z" glyph-name="macron" horiz-adv-x="361" unicode="&#175;" /><glyph d="M20 755H341V861H20Z" glyph-name="macron.case" horiz-adv-x="361" /><glyph d="M520 219V322H40V219Z" glyph-name="minus" horiz-adv-x="560" unicode="&#8722;" /><glyph d="M520 297V400H40V297Z" glyph-name="minus.case" horiz-adv-x="560" /><glyph d="M498 419 428 489 280 341 132 489 62 419 210 271 61 122 131 52 280 201 429 52 499 122 350 271Z" glyph-name="multiply" horiz-adv-x="560" unicode="&#215;" /><glyph d="M498 497 428 567 280 419 132 567 62 497 210 349 61 200 131 130 280 279 429 130 499 200 350 349Z" glyph-name="multiply.case" horiz-adv-x="560" /><glyph d="M194 281C194 374 226 414 278 414C330 414 362 378 362 275V0H497V311C497 437 446 510 334 510C262 510 209 472 193 402H190V500H59V0H194Z" glyph-name="n" horiz-adv-x="551" unicode="n" /><glyph d="M194 281C194 374 226 414 278 414C330 414 362 378 362 275V0H497V311C497 437 446 510 334 510C262 510 209 472 193 402H190V500H59V0H194ZM316 555 472 690H298L195 555Z" glyph-name="nacute" horiz-adv-x="551" unicode="&#324;" /><glyph d="M194 281C194 374 226 414 278 414C330 414 362 378 362 275V0H497V311C497 437 446 510 334 510C262 510 209 472 193 402H190V500H59V0H194ZM68 690H217L267 608L317 690H466L328 555H206Z" glyph-name="ncaron" horiz-adv-x="551" unicode="&#328;" /><glyph d="M194 281C194 374 226 414 278 414C330 414 362 378 362 275V0H497V311C497 437 446 510 334 510C262 510 209 472 193 402H190V500H59V0H194ZM273 -259 346 -176V-50H211V-176H259L186 -259Z" glyph-name="ncommaaccent" horiz-adv-x="551" unicode="&#326;" /><glyph d="M40 461C40 306 152 224 293 224C365 224 424 259 450 307H453C453 136 386 86 308 86C254 86 200 126 192 190H57C73 54 185 -10 304 -10C477 -10 584 129 584 350C584 547 495 700 305 700C167 700 40 616 40 461ZM311 604C385 604 450 549 450 461C450 373 392 320 309 320C230 320 179 378 179 461C179 549 237 604 311 604Z" glyph-name="nine" horiz-adv-x="625" unicode="9" /><glyph d="M25 461C25 306 137 224 278 224C350 224 409 259 435 307H438C438 136 371 86 293 86C239 86 185 126 177 190H42C58 54 170 -10 289 -10C462 -10 569 129 569 350C569 547 480 700 290 700C152 700 25 616 25 461ZM296 604C370 604 435 549 435 461C435 373 377 320 294 320C215 320 164 378 164 461C164 549 222 604 296 604Z" glyph-name="nine.tf" horiz-adv-x="595" /><glyph d="M59 30H191L501 510H369ZM520 122V225H40V122ZM520 315V418H40V315Z" glyph-name="notequal" horiz-adv-x="560" unicode="&#8800;" /><glyph d="M59 108H191L501 588H369ZM520 200V303H40V200ZM520 393V496H40V393Z" glyph-name="notequal.case" horiz-adv-x="560" /><glyph d="M194 281C194 374 226 414 278 414C330 414 362 378 362 275V0H497V311C497 437 446 510 334 510C262 510 209 472 193 402H190V500H59V0H194ZM433 581V685C402 658 370 649 341 649C294 649 266 700 209 700C180 700 148 687 117 664V560C148 587 180 596 209 596C256 596 284 545 341 545C370 545 402 558 433 581Z" glyph-name="ntilde" horiz-adv-x="551" unicode="&#241;" /><glyph d="M82 407H671L697 500H108ZM115 0H220L359 690H254ZM27 178H616L642 271H53ZM355 0H460L599 690H494Z" glyph-name="numbersign" horiz-adv-x="724" unicode="#" /><glyph d="M282 86C211 86 171 148 171 250C171 352 211 414 282 414C353 414 393 352 393 250C393 148 353 86 282 86ZM282 -10C436 -10 532 113 532 250C532 387 436 510 282 510C128 510 32 387 32 250C32 113 128 -10 282 -10Z" glyph-name="o" horiz-adv-x="564" unicode="o" /><glyph d="M282 86C211 86 171 148 171 250C171 352 211 414 282 414C353 414 393 352 393 250C393 148 353 86 282 86ZM282 -10C436 -10 532 113 532 250C532 387 436 510 282 510C128 510 32 387 32 250C32 113 128 -10 282 -10ZM310 555 466 690H292L189 555Z" glyph-name="oacute" horiz-adv-x="564" unicode="&#243;" /><glyph d="M282 86C211 86 171 148 171 250C171 352 211 414 282 414C353 414 393 352 393 250C393 148 353 86 282 86ZM282 -10C436 -10 532 113 532 250C532 387 436 510 282 510C128 510 32 387 32 250C32 113 128 -10 282 -10ZM282 635C248 635 220 651 220 690H135C135 617 191 555 282 555C373 555 429 617 429 690H344C344 651 316 635 282 635Z" glyph-name="obreve" horiz-adv-x="564" unicode="&#335;" /><glyph d="M83 555H232L282 637L332 555H481L343 690H221ZM282 86C211 86 171 148 171 250C171 352 211 414 282 414C353 414 393 352 393 250C393 148 353 86 282 86ZM282 -10C436 -10 532 113 532 250C532 387 436 510 282 510C128 510 32 387 32 250C32 113 128 -10 282 -10Z" glyph-name="ocircumflex" horiz-adv-x="564" unicode="&#244;" /><glyph d="M282 86C211 86 171 148 171 250C171 352 211 414 282 414C353 414 393 352 393 250C393 148 353 86 282 86ZM282 -10C436 -10 532 113 532 250C532 387 436 510 282 510C128 510 32 387 32 250C32 113 128 -10 282 -10ZM114 560H249V686H114ZM315 560H450V686H315Z" glyph-name="odieresis" horiz-adv-x="564" unicode="&#246;" /><glyph d="M282 86C211 86 171 148 171 250C171 352 211 414 282 414C353 414 393 352 393 250C393 148 353 86 282 86ZM282 -10C436 -10 532 113 532 250C532 387 436 510 282 510C128 510 32 387 32 250C32 113 128 -10 282 -10ZM214 -190H349V-64H214Z" glyph-name="odotaccent" horiz-adv-x="564" unicode="&#7885;" /><glyph d="M282 86C211 86 171 148 171 250C171 352 211 414 282 414C353 414 393 352 393 250C393 148 353 86 282 86ZM282 -10C436 -10 532 113 532 250C532 387 436 510 282 510C128 510 32 387 32 250C32 113 128 -10 282 -10ZM634 414C693 414 730 372 737 300H530C536 372 576 414 634 414ZM727 151C714 113 683 86 641 86C580 86 535 126 529 204H873C890 385 783 510 634 510C485 510 395 387 395 250C395 113 486 -10 635 -10C742 -10 838 42 861 151Z" glyph-name="oe" horiz-adv-x="905.7753" unicode="&#339;" /><glyph d="M93 0C50 -16 20 -51 20 -90C20 -150 75 -170 173 -170H228V-87H207C163 -87 141 -83 141 -62C141 -36 185 -17 228 0Z" glyph-name="ogonek" horiz-adv-x="248" unicode="&#731;" /><glyph d="M93 0C50 -16 20 -51 20 -90C20 -150 75 -170 173 -170H228V-84H207C163 -84 146 -83 146 -62C146 -36 190 -17 233 0Z" glyph-name="ogonek.case" horiz-adv-x="253" /><glyph d="M282 86C211 86 171 148 171 250C171 352 211 414 282 414C353 414 393 352 393 250C393 148 353 86 282 86ZM282 -10C436 -10 532 113 532 250C532 387 436 510 282 510C128 510 32 387 32 250C32 113 128 -10 282 -10ZM248 555H369L266 690H92Z" glyph-name="ograve" horiz-adv-x="564" unicode="&#242;" /><glyph d="M282 86C211 86 171 148 171 250C171 352 211 414 282 414C353 414 393 352 393 250C393 148 353 86 282 86ZM282 -10C436 -10 532 113 532 250C532 387 436 510 282 510C128 510 32 387 32 250C32 113 128 -10 282 -10ZM227 555 369 690H195L106 555ZM427 555 569 690H395L306 555Z" glyph-name="ohungarumlaut" horiz-adv-x="564" unicode="&#337;" /><glyph d="M282 86C211 86 171 148 171 250C171 352 211 414 282 414C353 414 393 352 393 250C393 148 353 86 282 86ZM282 -10C436 -10 532 113 532 250C532 387 436 510 282 510C128 510 32 387 32 250C32 113 128 -10 282 -10ZM121 570H442V676H121Z" glyph-name="omacron" horiz-adv-x="564" unicode="&#333;" /><glyph d="M455 0V96H43V0ZM329 0V690H223L222 685C208 617 163 590 70 590H43V494H194V0Z" glyph-name="one" horiz-adv-x="467" unicode="1" /><glyph d="M302 0V690H196L195 685C181 617 136 590 43 590H16V494H167V0Z" glyph-name="one.ss01" horiz-adv-x="377" /><glyph d="M519 0V96H107V0ZM393 0V690H287L286 685C272 617 227 590 134 590H107V494H258V0Z" glyph-name="one.tf" horiz-adv-x="595" /><glyph d="M2 0H135L578 500H445ZM290 86C219 86 179 148 179 250C179 352 219 414 290 414C361 414 401 352 401 250C401 148 361 86 290 86ZM290 -10C444 -10 540 113 540 250C540 387 444 510 290 510C136 510 40 387 40 250C40 113 136 -10 290 -10Z" glyph-name="oslash" horiz-adv-x="580" unicode="&#248;" /><glyph d="M282 86C211 86 171 148 171 250C171 352 211 414 282 414C353 414 393 352 393 250C393 148 353 86 282 86ZM282 -10C436 -10 532 113 532 250C532 387 436 510 282 510C128 510 32 387 32 250C32 113 128 -10 282 -10ZM440 581V685C409 658 377 649 348 649C301 649 273 700 216 700C187 700 155 687 124 664V560C155 587 187 596 216 596C263 596 291 545 348 545C377 545 409 558 440 581Z" glyph-name="otilde" horiz-adv-x="564" unicode="&#245;" /><glyph d="M547 250C547 392 467 510 343 510C269 510 214 463 194 397H190V500H59V-170H190V103H194C214 37 269 -10 343 -10C473 -10 547 108 547 250ZM297 86C226 86 186 148 186 250C186 352 226 414 297 414C368 414 408 352 408 250C408 148 368 86 297 86Z" glyph-name="p" horiz-adv-x="581" unicode="p" /><glyph d="M27 514C27 417 106 338 203 338V0H320V594H415V0H532V690H203C106 690 27 611 27 514Z" glyph-name="paragraph" horiz-adv-x="615" unicode="&#182;" /><glyph d="M37 260C37 43 118 -96 176 -170H294C251 -96 172 69 172 260C172 451 251 616 294 690H176C118 616 37 477 37 260Z" glyph-name="parenleft" horiz-adv-x="312" unicode="(" /><glyph d="M39 345C39 200 98 70 157 0H290C236 90 183 180 183 345C183 510 236 600 290 690H157C98 620 39 490 39 345Z" glyph-name="parenleft.case" horiz-adv-x="315" /><glyph d="M275 260C275 43 194 -96 136 -170H18C61 -96 140 69 140 260C140 451 61 616 18 690H136C194 616 275 477 275 260Z" glyph-name="parenright" horiz-adv-x="312" unicode=")" /><glyph d="M276 345C276 200 217 70 158 0H25C79 90 132 180 132 345C132 510 79 600 25 690H158C217 620 276 490 276 345Z" glyph-name="parenright.case" horiz-adv-x="315" /><glyph d="M323 0 714 690H592L201 0ZM200 310C302 310 373 398 373 505C373 613 302 700 200 700C98 700 28 613 28 505C28 398 98 310 200 310ZM200 392C157 392 131 437 131 505C131 573 157 618 200 618C243 618 270 573 270 505C270 437 243 392 200 392ZM715 -10C817 -10 888 78 888 185C888 293 817 380 715 380C613 380 543 293 543 185C543 78 613 -10 715 -10ZM715 72C672 72 646 117 646 185C646 253 672 298 715 298C758 298 785 253 785 185C785 117 758 72 715 72Z" glyph-name="percent" horiz-adv-x="916" unicode="%" /><glyph d="M54 0H189V126H54Z" glyph-name="period" horiz-adv-x="243" unicode="." /><glyph d="M230 0H365V126H230Z" glyph-name="period.tf" horiz-adv-x="595" /><glyph d="M55 197H190V323H55Z" glyph-name="periodcentered" horiz-adv-x="245" unicode="&#183;" /><glyph d="M55 285H190V411H55Z" glyph-name="periodcentered.case" horiz-adv-x="245" /><glyph d="M1103 -10C1205 -10 1276 78 1276 185C1276 293 1205 380 1103 380C1001 380 931 293 931 185C931 78 1001 -10 1103 -10ZM1103 72C1060 72 1034 117 1034 185C1034 253 1060 298 1103 298C1146 298 1173 253 1173 185C1173 117 1146 72 1103 72ZM323 0 714 690H592L201 0ZM200 310C302 310 373 398 373 505C373 613 302 700 200 700C98 700 28 613 28 505C28 398 98 310 200 310ZM200 392C157 392 131 437 131 505C131 573 157 618 200 618C243 618 270 573 270 505C270 437 243 392 200 392ZM715 -10C817 -10 888 78 888 185C888 293 817 380 715 380C613 380 543 293 543 185C543 78 613 -10 715 -10ZM715 72C672 72 646 117 646 185C646 253 672 298 715 298C758 298 785 253 785 185C785 117 758 72 715 72Z" glyph-name="perthousand" horiz-adv-x="1304" unicode="&#8240;" /><glyph d="M520 219V322H332V510H229V322H40V219H229V30H332V219Z" glyph-name="plus" horiz-adv-x="560" unicode="+" /><glyph d="M520 297V400H332V588H229V400H40V297H229V108H332V297Z" glyph-name="plus.case" horiz-adv-x="560" /><glyph d="M520 251V354H332V510H229V354H40V251H229V133H40V30H520V133H332V251Z" glyph-name="plusminus" horiz-adv-x="560" unicode="&#177;" /><glyph d="M520 329V432H332V588H229V432H40V329H229V211H40V108H520V211H332V329Z" glyph-name="plusminus.case" horiz-adv-x="560" /><glyph d="M34 250C34 108 108 -10 238 -10C312 -10 367 37 387 103H391V-170H522V500H391V397H387C367 463 312 510 238 510C114 510 34 392 34 250ZM284 86C213 86 173 148 173 250C173 352 213 414 284 414C355 414 395 352 395 250C395 148 355 86 284 86Z" glyph-name="q" horiz-adv-x="581" unicode="q" /><glyph d="M180 0H315V126H180ZM179 200H312C312 266 332 296 375 333L408 362C454 403 489 436 489 524C489 634 382 700 264 700C135 700 33 626 27 479H161C166 561 199 604 258 604C308 604 350 577 350 518C350 469 323 446 286 414L253 385C188 328 179 282 179 200Z" glyph-name="question" horiz-adv-x="524" unicode="?" /><glyph d="M159 0H294V126H159ZM158 200H291C291 266 311 296 354 333L387 362C433 403 468 436 468 524C468 634 361 700 243 700C114 700 12 626 6 479H140C145 561 178 604 237 604C287 604 329 577 329 518C329 469 302 446 265 414L232 385C167 328 158 282 158 200Z" glyph-name="question.case" horiz-adv-x="482" /><glyph d="M338 500H203V374H338ZM339 300H206C206 234 186 204 143 167L110 138C64 97 29 64 29 -24C29 -134 136 -200 254 -200C383 -200 485 -126 491 21H357C352 -61 319 -104 260 -104C210 -104 168 -77 168 -18C168 31 195 54 232 86L265 115C330 172 339 218 339 300Z" glyph-name="questiondown" horiz-adv-x="515" unicode="&#191;" /><glyph d="M323 690H188V564H323ZM324 490H191C191 424 171 394 128 357L95 328C49 287 14 254 14 166C14 56 121 -10 239 -10C368 -10 470 64 476 211H342C337 129 304 86 245 86C195 86 153 113 153 172C153 221 180 244 217 276L250 305C315 362 324 408 324 490Z" glyph-name="questiondown.case" horiz-adv-x="483" /><glyph d="M63 444H161L181 690H43ZM248 444H346L366 690H228Z" glyph-name="quotedbl" horiz-adv-x="409" unicode="&quot;" /><glyph d="M118 -115 191 0V126H56V0H104L31 -115ZM303 -115 376 0V126H241V0H289L216 -115Z" glyph-name="quotedblbase" horiz-adv-x="432" unicode="&#8222;" /><glyph d="M119 690 46 575V449H181V575H133L206 690ZM304 690 231 575V449H366V575H318L391 690Z" glyph-name="quotedblleft" horiz-adv-x="424" unicode="&#8220;" /><glyph d="M310 449 383 564V690H248V564H296L223 449ZM125 449 198 564V690H63V564H111L38 449Z" glyph-name="quotedblright" horiz-adv-x="420" unicode="&#8221;" /><glyph d="M119 690 46 575V449H181V575H133L206 690Z" glyph-name="quoteleft" horiz-adv-x="239" unicode="&#8216;" /><glyph d="M125 449 198 564V690H63V564H111L38 449Z" glyph-name="quoteright" horiz-adv-x="235" unicode="&#8217;" /><glyph d="M118 -115 191 0V126H56V0H104L31 -115Z" glyph-name="quotesinglbase" horiz-adv-x="247" unicode="&#8218;" /><glyph d="M63 444H161L181 690H43Z" glyph-name="quotesingle" horiz-adv-x="224" unicode="'" /><glyph d="M194 265C194 358 221 381 326 381H342V510C262 510 209 472 193 402H190V500H59V0H194Z" glyph-name="r" horiz-adv-x="355" unicode="r" /><glyph d="M194 265C194 358 221 381 326 381H342V510C262 510 209 472 193 402H190V500H59V0H194ZM195 555 351 690H177L74 555Z" glyph-name="racute" horiz-adv-x="355" unicode="&#341;" /><glyph d="M194 265C194 358 221 381 326 381H342V510C262 510 209 472 193 402H190V500H59V0H194ZM-7 690H142L192 608L242 690H391L253 555H131Z" glyph-name="rcaron" horiz-adv-x="355" unicode="&#345;" /><glyph d="M194 265C194 358 221 381 326 381H342V510C262 510 209 472 193 402H190V500H59V0H194ZM121 -259 194 -176V-50H59V-176H107L34 -259Z" glyph-name="rcommaaccent" horiz-adv-x="355" unicode="&#343;" /><glyph d="M390 -10C585 -10 745 150 745 345C745 540 585 700 390 700C194 700 35 540 35 345C35 150 194 -10 390 -10ZM390 80C245 80 125 201 125 345C125 490 245 610 390 610C535 610 655 490 655 345C655 201 535 80 390 80ZM363 322 447 141H546L462 322ZM242 141H334V290H379C485 290 557 342 557 419C557 496 485 549 379 549H242ZM385 475C436 475 461 454 461 419C461 384 436 364 385 364H334V475Z" glyph-name="registered" horiz-adv-x="780" unicode="&#174;" /><glyph d="M105 530C149 530 187 564 187 612C187 660 149 694 105 694C59 694 23 660 23 612C23 564 59 530 105 530ZM105 591C95 591 85 600 85 612C85 624 95 632 105 632C115 632 126 624 126 612C126 600 115 591 105 591Z" glyph-name="ring" horiz-adv-x="210" unicode="&#730;" /><glyph d="M105 715C149 715 187 749 187 797C187 845 149 879 105 879C59 879 23 845 23 797C23 749 59 715 105 715ZM105 776C95 776 85 785 85 797C85 809 95 817 105 817C115 817 126 809 126 797C126 785 115 776 105 776Z" glyph-name="ring.case" horiz-adv-x="210" /><glyph d="M256 -10C357 -10 467 44 467 151C467 221 442 280 323 306L254 321C200 333 174 342 174 367C174 394 201 414 239 414C268 414 316 410 323 352H457C450 441 361 510 239 510C133 510 35 456 35 357C35 278 94 226 193 205L262 190C303 181 329 163 329 140C329 101 289 86 255 86C222 86 173 108 166 166H33C40 77 113 -10 256 -10Z" glyph-name="s" horiz-adv-x="499" unicode="s" /><glyph d="M256 -10C357 -10 467 44 467 151C467 221 442 280 323 306L254 321C200 333 174 342 174 367C174 394 201 414 239 414C268 414 316 410 323 352H457C450 441 361 510 239 510C133 510 35 456 35 357C35 278 94 226 193 205L262 190C303 181 329 163 329 140C329 101 289 86 255 86C222 86 173 108 166 166H33C40 77 113 -10 256 -10ZM265 555 421 690H247L144 555Z" glyph-name="sacute" horiz-adv-x="499" unicode="&#347;" /><glyph d="M256 -10C357 -10 467 44 467 151C467 221 442 280 323 306L254 321C200 333 174 342 174 367C174 394 201 414 239 414C268 414 316 410 323 352H457C450 441 361 510 239 510C133 510 35 456 35 357C35 278 94 226 193 205L262 190C303 181 329 163 329 140C329 101 289 86 255 86C222 86 173 108 166 166H33C40 77 113 -10 256 -10ZM40 690H189L239 608L289 690H438L300 555H178Z" glyph-name="scaron" horiz-adv-x="499" unicode="&#353;" /><glyph d="M256 -10C357 -10 467 44 467 151C467 221 442 280 323 306L254 321C200 333 174 342 174 367C174 394 201 414 239 414C268 414 316 410 323 352H457C450 441 361 510 239 510C133 510 35 456 35 357C35 278 94 226 193 205L262 190C303 181 329 163 329 140C329 101 289 86 255 86C222 86 173 108 166 166H33C40 77 113 -10 256 -10ZM273 -177C314 -177 335 -149 335 -119C335 -89 314 -61 273 -61H252L291 10H229L170 -109H264C279 -109 287 -111 287 -119C287 -127 279 -129 264 -129H170V-177Z" glyph-name="scedilla" horiz-adv-x="499" unicode="&#351;" /><glyph d="M256 -10C357 -10 467 44 467 151C467 221 442 280 323 306L254 321C200 333 174 342 174 367C174 394 201 414 239 414C268 414 316 410 323 352H457C450 441 361 510 239 510C133 510 35 456 35 357C35 278 94 226 193 205L262 190C303 181 329 163 329 140C329 101 289 86 255 86C222 86 173 108 166 166H33C40 77 113 -10 256 -10ZM40 555H189L239 637L289 555H438L300 690H178Z" glyph-name="scircumflex" horiz-adv-x="499" unicode="&#349;" /><glyph d="M256 -10C357 -10 467 44 467 151C467 221 442 280 323 306L254 321C200 333 174 342 174 367C174 394 201 414 239 414C268 414 316 410 323 352H457C450 441 361 510 239 510C133 510 35 456 35 357C35 278 94 226 193 205L262 190C303 181 329 163 329 140C329 101 289 86 255 86C222 86 173 108 166 166H33C40 77 113 -10 256 -10ZM250 -259 323 -176V-50H188V-176H236L163 -259Z" glyph-name="scommaaccent" horiz-adv-x="499" unicode="&#537;" /><glyph d="M401 417 291 457C226 481 193 497 193 536C193 575 228 604 280 604C332 604 387 572 387 485H521C519 609 429 700 282 700C150 700 55 626 55 527C55 438 111 386 188 358L298 318C387 286 412 260 412 215C412 175 380 145 340 145V74C450 74 549 135 549 234C549 303 515 375 401 417ZM183 103 293 63C358 39 391 23 391 -16C391 -55 356 -84 304 -84C252 -84 197 -52 197 35H63C65 -89 155 -180 302 -180C434 -180 529 -106 529 -7C529 82 473 134 396 162L286 202C197 234 172 260 172 305C172 345 204 375 244 375V446C134 446 35 385 35 286C35 217 69 145 183 103Z" glyph-name="section" horiz-adv-x="584" unicode="&#167;" /><glyph d="M72 374H207V500H72ZM134 -115 207 0V126H72V0H120L47 -115Z" glyph-name="semicolon" horiz-adv-x="271" unicode=";" /><glyph d="M210 0 490 614V690H18V594H340L69 0Z" glyph-name="seven" horiz-adv-x="503" unicode="7" /><glyph d="M256 0 536 614V690H64V594H386L115 0Z" glyph-name="seven.tf" horiz-adv-x="595" /><glyph d="M585 229C585 384 473 466 332 466C260 466 201 431 175 383H172C172 554 239 604 317 604C371 604 425 564 433 500H568C552 636 440 700 321 700C148 700 41 561 41 340C41 143 130 -10 320 -10C458 -10 585 74 585 229ZM314 86C240 86 175 141 175 229C175 317 233 370 316 370C395 370 446 312 446 229C446 141 388 86 314 86Z" glyph-name="six" horiz-adv-x="625" unicode="6" /><glyph d="M570 229C570 384 458 466 317 466C245 466 186 431 160 383H157C157 554 224 604 302 604C356 604 410 564 418 500H553C537 636 425 700 306 700C133 700 26 561 26 340C26 143 115 -10 305 -10C443 -10 570 74 570 229ZM299 86C225 86 160 141 160 229C160 317 218 370 301 370C380 370 431 312 431 229C431 141 373 86 299 86Z" glyph-name="six.tf" horiz-adv-x="595" /><glyph d="M162 0 487 690H345L20 0Z" glyph-name="slash" horiz-adv-x="506" unicode="/" /><glyph d="M206 0 531 690H389L64 0Z" glyph-name="slash.tf" horiz-adv-x="595" /><glyph glyph-name="space" horiz-adv-x="220" unicode=" " /><glyph d="M475 279V393H45V279ZM555 0V114H60V0ZM214 114C272 163 305 194 305 259C305 375 204 417 204 500C204 557 249 586 311 586C373 586 423 546 428 474H567C554 613 448 700 311 700C169 700 60 618 60 510C60 410 161 361 161 255C161 197 131 171 60 114Z" glyph-name="sterling" horiz-adv-x="600" unicode="&#163;" /><glyph d="M343 500H232V614H97V500H22V404H97V107C97 33 144 0 217 0H339V96H281C247 96 232 104 232 149V404H343Z" glyph-name="t" horiz-adv-x="365" unicode="t" /><glyph d="M281 404H516V500H281ZM712 404V500H601V541C601 586 616 594 650 594H708V690H586C513 690 466 657 466 583V500H391V404H466V0H601V404ZM343 500H232V614H97V500H22V404H97V107C97 33 144 0 217 0H339V96H281C247 96 232 104 232 149V404H343Z" glyph-name="t_f" horiz-adv-x="723" /><glyph d="M282 404H517V500H282ZM708 500H597V614H462V500H387V404H462V107C462 33 509 0 582 0H704V96H646C612 96 597 104 597 149V404H708ZM343 500H232V614H97V500H22V404H97V107C97 33 144 0 217 0H339V96H281C247 96 232 104 232 149V404H343Z" glyph-name="t_t" horiz-adv-x="730" /><glyph d="M346 265V361H25V265ZM346 500H235V614H100V500H25V404H100V107C100 33 147 0 220 0H342V96H284C250 96 235 104 235 149V404H346Z" glyph-name="tbar" horiz-adv-x="371" unicode="&#359;" /><glyph d="M377 546 490 690H335L264 546ZM343 500H232V614H97V500H22V404H97V107C97 33 144 0 217 0H339V96H281C247 96 232 104 232 149V404H343Z" glyph-name="tcaron" horiz-adv-x="365" unicode="&#357;" /><glyph d="M343 500H232V614H97V500H22V404H97V107C97 33 144 0 217 0H339V96H281C247 96 232 104 232 149V404H343ZM175 -259 248 -176V-50H113V-176H161L88 -259Z" glyph-name="tcedilla" horiz-adv-x="365" unicode="&#355;" /><glyph d="M343 500H232V614H97V500H22V404H97V107C97 33 144 0 217 0H339V96H281C247 96 232 104 232 149V404H343ZM175 -259 248 -176V-50H113V-176H161L88 -259Z" glyph-name="tcommaaccent" horiz-adv-x="365" unicode="&#355;" /><glyph d="M408 250C408 148 364 86 299 86C234 86 186 148 186 250C186 352 233 414 299 414C365 414 408 352 408 250ZM547 250C547 392 467 510 343 510C269 510 214 463 194 397H190V690H59V-170H190V103H194C214 37 269 -10 343 -10C473 -10 547 108 547 250Z" glyph-name="thorn" horiz-adv-x="581" unicode="&#254;" /><glyph d="M282 -10C419 -10 535 56 535 188C535 289 458 343 364 355V358C450 373 524 432 524 521C524 633 409 700 285 700C165 700 59 632 43 488H178C182 559 214 604 282 604C350 604 385 561 385 515C385 445 329 404 203 404V308C338 308 396 279 396 197C396 139 352 86 282 86C212 86 170 136 169 216H34C51 61 144 -10 282 -10Z" glyph-name="three" horiz-adv-x="578" unicode="3" /><glyph d="M291 -10C428 -10 544 56 544 188C544 289 467 343 373 355V358C459 373 533 432 533 521C533 633 418 700 294 700C174 700 68 632 52 488H187C191 559 223 604 291 604C359 604 394 561 394 515C394 445 338 404 212 404V308C347 308 405 279 405 197C405 139 361 86 291 86C221 86 179 136 178 216H43C60 61 153 -10 291 -10Z" glyph-name="three.tf" horiz-adv-x="595" /><glyph d="M326 581V685C295 658 263 649 234 649C187 649 159 700 102 700C73 700 41 687 10 664V560C41 587 73 596 102 596C149 596 177 545 234 545C263 545 295 558 326 581Z" glyph-name="tilde" horiz-adv-x="336" unicode="&#732;" /><glyph d="M336 766V870C305 843 273 834 244 834C197 834 169 885 112 885C83 885 51 872 20 849V745C51 772 83 781 112 781C159 781 187 730 244 730C273 730 305 743 336 766Z" glyph-name="tilde.case" horiz-adv-x="356" /><glyph d="M307 622V690H29V622H128V374H208V622ZM412 624 456 374H511V440L467 690H332V374H412ZM610 624V374H690V690H555L511 440V374H566Z" glyph-name="trademark" horiz-adv-x="758" unicode="&#8482;" /><glyph d="M543 0V96H240L430 290C500 361 538 428 538 501C538 623 433 700 292 700C151 700 39 621 39 464H174C174 559 221 604 292 604C358 604 399 568 399 498C399 454 366 411 311 354L39 76V0Z" glyph-name="two" horiz-adv-x="584" unicode="2" /><glyph d="M548 0V96H245L435 290C505 361 543 428 543 501C543 623 438 700 297 700C156 700 44 621 44 464H179C179 559 226 604 297 604C363 604 404 568 404 498C404 454 371 411 316 354L44 76V0Z" glyph-name="two.tf" horiz-adv-x="595" /><glyph d="M352 219C352 126 322 86 270 86C218 86 189 122 189 225V500H54V189C54 63 105 -10 217 -10C289 -10 337 28 353 98H356V0H487V500H352Z" glyph-name="u" horiz-adv-x="546" unicode="u" /><glyph d="M352 219C352 126 322 86 270 86C218 86 189 122 189 225V500H54V189C54 63 105 -10 217 -10C289 -10 337 28 353 98H356V0H487V500H352ZM303 555 459 690H285L182 555Z" glyph-name="uacute" horiz-adv-x="546" unicode="&#250;" /><glyph d="M352 219C352 126 322 86 270 86C218 86 189 122 189 225V500H54V189C54 63 105 -10 217 -10C289 -10 337 28 353 98H356V0H487V500H352ZM270 635C236 635 208 651 208 690H123C123 617 179 555 270 555C361 555 417 617 417 690H332C332 651 304 635 270 635Z" glyph-name="ubreve" horiz-adv-x="546" unicode="&#365;" /><glyph d="M352 219C352 126 322 86 270 86C218 86 189 122 189 225V500H54V189C54 63 105 -10 217 -10C289 -10 337 28 353 98H356V0H487V500H352ZM72 555H221L271 637L321 555H470L332 690H210Z" glyph-name="ucircumflex" horiz-adv-x="546" unicode="&#251;" /><glyph d="M352 219C352 126 322 86 270 86C218 86 189 122 189 225V500H54V189C54 63 105 -10 217 -10C289 -10 337 28 353 98H356V0H487V500H352ZM103 560H238V686H103ZM304 560H439V686H304Z" glyph-name="udieresis" horiz-adv-x="546" unicode="&#252;" /><glyph d="M352 219C352 126 322 86 270 86C218 86 189 122 189 225V500H54V189C54 63 105 -10 217 -10C289 -10 337 28 353 98H356V0H487V500H352ZM203 -190H338V-64H203Z" glyph-name="udotaccent" horiz-adv-x="546" unicode="&#7909;" /><glyph d="M352 219C352 126 322 86 270 86C218 86 189 122 189 225V500H54V189C54 63 105 -10 217 -10C289 -10 337 28 353 98H356V0H487V500H352ZM229 555H350L247 690H73Z" glyph-name="ugrave" horiz-adv-x="546" unicode="&#249;" /><glyph d="M352 219C352 126 322 86 270 86C218 86 189 122 189 225V500H54V189C54 63 105 -10 217 -10C289 -10 337 28 353 98H356V0H487V500H352ZM212 555 354 690H180L91 555ZM412 555 554 690H380L291 555Z" glyph-name="uhungarumlaut" horiz-adv-x="546" unicode="&#369;" /><glyph d="M352 219C352 126 322 86 270 86C218 86 189 122 189 225V500H54V189C54 63 105 -10 217 -10C289 -10 337 28 353 98H356V0H487V500H352ZM110 570H431V676H110Z" glyph-name="umacron" horiz-adv-x="546" unicode="&#363;" /><glyph d="M461 -96V0H28V-96Z" glyph-name="underscore" horiz-adv-x="489" unicode="_" /><glyph glyph-name="uni00A0" horiz-adv-x="220" unicode="&#160;" /><glyph d="M352 212V308H55V212Z" glyph-name="uni00AD" horiz-adv-x="407" unicode="&#173;" /><glyph d="M544 345C544 180 466 104 362 104C258 104 192 177 181 289H581V403H36C13 156 166 -10 362 -10C558 -10 688 156 688 345C688 534 564 700 360 700C217 700 83 629 52 480H195C214 541 274 586 352 586C457 586 544 510 544 345Z" glyph-name="uni018F" horiz-adv-x="725" unicode="&#399;" /><glyph d="M271 86C212 86 175 128 168 200H375C369 128 329 86 271 86ZM178 349C191 387 222 414 264 414C325 414 370 374 376 296H32C15 115 122 -10 271 -10C420 -10 510 113 510 250C510 387 419 510 270 510C163 510 67 458 44 349Z" glyph-name="uni0259" horiz-adv-x="543" unicode="&#601;" /><glyph d="M390 -10C585 -10 745 150 745 345C745 540 585 700 390 700C194 700 35 540 35 345C35 150 194 -10 390 -10ZM390 80C245 80 125 201 125 345C125 490 245 610 390 610C535 610 655 490 655 345C655 201 535 80 390 80ZM257 141H349V284H405C522 284 583 342 583 417C583 492 522 549 405 549H257ZM411 475C467 475 487 450 487 417C487 384 467 358 411 358H349V475Z" glyph-name="uni2117" horiz-adv-x="780" unicode="&#8471;" /><glyph d="M75 0H575V500H75Z" glyph-name="uni25A0" horiz-adv-x="650" unicode="&#9632;" /><glyph d="M75 0H575V500H75ZM171 96V404H479V96Z" glyph-name="uni25A1" horiz-adv-x="650" unicode="&#9633;" /><glyph d="M325 -10C468 -10 585 107 585 250C585 393 468 510 325 510C182 510 65 393 65 250C65 107 182 -10 325 -10ZM325 86C235 86 161 160 161 250C161 340 235 414 325 414C415 414 489 340 489 250C489 160 415 86 325 86Z" glyph-name="uni25CB" horiz-adv-x="650" unicode="&#9675;" /><glyph d="M325 -10C468 -10 585 107 585 250C585 393 468 510 325 510C182 510 65 393 65 250C65 107 182 -10 325 -10Z" glyph-name="uni25CF" horiz-adv-x="650" unicode="&#9679;" /><glyph d="M356 0C313 -16 283 -51 283 -90C283 -150 338 -170 436 -170H487V-87H470C426 -87 404 -83 404 -62C404 -36 444 -17 487 0ZM352 219C352 126 322 86 270 86C218 86 189 122 189 225V500H54V189C54 63 105 -10 217 -10C289 -10 337 28 353 98H356V0H487V500H352Z" glyph-name="uogonek" horiz-adv-x="546" unicode="&#371;" /><glyph d="M352 219C352 126 322 86 270 86C218 86 189 122 189 225V500H54V189C54 63 105 -10 217 -10C289 -10 337 28 353 98H356V0H487V500H352ZM270 530C314 530 352 564 352 612C352 660 314 694 270 694C224 694 188 660 188 612C188 564 224 530 270 530ZM270 591C260 591 250 600 250 612C250 624 260 632 270 632C280 632 291 624 291 612C291 600 280 591 270 591Z" glyph-name="uring" horiz-adv-x="546" unicode="&#367;" /><glyph d="M352 219C352 126 322 86 270 86C218 86 189 122 189 225V500H54V189C54 63 105 -10 217 -10C289 -10 337 28 353 98H356V0H487V500H352ZM428 581V685C397 658 365 649 336 649C289 649 261 700 204 700C175 700 143 687 112 664V560C143 587 175 596 204 596C251 596 279 545 336 545C365 545 397 558 428 581Z" glyph-name="utilde" horiz-adv-x="546" unicode="&#361;" /><glyph d="M261 60 152 500H19L145 0H261ZM261 60V0H377L503 500H370Z" glyph-name="v" horiz-adv-x="522" unicode="v" /><glyph d="M159 500H26L114 0H235V60ZM235 60V0H345L426 440V500H316ZM693 500 617 60V0H738L826 500ZM617 60 536 500H426V440L507 0H617Z" glyph-name="w" horiz-adv-x="852" unicode="w" /><glyph d="M159 500H26L114 0H235V60ZM235 60V0H345L426 440V500H316ZM693 500 617 60V0H738L826 500ZM617 60 536 500H426V440L507 0H617ZM938 500H805L893 0H1014V60ZM1014 60V0H1124L1205 440V500H1095ZM1472 500 1396 60V0H1517L1605 500ZM1396 60 1315 500H1205V440L1286 0H1396ZM1717 500H1584L1672 0H1793V60ZM1793 60V0H1903L1984 440V500H1874ZM2251 500 2175 60V0H2296L2384 500ZM2175 60 2094 500H1984V440L2065 0H2175Z" glyph-name="w_w_w" horiz-adv-x="2410" /><glyph d="M159 500H26L114 0H235V60ZM235 60V0H345L426 440V500H316ZM693 500 617 60V0H738L826 500ZM617 60 536 500H426V440L507 0H617ZM470 555 626 690H452L349 555Z" glyph-name="wacute" horiz-adv-x="852" unicode="&#7811;" /><glyph d="M159 500H26L114 0H235V60ZM235 60V0H345L426 440V500H316ZM693 500 617 60V0H738L826 500ZM617 60 536 500H426V440L507 0H617ZM227 555H376L426 637L476 555H625L487 690H365Z" glyph-name="wcircumflex" horiz-adv-x="852" unicode="&#373;" /><glyph d="M159 500H26L114 0H235V60ZM235 60V0H345L426 440V500H316ZM693 500 617 60V0H738L826 500ZM617 60 536 500H426V440L507 0H617ZM258 560H393V686H258ZM459 560H594V686H459Z" glyph-name="wdieresis" horiz-adv-x="852" unicode="&#7813;" /><glyph d="M159 500H26L114 0H235V60ZM235 60V0H345L426 440V500H316ZM693 500 617 60V0H738L826 500ZM617 60 536 500H426V440L507 0H617ZM374 555H495L392 690H218Z" glyph-name="wgrave" horiz-adv-x="852" unicode="&#7809;" /><glyph d="M324 243 511 500H359L225 304ZM147 0 314 250 220 316 -5 0ZM207 243 306 304 172 500H20ZM384 0H536L311 316L217 250Z" glyph-name="x" horiz-adv-x="531" unicode="x" /><glyph d="M159 500H17L169 261L2 0H144L311 261ZM421 500 269 261 436 0H578L411 261L563 500Z" glyph-name="x.ss05" horiz-adv-x="580" /><glyph d="M151 65H284L142 500H9ZM304 -170 517 500H386L173 -170Z" glyph-name="y" horiz-adv-x="520" unicode="y" /><glyph d="M151 65H284L142 500H9ZM304 -170 517 500H386L173 -170ZM293 555 449 690H275L172 555Z" glyph-name="yacute" horiz-adv-x="520" unicode="&#253;" /><glyph d="M151 65H284L142 500H9ZM304 -170 517 500H386L173 -170ZM65 555H214L264 637L314 555H463L325 690H203Z" glyph-name="ycircumflex" horiz-adv-x="520" unicode="&#375;" /><glyph d="M151 65H284L142 500H9ZM304 -170 517 500H386L173 -170ZM96 560H231V686H96ZM297 560H432V686H297Z" glyph-name="ydieresis" horiz-adv-x="520" unicode="&#255;" /><glyph d="M602 300V396H96V300ZM602 147V243H96V147ZM23 690 281 302 390 378 182 690ZM279 0H419V375H279ZM674 690H515L307 378L416 302Z" glyph-name="yen" horiz-adv-x="698" unicode="&#165;" /><glyph d="M151 65H284L142 500H9ZM304 -170 517 500H386L173 -170ZM220 555H341L238 690H64Z" glyph-name="ygrave" horiz-adv-x="520" unicode="&#7923;" /><glyph d="M151 65H284L142 500H9ZM304 -170 517 500H386L173 -170ZM103 570H424V676H103Z" glyph-name="ymacron" horiz-adv-x="520" unicode="&#563;" /><glyph d="M34 90V0H437V96H198L426 410V500H39V404H262Z" glyph-name="z" horiz-adv-x="468" unicode="z" /><glyph d="M34 90V0H437V96H198L426 410V500H39V404H262ZM277 555 433 690H259L156 555Z" glyph-name="zacute" horiz-adv-x="468" unicode="&#378;" /><glyph d="M34 90V0H437V96H198L426 410V500H39V404H262ZM33 690H182L232 608L282 690H431L293 555H171Z" glyph-name="zcaron" horiz-adv-x="468" unicode="&#382;" /><glyph d="M34 90V0H437V96H198L426 410V500H39V404H262ZM165 560H300V686H165Z" glyph-name="zdotaccent" horiz-adv-x="468" unicode="&#380;" /><glyph d="M316 604C411 604 453 500 453 345C453 190 411 86 316 86C221 86 180 190 180 345C180 500 221 604 316 604ZM316 700C160 700 41 563 41 345C41 127 160 -10 316 -10C472 -10 592 127 592 345C592 563 472 700 316 700Z" glyph-name="zero" horiz-adv-x="633" unicode="0" /><glyph d="M297 604C392 604 434 500 434 345C434 190 392 86 297 86C202 86 161 190 161 345C161 500 202 604 297 604ZM297 700C141 700 22 563 22 345C22 127 141 -10 297 -10C453 -10 573 127 573 345C573 563 453 700 297 700Z" glyph-name="zero.tf" horiz-adv-x="595" /><glyph d="M107 143 201 72 529 553 435 624ZM316 604C411 604 453 500 453 345C453 190 411 86 316 86C221 86 180 190 180 345C180 500 221 604 316 604ZM316 700C160 700 41 563 41 345C41 127 160 -10 316 -10C472 -10 592 127 592 345C592 563 472 700 316 700Z" glyph-name="zeroslashed" horiz-adv-x="633" /><glyph d="M88 143 182 72 510 553 416 624ZM297 604C392 604 434 500 434 345C434 190 392 86 297 86C202 86 161 190 161 345C161 500 202 604 297 604ZM297 700C141 700 22 563 22 345C22 127 141 -10 297 -10C453 -10 573 127 573 345C573 563 453 700 297 700Z" glyph-name="zeroslashed.tf" horiz-adv-x="595" /></font>
</defs>
</svg>
