<svg xmlns="http://www.w3.org/2000/svg" viewBox="0 0 1229.39 113.6"><defs><style>.cls-1{fill:#fff;}</style></defs><g id="Layer_2" data-name="Layer 2"><g id="Layer_1-2" data-name="Layer 1"><polygon class="cls-1" points="94.09 1.6 40.49 1.6 0 112 19.05 112 58.25 5.12 58.25 112 76.33 112 76.33 5.12 115.53 112 134.58 112 94.09 1.6"/><path class="cls-1" d="M256.76,113.6c-29.28,0-45.12-20.48-46.88-40.48H228.6c1.12,14.4,12.8,25.6,28.32,25.6,14.08,0,24.48-6.08,24.48-16.32,0-9-6.72-13.76-21-17.12l-16-3.68c-21.6-5.12-32.32-15.2-32.32-30.56,0-18.56,18.24-31,40.48-31,28.16,0,42.56,15.36,44.48,34.4H278.36c-1.44-13.12-12.48-19.52-25.44-19.52-12.64,0-21.76,5.44-21.76,14.88,0,7.52,5.6,11,21.92,14.88l16,3.84c20.8,4.8,31.2,15.68,31.2,33.12C300.28,100,282.36,113.6,256.76,113.6Z"/><path class="cls-1" d="M375,113.6c-26.72,0-42.72-14.88-42.72-45.44V1.6h18.08V70.24c0,19.2,9.28,28.48,24.64,28.48s24.48-9.28,24.48-28.48V1.6h18.08V68.16C417.56,98.72,401.56,113.6,375,113.6Z"/><path class="cls-1" d="M549.24,112H513.4L474.2,5.12V112H456.11V1.6H492l39.2,106.88V1.6h18.08Z"/><path class="cls-1" d="M656.6,112H590.52V1.6H608.6V97.12h48Z"/><path class="cls-1" d="M685.55,112V1.6h18.08V112Z"/><path class="cls-1" d="M736.43,1.6H826V16.48H790.35V112H772.27V16.48H736.43Z"/><path class="cls-1" d="M950,113.6c-29.28,0-45.12-20.48-46.88-40.48h18.72c1.12,14.4,12.8,25.6,28.32,25.6,14.08,0,24.48-6.08,24.48-16.32,0-9-6.72-13.76-21-17.12l-16-3.68c-21.6-5.12-32.32-15.2-32.32-30.56,0-18.56,18.24-31,40.48-31C974,0,988.43,15.36,990.35,34.4H971.63c-1.44-13.12-12.48-19.52-25.44-19.52-12.64,0-21.76,5.44-21.76,14.88,0,7.52,5.6,11,21.92,14.88l16,3.84c20.8,4.8,31.2,15.68,31.2,33.12C993.55,100,975.63,113.6,950,113.6Z"/><path class="cls-1" d="M1096.91,112h-67V1.6h65.76V16.48H1048V47.84h46.24V62.72H1048v34.4h49Z"/><path class="cls-1" d="M1158.67,1.6h34.4L1229.39,112H1211l-10.24-31H1151l-10.24,31h-18.56Zm-2.88,64.32h40l-20-60.8Z"/></g></g></svg>